<ttFont>
          <CharString index="0">
            rmoveto
            70 41 32 48 56 vvcurveto
            55 -27 36 -50 -42 -29 -24 -45 -38 27 -21 22 -8 vhcurveto
            31 31 rlineto
            11 -5 7 -9 -19 vvcurveto
            -18 -13 -27 -50 -38 vhcurveto
            endchar
          </CharString>
          <CharString index="1">
            rmoveto
            8 -10 146 68 142 -68 9 10 -74 124 rlineto
            26 -15 -18 14 -37 hhcurveto
            -18 -23 -8 -8 -14 hvcurveto
            endchar
          </CharString>
          <CharString index="2">
            hintmask 00000000
            hintmask 11100100
            432 19 rmoveto
            -71 -19 327 19 -46 hlineto
            -252 687 rlineto
            -82 hlineto
            hintmask 11101000
            -255 -687 rlineto
            -47 -19 153 19 -75 hlineto
            77 216 rlineto
            198 hlineto
            -95 284 rmoveto
            87 -262 rlineto
            -181 hlineto
            return
          </CharString>
          <CharString index="3">
            -36 19 -39 56 48 26 31 44 50 -32 23 -43 return
          </CharString>
          <CharString index="4">
            -26 -8 21 16 hvcurveto
            26 20 rlineto
            19 -6 -15 19 -25 hhcurveto
            -25 -18 -17 -28 -38 41 -28 62 103 33 59 45 53 -31 36 -74 -12 -14 -2 -1 -7 hvcurveto
            return
          </CharString>
          <CharString index="5">
            200 hintmask 00000000
            hintmask 11010000
            424 202 rmoveto
            -163 479 rlineto
            70 19 -325 -19 47 hlineto
            252 -691 rlineto
            87 hlineto
            130 452 148 -452 rlineto
            89 hlineto
            hintmask 11000100
            184 691 rlineto
            66 19 -200 -19 101 hlineto
            -120 -473 -149 473 rlineto
            59 19 -310 -19 57 hlineto
            60 -191 rlineto
            return
          </CharString>
          <CharString index="6">
            185 -53 callgsubr
            hintmask 1011001010000000
            390 10 rmoveto
            -92 -53 100 203 hvcurveto
            79 vlineto
            207 54 92 99 88 65 -96 -112 56 vhcurveto
            18 hlineto
            hintmask 1010101010000000
            -8 217 rlineto
            -11 hlineto
            hintmask 1011001010000000
            -55 callgsubr
            -54 31 -104 hhcurveto
            -205 -140 -128 -242 -239 130 -112 212 hvcurveto
            87 75 36 40 hhcurveto
            hintmask 0111001010000000
            28 11 -8 -17 12 hvcurveto
            15 282 39 22 -288 -22 64 hlineto
            hintmask 1011001010000000
            -194 vlineto
            -51 -6 -28 -70 vhcurveto
            return
          </CharString>
          <CharString index="7">
            rmoveto
            -8 10 -146 -68 -142 68 -9 -10 74 -124 rlineto
            -26 15 18 -14 37 hhcurveto
            18 23 8 8 14 hvcurveto
            endchar
          </CharString>
          <CharString index="8">
            -54 vvcurveto
            -57 44 -26 56 69 28 38 38 23 vhcurveto
            -13 8 rlineto
            -28 -19 -17 -15 -19 hhcurveto
            -23 -9 13 50 return
          </CharString>
          <CharString index="9">
            rmoveto
            36 18 35 52 52 21 -34 -37 -39 -21 -34 -50 -56 -16 36 37 vhcurveto
            -30 hmoveto
            -57 30 -40 71 65 36 41 58 54 -33 39 -66 -70 -33 -43 -52 vhcurveto
            return
          </CharString>
          <CharString index="10">
            rmoveto
            74 46 58 58 76 vvcurveto
            61 -36 35 -54 -44 -36 -29 -44 -38 30 -24 23 -8 vhcurveto
            42 39 rlineto
            12 -2 15 -10 -24 vvcurveto
            -37 -27 -42 -66 -43 vhcurveto
            return
          </CharString>
          <CharString index="11">
            590 681 rmoveto
            55 19 -137 -19 55 -483 hlineto
            -262 502 rlineto
            -276 -19 55 -662 -55 -19 137 19 -55 628 hlineto
            343 -647 rlineto
            140 hlineto
            return
          </CharString>
          <CharString index="12">
            475 -16 callsubr
            -420 hlineto
            -13 -192 rlineto
            13 hlineto
            142 41 34 32 136 hhcurveto
            11 hlineto
            -241 -443 rlineto
            -15 420 vlineto
            16 205 rlineto
            -14 hlineto
            -130 -36 -57 -57 -114 hhcurveto
            -13 hlineto
            237 440 rlineto
            return
          </CharString>
          <CharString index="13">
            rmoveto
            -42 19 -51 81 72 29 41 53 61 -37 31 -62 return
          </CharString>
          <CharString index="14">
            rmoveto
            -88 -112 -72 -176 -79 48 -73 98 59 27 38 32 12 hvcurveto
            hintmask 11011111
            -38 15 31 -34 85 hhcurveto
            125 76 81 170 212 -143 116 -199 -237 -160 -171 -231 -245 187 -108 206 91 99 33 56 60 hvcurveto
            -16 18 rlineto
            -45 -53 -79 -38 -101 hhcurveto
            -178 -188 88 245 238 171 138 191 206 117 -120 -193 -142 -72 -73 -52 -48 -9 28 50 30 5 34 7 42 hvcurveto
            32 182 rlineto
            -109 hlineto
            -17 -30 rlineto
            hintmask 10111111
            22 -23 -22 15 -42 hhcurveto
            48 -265 rmoveto
            -66 -10 -32 -48 -39 hhcurveto
            -34 -17 24 60 75 16 199 84 28 18 -9 -21 20 hvcurveto
            endchar
          </CharString>
          <CharString index="15">
            -65 callgsubr
            48 -20 30 -20 -7 callsubr
            255 206 hintmask 00000000
            hintmask 11011100
            41 339 rmoveto
            -167 61 -114 127 -46 vhcurveto
            -29 -76 25 -10 29 78 rlineto
            -9 35 39 -5 43 hhcurveto
            231 105 139 223 175 -65 118 -128 45 hvcurveto
            hintmask 11101100
            26 69 rlineto
            hintmask 11011100
            -25 10 -27 -71 rlineto
            9 -32 -35 4 -38 hhcurveto
            -223 -119 -142 -230 hvcurveto
            11 callgsubr
            -48 -31 18 35 -19 vhcurveto
            207 546 rlineto
            15 -51 2 -76 -100 vvcurveto
            -255 -76 rmoveto
            72 vlineto
            205 8 106 121 46 29 -15 -30 18 vhcurveto
            -206 -544 rlineto
            -14 50 -2 69 87 vvcurveto
            return
          </CharString>
          <CharString index="16">
            250 235 rmoveto
            -143 -87 -23 -101 -100 78 -21 70 70 29 26 48 16 hvcurveto
            -49 12 45 -25 81 hhcurveto
            86 37 34 120 5 hvcurveto
            -15 1 rlineto
            return
          </CharString>
          <CharString index="17">
            262 0 118 572 21 hstemhm
            97 210 18 38 114 40 45 205 hintmask 00000000
            hintmask 11101100
            477 hmoveto
            318 hlineto
            12 264 rlineto
            -15 hlineto
            -118 -23 -41 -28 -129 hhcurveto
            -82 hlineto
            98 52 152 78 166 vvcurveto
            186 -116 111 -214 -217 -123 -123 -183 -146 84 -76 144 -65 vhcurveto
            -70 hlineto
            -129 -41 28 118 -23 hvcurveto
            -17 hlineto
            12 -264 rlineto
            hintmask 11111100
            306 106 hlineto
            hintmask 11101100
            -52 52 -4 35 193 vvcurveto
            150 -7 154 139 133 -10 -165 -142 -186 -8 -27 -77 -65 vhcurveto
            endchar
          </CharString>
          <CharString index="18">
            397 371 rmoveto
            -136 313 rlineto
            65 16 -320 -16 47 hlineto
            170 -353 rlineto
            -312 -61 -19 317 19 -61 331 vlineto
            return
          </CharString>
          <CharString index="19">
            205 -182 207 -53 callgsubr
            hintmask 0111010100000000
            -41 callsubr
            hintmask 1011010100000000
            -86 callgsubr
            hintmask 0111010010000000
            -91 callgsubr
            hintmask 0000101000000000
            return
          </CharString>
          <CharString index="20">
            333 197 rmoveto
            -130 -3 -59 -57 -61 -2 75 116 vhcurveto
            78 vlineto
            113 3 78 61 56 3 -78 -108 vhcurveto
            -315 -46 rmoveto
            -156 85 -90 168 178 76 91 164 162 -80 79 -168 -161 -98 -86 -164 vhcurveto
            return
          </CharString>
          <CharString index="21">
            -43 -205 rmoveto
            -19 -7 10 72 hvcurveto
            16 vlineto
            61 20 30 42 vhcurveto
            7 -93 hlineto
            -64 -24 -32 -19 vhcurveto
            return
          </CharString>
          <CharString index="22">
            -83 callsubr
            vhcurveto
            return
          </CharString>
          <CharString index="23">
            -19 75 -504 vlineto
            -140 -10 -28 -53 -29 -20 14 21 8 3 8 6 10 vhcurveto
            39 hlineto
            7 19 4 18 17 vvcurveto
            44 -25 33 -58 -54 -35 -35 -57 -75 69 -43 107 158 86 74 184 vhcurveto
            432 55 19 vlineto
            return
          </CharString>
          <CharString index="24">
            rmoveto
            -104 callsubr
            return
          </CharString>
          <CharString index="25">
            60 143 rmoveto
            -124 71 -29 99 -21 callgsubr
            vhcurveto
            -38 callsubr
            -35 -9 32 59 hvcurveto
            337 130 18 -130 175 vlineto
            -186 -46 rlineto
            -129 -55 -18 55 vlineto
            return
          </CharString>
          <CharString index="26">
            173 0 19 340 26 296 19 hstem
            95 195 226 206 vstem
            19 359 rmoveto
            76 -340 -66 -19 283 hlineto
            239 171 80 282 249 -137 89 -247 hvcurveto
            -309 -19 66 -296 -76 hlineto
            271 -366 rmoveto
            340 129 26 -129 296 -18 callgsubr
          </CharString>
          <CharString index="27">
            636 -64 callsubr
            -590 hlineto
            -10 -251 rlineto
            19 hlineto
            155 51 34 75 91 hhcurveto
            13 -658 -85 -21 365 21 -85 658 12 hlineto
            91 31 -67 -163 54 hvcurveto
            19 hlineto
            return
          </CharString>
          <CharString index="28">
            5 458 rmoveto
            41 hlineto
            171 -458 rlineto
            88 hlineto
            -22 -62 rlineto
            -108 -38 -40 -56 -56 hhcurveto
            -29 -6 23 30 10 hvcurveto
            35 hlineto
            4 14 2 12 10 vvcurveto
            47 -32 22 -51 -48 -32 -31 -50 -63 50 -38 75 79 52 40 129 45 vhcurveto
            187 539 rlineto
            50 18 -141 -18 67 hlineto
            -116 -332 -109 332 rlineto
            54 18 -290 hlineto
            return
          </CharString>
          <CharString index="29">
            71 51 -38 -92 36 hvcurveto
            12 153 -11 hlineto
            -25 -13 -7 -8 -15 hhcurveto
            -12 -4 3 5 -12 hvcurveto
            12 -27 -30 11 -44 hhcurveto
            -106 -70 -67 -102 -111 89 -31 80 -22 hvcurveto
            return
          </CharString>
          <CharString index="30">
            rmoveto
            49 26 32 107 27 hvcurveto
            -13 4 rlineto
            -39 -13 -25 -3 -20 hhcurveto
            return
          </CharString>
          <CharString index="31">
            -317 -21 callsubr
            314 -20 callsubr
            316 44 hlineto
            114 46 -49 -127 54 hvcurveto
            18 hlineto
            -10 198 rlineto
            -574 hlineto
            107 -22 rmoveto
            6 hlineto
            return
          </CharString>
          <CharString index="32">
            3 -20 -22 2 -23 hhcurveto
            -171 -93 -86 -164 hvcurveto
            324 -39 rmoveto
            -130 -7 -59 -57 -35 -17 24 43 -8 vhcurveto
            119 314 rlineto
            4 -30 1 -37 -40 vvcurveto
            -131 -83 rmoveto
            78 vlineto
            113 7 78 61 24 14 -14 -25 10 vhcurveto
            -115 -302 rlineto
            -1 21 0 25 26 vvcurveto
            return
          </CharString>
          <CharString index="33">
            -53 callsubr
            -22 59 return
          </CharString>
          <CharString index="34">
            468 65 19 -315 -19 55 -434 vlineto
            -199 117 -58 163 205 51 92 154 vhcurveto
            445 55 19 -146 vlineto
            return
          </CharString>
          <CharString index="35">
            25 -64 callsubr
            -19 55 -662 -55 -19 305 19 -55 317 vlineto
            9 2 165 -319 rlineto
            -47 -19 321 19 -54 hlineto
            -240 470 172 192 rlineto
            60 19 -175 -19 79 hlineto
            -282 -314 -8 -2 rlineto
            316 55 19 vlineto
            return
          </CharString>
          <CharString index="36">
            337 hmoveto
            278 18 -36 hlineto
            -173 339 119 101 rlineto
            70 18 -197 -18 94 hlineto
            -225 -187 -16 -6 rlineto
            return
          </CharString>
          <CharString index="37">
            34 0 22 321 26 309 22 return
          </CharString>
          <CharString index="38">
            -65 -468 hlineto
            -110 26 -80 123 vhcurveto
            return
          </CharString>
          <CharString index="39">
            -71 callgsubr
            -157 hhcurveto
            hintmask 10100000
            -139 -118 -76 -173 hvcurveto
            194 41 -56 callgsubr
            hintmask 11100000
            -49 vlineto
            endchar
          </CharString>
          <CharString index="40">
            rmoveto
            12 -9 125 105 125 -104 11 7 -61 159 rlineto
            30 -12 -20 18 -32 hhcurveto
            -22 -22 -8 -8 -15 hvcurveto
            endchar
          </CharString>
          <CharString index="41">
            hvcurveto
            -38 hlineto
            -3 -12 -3 -16 -15 vvcurveto
            -41 26 -30 return
          </CharString>
          <CharString index="42">
            24 vlineto
            140 62 -50 -243 hvcurveto
            -58 vlineto
            -224 -53 -87 -135 vhcurveto
            return
          </CharString>
          <CharString index="43">
            700 rmoveto
            return
          </CharString>
          <CharString index="44">
            rmoveto
            5 8 8 14 16 vvcurveto
            17 -10 12 -20 17 vhcurveto
            -159 130 -8 -8 84 -174 -85 -163 return
          </CharString>
          <CharString index="45">
            113 74 57 114 118 -88 32 -79 21 hvcurveto
            -66 18 -60 11 46 vvcurveto
            31 27 27 66 vhcurveto
            return
          </CharString>
          <CharString index="46">
            rmoveto
            -95 -50 -40 -51 -31 18 -27 39 32 25 20 28 12 -3 8 -3 8 hvcurveto
            -16 hlineto
            -3 8 -1 7 7 vvcurveto
            23 17 13 26 33 7 -30 -52 -80 -13 -17 -72 -7 vhcurveto
            2 -18 rlineto
            return
          </CharString>
          <CharString index="47">
            47 -30 16 -25 -56 -49 -55 -4 -55 vhcurveto
            3 65 63 28 53 vvcurveto
            34 -22 30 -48 -53 -24 -30 -34 -55 60 -29 3 -62 vhcurveto
            2 -56 -50 57 -54 hhcurveto
            -39 -19 -32 -31 -32 18 -34 38 return
          </CharString>
          <CharString index="48">
            rmoveto
            109 20 18 28 27 16 -15 -112 vhcurveto
            -49 vlineto
            -104 -17 -16 -27 -30 -17 21 94 vhcurveto
            return
          </CharString>
          <CharString index="49">
            -53 callsubr
            -19 59 -662 -59 -19 312 19 -58 326 199 -326 -59 -19 313 19 -59 662 59 19 -313 -19 59 -310 -199 310 58 19 vlineto
            return
          </CharString>
          <CharString index="50">
            151 334 rlineto
            66 16 -197 -16 101 hlineto
            return
          </CharString>
          <CharString index="51">
            -74 callsubr
            -656 -59 -22 return
          </CharString>
          <CharString index="52">
            hstemhm
            -40 callsubr
            return
          </CharString>
          <CharString index="53">
            rmoveto
            -100 callgsubr
            -193 hmoveto
            -100 callgsubr
            endchar
          </CharString>
          <CharString index="54">
            21 -64 callsubr
            return
          </CharString>
          <CharString index="55">
            41 59 -40 54 hhcurveto
            endchar
          </CharString>
          <CharString index="56">
            35 0 45 hstem
            0 625 vstem
            625 hmoveto
            -260 716 rlineto
            -82 hlineto
            -283 -716 rlineto
            239 529 rmoveto
            159 -484 rlineto
            -351 hlineto
            endchar
          </CharString>
          <CharString index="57">
            595 hmoveto
            18 -55 458 -232 -18 46 -306 vlineto
            return
          </CharString>
          <CharString index="58">
            -84 304 vlineto
            7 177 rlineto
            -15 hlineto
            -46 -9 -16 -29 -61 hhcurveto
            -160 hlineto
            38 20 rlineto
            163 86 47 37 75 vvcurveto
            76 -65 33 -95 vhcurveto
            endchar
          </CharString>
          <CharString index="59">
            rmoveto
            -378 -69 -19 278 19 -68 408 -71 vlineto
            -144 -19 2 -19 rlineto
            return
          </CharString>
          <CharString index="60">
            -290 235 174 hstem
            70 175 vstem
            70 321 rmoveto
            -76 callgsubr
            -56 -30 -39 -49 vhcurveto
            endchar
          </CharString>
          <CharString index="61">
            hmoveto
            35 hlineto
            320 700 rlineto
            -34 hlineto
            return
          </CharString>
          <CharString index="62">
            315 -250 185 return
          </CharString>
          <CharString index="63">
            hstemhm
            -39 callsubr
            return
          </CharString>
          <CharString index="64">
            344 448 rmoveto
            21 20 -10 -41 -20 hvcurveto
            -36 hlineto
            -71 -21 32 -42 67 hhcurveto
            54 30 38 57 76 -47 31 -59 -60 -56 -35 -71 -18 hvcurveto
            return
          </CharString>
          <CharString index="65">
            -44 callgsubr
            endchar
          </CharString>
          <CharString index="66">
            328 354 rmoveto
            54 14 -37 -71 hvcurveto
            -73 vlineto
            return
          </CharString>
          <CharString index="67">
            80 195 return
          </CharString>
          <CharString index="68">
            65 186 return
          </CharString>
          <CharString index="69">
            -17 2 rlineto
            -68 -9 -30 -44 -48 hhcurveto
            return
          </CharString>
          <CharString index="70">
            -84 -5 -17 -19 -18 hhcurveto
            return
          </CharString>
          <CharString index="71">
            -75 -27 -44 -49 return
          </CharString>
          <CharString index="72">
            0 -28 callgsubr
            return
          </CharString>
          <CharString index="73">
            vlineto
            76 8 44 54 vhcurveto
            endchar
          </CharString>
          <CharString index="74">
            -290 236 return
          </CharString>
          <CharString index="75">
            -6 26 29 -3 32 hhcurveto
            178 80 91 164 130 -55 77 -109 25 hvcurveto
            25 65 -22 8 -26 -69 rlineto
            return
          </CharString>
          <CharString index="76">
            -99 callsubr
            68 return
          </CharString>
          <CharString index="77">
            -49 27 -44 62 50 38 31 47 19 -3 13 -5 13 hvcurveto
            return
          </CharString>
          <CharString index="78">
            26 -24 callgsubr
            return
          </CharString>
          <CharString index="79">
            -390 21 -21 700 -20 hstem
            -82 355 vstem
            -82 -46 callsubr
            endchar
          </CharString>
          <CharString index="80">
            26 hhcurveto
            20 10 -16 -22 -5 hvcurveto
            -40 -30 rlineto
            -45 9 38 -28 48 hhcurveto
            60 41 42 63 62 -46 38 return
          </CharString>
          <CharString index="81">
            rmoveto
            -47 10 rlineto
            -45 10 -19 -28 -26 vvcurveto
            -18 8 -16 21 -19 vhcurveto
            134 -111 11 7 rlineto
            return
          </CharString>
          <CharString index="82">
            59 -49 19 335 19 308 19 return
          </CharString>
          <CharString index="83">
            rmoveto
            -43 -12 33 141 hvcurveto
            52 vlineto
            139 10 59 49 44 21 -49 -54 vhcurveto
            -218 vlineto
            return
          </CharString>
          <CharString index="84">
            hintmask 00000000
            15 237 rmoveto
            -145 80 -102 178 return
          </CharString>
          <CharString index="85">
            -7 202 rlineto
            -11 hlineto
            return
          </CharString>
          <CharString index="86">
            -59 -22 549 -8 callgsubr
            return
          </CharString>
          <CharString index="87">
            24 hlineto
            70 38 -39 -100 24 hvcurveto
            17 296 -15 hlineto
            -76 -17 -42 -55 -65 hhcurveto
            -34 return
          </CharString>
          <CharString index="88">
            27 hlineto
            76 24 -40 -113 hvcurveto
            -48 vlineto
            -116 -22 -58 -84 vhcurveto
            -21 hlineto
            endchar
          </CharString>
          <CharString index="89">
            rmoveto
            -37 19 -38 58 48 27 31 46 52 -33 22 -44 -48 -27 -34 -42 vhcurveto
            endchar
          </CharString>
          <CharString index="90">
            -74 143 114 21 189 return
          </CharString>
          <CharString index="91">
            476 rmoveto
            return
          </CharString>
          <CharString index="92">
            24 3 10 1 20 4 rrcurveto
            30 -14 17 -21 -64 vvcurveto
            -64 -8 -43 -52 vhcurveto
            return
          </CharString>
          <CharString index="93">
            18 420 48 -28 18 -44 callsubr
            return
          </CharString>
          <CharString index="94">
            -245 16 159 18 return
          </CharString>
          <CharString index="95">
            101 -98 -20 57 101 hstemhm
            return
          </CharString>
          <CharString index="96">
            104 0 53 51 47 1 -52 -100 -94 0 -60 -49 -50 0 54 95 vhcurveto
            return
          </CharString>
          <CharString index="97">
            195 20 30 callsubr
            return
          </CharString>
          <CharString index="98">
            174 hstemhm
            return
          </CharString>
          <CharString index="99">
            143 -440 -45 -18 287 18 -56 458 -329 160 return
          </CharString>
          <CharString index="100">
            hstemhm
            41 205 return
          </CharString>
          <CharString index="101">
            -18 -11 9 34 hvcurveto
            416 vlineto
            -177 -9 rlineto
            -311 vlineto
            return
          </CharString>
          <CharString index="102">
            rmoveto
            252 30 -252 hlineto
            endchar
          </CharString>
          <CharString index="103">
            5 callsubr
            hstem
            149 30 143 29 vstem
            179 return
          </CharString>
          <CharString index="104">
            453 21 hstemhm
            33 12 -12 88 return
          </CharString>
          <CharString index="105">
            22 0 23 655 22 return
          </CharString>
          <CharString index="106">
            rmoveto
            33 -454 -33 vlineto
            return
          </CharString>
          <CharString index="107">
            19 1 callgsubr
            return
          </CharString>
          <CharString index="108">
            -26 14 rlineto
            -42 -23 -26 -13 -33 -69 -103 53 -73 hhcurveto
            return
          </CharString>
          <CharString index="109">
            18 266 113 51 38 -28 18 -44 callsubr
            return
          </CharString>
          <CharString index="110">
            159 0 19 326 26 return
          </CharString>
          <CharString index="111">
            55 hvcurveto
            18 hlineto
            return
          </CharString>
          <CharString index="112">
            24 144 24 return
          </CharString>
          <CharString index="113">
            vvcurveto
            62 30 4 13 21 6 -15 -16 -3 vhcurveto
            return
          </CharString>
          <CharString index="114">
            hlineto
            22 140 rlineto
            -26 hlineto
            -21 -140 rlineto
            return
          </CharString>
          <CharString index="115">
            -213 -160 24 894 22 -13 -20 hstemhm
            return
          </CharString>
          <CharString index="116">
            -19 65 -452 vlineto
            return
          </CharString>
          <CharString index="117">
            38 24 21 17 36 67 105 -53 74 hhcurveto
            return
          </CharString>
          <CharString index="118">
            88 -79 114 57 120 -102 124 return
          </CharString>
          <CharString index="119">
            rmoveto
            -91 58 -73 113 98 75 65 107 return
          </CharString>
          <CharString index="120">
            -44 -10 18 12 -21 469 18 -5 -20 return
          </CharString>
          <CharString index="121">
            186 131 17 vstem
            return
          </CharString>
          <CharString index="122">
            -18 55 -35 callgsubr
            return
          </CharString>
          <CharString index="123">
            109 -69 109 hstemhm
            return
          </CharString>
          <CharString index="124">
            hstemhm
            6 1003 return
          </CharString>
          <CharString index="125">
            195 endchar
          </CharString>
          <CharString index="126">
            18 11 -10 -85 vhcurveto
            -325 -35 -18 return
          </CharString>
          <CharString index="127">
            -35 callsubr
            33 6 callgsubr
            return
          </CharString>
          <CharString index="128">
            -60 86 411 hstem
            39 452 vstem
            return
          </CharString>
          <CharString index="129">
            -51 -29 -28 -44 -26 hvcurveto
            26 -14 rlineto
            return
          </CharString>
          <CharString index="130">
            99 122 return
          </CharString>
          <CharString index="131">
            679 21 -11 -20 hstemhm
            54 102 return
          </CharString>
          <CharString index="132">
            215 hstem
            118 273 vstem
            return
          </CharString>
          <CharString index="133">
            hstem
            108 284 vstem
            108 return
          </CharString>
          <CharString index="134">
            -78 -23 57 128 hvcurveto
            52 vlineto
            return
          </CharString>
          <CharString index="135">
            59 -38 37 -108 vhcurveto
            endchar
          </CharString>
          <CharString index="136">
            hintmask 00000000
            hintmask 10100000
            return
          </CharString>
          <CharString index="137">
            197 hintmask 00000000
            return
          </CharString>
          <CharString index="138">
            2 10 4 11 hvcurveto
            return
          </CharString>
        <CharString name=".notdef">
          -390 endchar
        </CharString>
        <CharString name=".null">
          -590 endchar
        </CharString>
        <CharString name="A">
          -70 callgsubr
          -64 callgsubr
          hintmask 00000000
          hintmask 11101000
          432 19 rmoveto
          -71 -19 327 19 -46 hlineto
          -252 687 rlineto
          -82 hlineto
          hintmask 11110000
          -255 -687 rlineto
          -47 -19 153 19 -75 hlineto
          77 216 rlineto
          198 hlineto
          -95 284 rmoveto
          87 -262 rlineto
          -181 hlineto
          endchar
        </CharString>
        <CharString name="AE">
          -3 callgsubr
          27 callgsubr
          158 15 hintmask 00000000
          hintmask 01011011
          376 678 rmoveto
          76 hlineto
          hintmask 10011111
          -20 callgsubr
          hintmask 01101011
          -76 callsubr
          hintmask 01011011
          -315 -198 vlineto
          endchar
        </CharString>
        <CharString name="AEacute">
          -3 callgsubr
          33 172 27 callgsubr
          -79 211 26 15 -53 callgsubr
          hintmask 0101100101000000
          376 678 rmoveto
          76 hlineto
          hintmask 1001101101000000
          -20 callgsubr
          hintmask 0110100101000000
          -76 callsubr
          hintmask 0101100101000000
          -315 -198 vlineto
          hintmask 0000010010000000
          314 380 -106 callgsubr
          endchar
        </CharString>
        <CharString name="Aacute">
          -70 callgsubr
          47 172 -64 callgsubr
          -427 211 -105 callsubr
          hintmask 00010010
          91 486 -106 callgsubr
          endchar
        </CharString>
        <CharString name="Abreve">
          -70 callgsubr
          60 175 -64 callgsubr
          -481 284 -105 callsubr
          37 661 -87 callgsubr
          hintmask 00010010
          -42 callsubr
        </CharString>
        <CharString name="Acircumflex">
          -70 callgsubr
          47 174 -64 callgsubr
          -491 305 -105 callsubr
          hintmask 00010010
          27 486 -106 callsubr
        </CharString>
        <CharString name="Adieresis">
          -70 callgsubr
          60 148 -64 callgsubr
          -361 44 -105 callsubr
          201 564 -85 callsubr
          hintmask 00010010
          -101 callgsubr
        </CharString>
        <CharString name="Agrave">
          -70 callgsubr
          47 172 -64 callgsubr
          -455 211 -105 callsubr
          hintmask 00010010
          159 648 -92 callgsubr
        </CharString>
        <CharString name="Amacron">
          -70 callgsubr
          84 97 -64 callgsubr
          -475 272 -105 callsubr
          hintmask 00010010
          43 513 -42 callgsubr
        </CharString>
        <CharString name="Aogonek">
          104 9 callgsubr
          19 216 22 449 -20 hstem
          6 153 236 120 vstem
          432 19 rmoveto
          -71 -19 186 hlineto
          -42 -26 rlineto
          -92 -56 -18 -32 -99 callsubr
          65 17 45 45 37 hvcurveto
          111 19 -46 hlineto
          -252 687 rlineto
          -82 hlineto
          -255 -687 rlineto
          -47 -19 153 19 -75 hlineto
          77 216 rlineto
          198 hlineto
          -95 284 rmoveto
          87 -262 rlineto
          -181 hlineto
          endchar
        </CharString>
        <CharString name="Aring">
          -70 callgsubr
          40 5 callsubr
          -64 callgsubr
          -441 30 143 29 -53 callgsubr
          hintmask 1110001000000000
          432 19 rmoveto
          -71 -19 327 19 -46 hlineto
          -252 687 rlineto
          -82 hlineto
          hintmask 1110010000000000
          -255 -687 rlineto
          -47 -19 153 19 -75 hlineto
          77 216 rlineto
          198 hlineto
          -95 284 rmoveto
          87 -262 rlineto
          -181 hlineto
          hintmask 0001100110000000
          107 566 -98 callsubr
          endchar
        </CharString>
        <CharString name="Aringacute">
          104 0 19 216 22 439 16 144 24 hstem
          6 153 89 30 143 29 vstem
          248 785 rmoveto
          -43 17 -33 39 -14 vhcurveto
          -251 -676 rlineto
          -47 -19 153 19 -75 hlineto
          77 216 rlineto
          198 hlineto
          73 -216 rlineto
          -71 -19 327 19 -46 hlineto
          -249 677 rlineto
          37 14 20 34 43 vvcurveto
          54 -33 39 -66 -70 -33 -43 -52 vhcurveto
          16 -266 rmoveto
          87 -262 rlineto
          -181 hlineto
          107 639 -106 callgsubr
          -114 -273 rmoveto
          36 18 35 52 52 21 -34 -37 -39 -21 -34 -50 -56 -16 36 37 vhcurveto
          endchar
        </CharString>
        <CharString name="Atilde">
          -70 callgsubr
          66 101 -98 -20 57 101 -64 callgsubr
          -489 323 -53 callgsubr
          hintmask 1110000100000000
          432 19 rmoveto
          -71 -19 327 19 -46 hlineto
          -252 687 rlineto
          -82 hlineto
          hintmask 1110001000000000
          -255 -687 rlineto
          -47 -19 153 19 -75 hlineto
          77 216 rlineto
          198 hlineto
          -95 284 rmoveto
          87 -262 rlineto
          -181 hlineto
          -53 callgsubr
          250 495 -77 callsubr
          hintmask 0001000010000000
          -37 -58 40 -50 hhcurveto
          -64 -16 -50 -83 callgsubr
          hintmask 0000110010000000
          -52 callsubr
        </CharString>
        <CharString name="B">
          69 0 19 335 19 308 19 hstemhm
          86 195 119 198 -171 206 30 callgsubr
          -53 callsubr
          -19 65 -662 -65 -19 294 vlineto
          188 130 41 155 105 -74 53 -126 16 hvcurveto
          2 vlineto
          hintmask 11111000
          105 17 60 51 96 vvcurveto
          124 -102 40 -176 vhcurveto
          -39 -346 rmoveto
          23 hlineto
          hintmask 11110100
          97 26 -50 -82 hvcurveto
          -53 vlineto
          -92 -22 -58 -77 vhcurveto
          -47 hlineto
          662 vmoveto
          hintmask 11111000
          32 hlineto
          70 17 -37 -96 hvcurveto
          -47 vlineto
          -82 -21 -46 -72 vhcurveto
          -26 hlineto
          endchar
        </CharString>
        <CharString name="C">
          -45 callgsubr
          -11 callgsubr
          hintmask 00000000
          hintmask 10101000
          400 691 rmoveto
          86 60 -85 -123 4 callsubr
          hintmask 10011000
          -8 217 rlineto
          -11 hlineto
          hintmask 10101000
          -55 callgsubr
          -48 31 -104 hhcurveto
          -205 -140 -128 -242 -239 130 -112 212 hvcurveto
          110 55 31 34 hhcurveto
          hintmask 01101000
          16 4 -7 -13 7 hvcurveto
          11 hlineto
          7 223 rlineto
          -18 hlineto
          hintmask 10101000
          -130 -56 -65 -84 -81 hhcurveto
          -109 -53 119 184 hvcurveto
          79 vlineto
          207 54 92 101 vhcurveto
          endchar
        </CharString>
        <CharString name="CR">
          -390 endchar
        </CharString>
        <CharString name="Cacute">
          -45 callgsubr
          53 172 -11 callgsubr
          45 211 -105 callgsubr
          hintmask 00001010
          -110 52 -106 callgsubr
          endchar
        </CharString>
        <CharString name="Ccaron">
          -45 callgsubr
          65 174 -11 callgsubr
          -16 305 -105 callgsubr
          hintmask 00001010
          134 218 -100 callsubr
        </CharString>
        <CharString name="Ccedilla">
          100 -249 16 159 18 46 20 12 -21 690 20 -11 -20 -11 callgsubr
          30 63 70 106 -53 callgsubr
          hintmask 1110101010000000
          400 691 rmoveto
          86 60 -85 -123 4 callsubr
          hintmask 1110011010000000
          -8 217 rlineto
          -11 hlineto
          hintmask 1110101010000000
          -55 callgsubr
          -48 31 -104 hhcurveto
          -205 -140 -128 -242 -238 128 -111 209 -2 hvcurveto
          -35 -59 -84 callgsubr
          hvcurveto
          hintmask 1101101110000000
          -103 callsubr
          29 50 rlineto
          3 95 50 27 32 hhcurveto
          16 4 -7 -13 7 hvcurveto
          11 hlineto
          7 223 rlineto
          -18 hlineto
          hintmask 1110101010000000
          -130 -56 -65 -84 -81 hhcurveto
          -109 -53 119 184 hvcurveto
          79 vlineto
          207 54 92 101 vhcurveto
          endchar
        </CharString>
        <CharString name="Ccircumflex">
          -45 callgsubr
          53 174 -11 callgsubr
          -19 305 -105 callgsubr
          hintmask 00001010
          -174 52 -106 callsubr
        </CharString>
        <CharString name="Cdotaccent">
          -45 callgsubr
          73 -20 -11 callgsubr
          33 201 -105 callgsubr
          -122 155 -94 callsubr
          vhcurveto
          hintmask 00001010
          -36 callsubr
          hvcurveto
          endchar
        </CharString>
        <CharString name="D">
          165 -35 callsubr
          hstem
          87 195 226 206 vstem
          -69 callgsubr
          endchar
        </CharString>
        <CharString name="Dcaron">
          165 -35 callsubr
          45 -9 callsubr
          87 195 -99 305 20 206 hintmask 11010100
          -69 callgsubr
          hintmask 00101000
          168 890 -100 callsubr
        </CharString>
        <CharString name="Dcroat">
          -81 callsubr
        </CharString>
        <CharString name="Delta">
          -51 callsubr
        </CharString>
        <CharString name="E">
          -70 callsubr
          1 callgsubr
          158 15 vstem
          21 700 rmoveto
          -22 59 -656 -21 callsubr
          321 -20 callsubr
          309 35 hlineto
          121 47 -45 -131 4 callsubr
          -10 198 rlineto
          endchar
        </CharString>
        <CharString name="Eacute">
          -70 callsubr
          33 172 -55 callsubr
          -68 211 15 15 hintmask 11101010
          21 700 rmoveto
          -22 59 -656 -21 callsubr
          321 -20 callsubr
          309 35 hlineto
          121 47 -45 -131 4 callsubr
          -10 198 rlineto
          hintmask 00010100
          -334 43 -106 callgsubr
          endchar
        </CharString>
        <CharString name="Ebreve">
          -70 callsubr
          46 175 -55 callsubr
          -118 284 -8 15 hintmask 11101010
          21 700 rmoveto
          -22 59 -656 -21 callsubr
          321 -20 callsubr
          309 35 hlineto
          121 47 -45 -131 4 callsubr
          -10 198 rlineto
          -384 218 -87 callgsubr
          hintmask 00010100
          -42 callsubr
        </CharString>
        <CharString name="Ecaron">
          -70 callsubr
          45 174 -55 callsubr
          -129 305 -18 15 hintmask 11101010
          21 700 rmoveto
          -22 59 -656 -21 callsubr
          321 -20 callsubr
          309 35 hlineto
          121 47 -45 -131 4 callsubr
          -10 198 rlineto
          hintmask 00010100
          -90 209 -100 callsubr
        </CharString>
        <CharString name="Ecircumflex">
          -70 callsubr
          33 174 -55 callsubr
          -132 305 -15 15 hintmask 11101010
          21 700 rmoveto
          -22 59 -656 -21 callsubr
          321 -20 callsubr
          309 35 hlineto
          121 47 -45 -131 4 callsubr
          -10 198 rlineto
          hintmask 00010100
          -398 43 -106 callsubr
        </CharString>
        <CharString name="Edieresis">
          -70 callsubr
          46 148 -55 callsubr
          -2 44 116 15 hintmask 11101010
          21 700 rmoveto
          -22 59 -656 -21 callsubr
          321 -20 callsubr
          309 35 hlineto
          121 47 -45 -131 4 callsubr
          -10 198 rlineto
          -224 121 -85 callsubr
          hintmask 00010100
          -101 callgsubr
        </CharString>
        <CharString name="Edotaccent">
          -70 callsubr
          53 -20 -55 callsubr
          -75 201 32 15 hintmask 11101010
          21 700 rmoveto
          -22 59 -656 -21 callsubr
          321 -20 callsubr
          309 35 hlineto
          121 47 -45 -131 4 callsubr
          -10 198 rlineto
          -341 146 -94 callsubr
          vhcurveto
          hintmask 00010100
          -36 callsubr
          hvcurveto
          endchar
        </CharString>
        <CharString name="Egrave">
          -70 callsubr
          33 172 -55 callsubr
          -96 211 43 15 hintmask 11101010
          21 700 rmoveto
          -22 59 -656 -21 callsubr
          321 -20 callsubr
          309 35 hlineto
          121 47 -45 -131 4 callsubr
          -10 198 rlineto
          hintmask 00010100
          -266 205 -92 callgsubr
        </CharString>
        <CharString name="Emacron">
          -70 callsubr
          70 97 -55 callsubr
          -116 272 2 15 hintmask 11101010
          21 700 rmoveto
          -22 59 -656 -21 callsubr
          321 -20 callsubr
          309 35 hlineto
          121 47 -45 -131 4 callsubr
          -10 198 rlineto
          hintmask 00010100
          -382 70 -42 callgsubr
        </CharString>
        <CharString name="Eng">
          80 -217 18 61 131 7 -28 callgsubr
          hstemhm
          80 27 118 123 215 27 hintmask 00000000
          hintmask 10111010
          590 681 rmoveto
          55 19 -137 -19 55 -483 hlineto
          -262 502 rlineto
          -276 -19 55 -662 -55 -19 137 19 -55 628 hlineto
          333 -628 rlineto
          -50 vlineto
          -140 -10 -28 -42 vhcurveto
          hintmask 11011110
          -28 -26 26 35 23 hvcurveto
          29 hlineto
          6 21 3 23 13 vvcurveto
          39 -26 35 -54 -54 -36 -35 -57 -75 64 -43 107 128 66 74 184 vhcurveto
          endchar
        </CharString>
        <CharString name="Eogonek">
          34 9 callgsubr
          22 321 26 309 22 -55 callsubr
          43 120 -5 15 hintmask 00000000
          hintmask 11111010
          -56 callsubr
          449 vlineto
          -42 -26 rlineto
          hintmask 11111100
          -92 -56 -18 -32 -99 callsubr
          65 17 45 46 37 hvcurveto
          69 hlineto
          -94 callgsubr
          321 24 hlineto
          hintmask 11111010
          70 38 -39 -100 24 hvcurveto
          17 296 -15 hlineto
          -76 -17 -42 -55 -65 hhcurveto
          -34 309 35 hlineto
          121 47 -45 -131 4 callsubr
          -10 198 rlineto
          endchar
        </CharString>
        <CharString name="Eth">
          -81 callsubr
        </CharString>
        <CharString name="Euro">
          22 -10 20 82 115 84 28 80 28 67 109 88 20 hstemhm
          77 205 147 156 -122 117 -53 callgsubr
          hintmask 1011111010000000
          387 691 rmoveto
          47 42 -36 -52 -16 hvcurveto
          -29 hlineto
          -4 -12 -3 -11 -17 vvcurveto
          -41 34 -28 44 54 24 39 43 74 -73 61 -129 -157 -113 -94 -190 -26 vhcurveto
          -51 hlineto
          -6 -28 rlineto
          54 hlineto
          -1 -19 -1 -20 -20 vvcurveto
          -21 -60 vlineto
          -6 -28 rlineto
          68 hlineto
          -208 15 117 -93 175 hhcurveto
          hintmask 1111111100000000
          123 76 61 74 43 -24 39 -54 -44 -34 -28 -41 -17 3 -17 4 -12 hvcurveto
          30 hlineto
          4 -9 1 -9 -7 vvcurveto
          -33 -26 -24 -54 -90 -18 77 204 -1 vhcurveto
          174 hlineto
          6 28 rlineto
          -180 -40 callsubr
          hlineto
          6 28 rlineto
          -201 hlineto
          hintmask 1011111010000000
          216 3 18 48 84 hhcurveto
          endchar
        </CharString>
        <CharString name="F">
          2 0 22 305 26 131 -20 214 22 1 callgsubr
          169 15 vstem
          -56 callsubr
          378 22 -124 305 45 vlineto
          65 35 -38 -101 22 hvcurveto
          17 296 -15 hlineto
          -80 -16 -43 -51 -65 hhcurveto
          -45 325 28 hlineto
          128 53 -42 -144 49 hvcurveto
          18 hlineto
          -10 208 rlineto
          endchar
        </CharString>
        <CharString name="G">
          133 -10 -49 callgsubr
          -11 callgsubr
          221 185 hintmask 00000000
          hintmask 10110110
          390 10 rmoveto
          -92 -53 100 203 hvcurveto
          79 vlineto
          207 54 92 99 88 65 -96 -112 56 vhcurveto
          18 hlineto
          hintmask 10101110
          -8 217 rlineto
          -11 hlineto
          hintmask 10110110
          -55 callgsubr
          -54 31 -104 hhcurveto
          -205 -140 -128 -242 -239 130 -112 212 hvcurveto
          87 75 36 40 hhcurveto
          hintmask 01110110
          28 11 -8 -17 12 hvcurveto
          15 282 39 22 -288 -22 64 hlineto
          hintmask 10110110
          -194 vlineto
          -51 -6 -28 -70 vhcurveto
          endchar
        </CharString>
        <CharString name="Gbreve">
          133 -10 -49 callgsubr
          66 175 -11 callgsubr
          -8 284 -55 -101 callsubr
          -153 908 -87 callgsubr
          hintmask 0000010100000000
          -42 callsubr
        </CharString>
        <CharString name="Gcircumflex">
          133 -10 -49 callgsubr
          53 174 -11 callgsubr
          -18 305 -66 -101 callsubr
          hintmask 0000010100000000
          -163 733 -106 callsubr
        </CharString>
        <CharString name="Gcommaaccent">
          133 -33 callsubr
          44 -49 callgsubr
          -11 callgsubr
          158 50 13 185 -53 callgsubr
          hintmask 0101101010000000
          390 10 rmoveto
          -92 -53 100 203 hvcurveto
          79 vlineto
          207 54 92 99 88 65 -96 -112 56 vhcurveto
          18 hlineto
          hintmask 0101011010000000
          -8 217 rlineto
          -11 hlineto
          hintmask 0101101010000000
          -55 callgsubr
          -54 31 -104 hhcurveto
          -205 -140 -128 -242 -239 130 -112 212 hvcurveto
          87 75 36 40 hhcurveto
          hintmask 0011101010000000
          28 11 -8 -17 12 hvcurveto
          15 282 39 22 -288 -22 64 hlineto
          hintmask 0101101010000000
          -194 vlineto
          -51 -6 -28 -70 vhcurveto
          hintmask 1000000100000000
          -39 -300 -107 callsubr
        </CharString>
        <CharString name="Gdotaccent">
          133 -10 -49 callgsubr
          73 -20 -11 callgsubr
          34 201 -14 -101 callsubr
          -111 836 -94 callsubr
          vhcurveto
          hintmask 0000010100000000
          -36 callsubr
          hvcurveto
          endchar
        </CharString>
        <CharString name="H">
          3 callsubr
          310 0 callsubr
          199 195 vstem
          -58 callsubr
          endchar
        </CharString>
        <CharString name="Hbar">
          3 callsubr
          137 26 147 0 callsubr
          199 195 vstem
          -53 callsubr
          -19 59 -147 -69 -26 69 -489 -59 -19 312 19 -58 326 199 -326 -59 -19 313 19 -59 489 69 26 -69 147 59 19 -313 -19 59 -147 -199 147 58 19 vlineto
          -58 -329 rmoveto
          137 199 -137 vlineto
          endchar
        </CharString>
        <CharString name="Hcircumflex">
          3 callsubr
          310 19 33 174 -55 callsubr
          -53 305 -53 195 hintmask 11101010
          -58 callsubr
          hintmask 00010100
          -111 43 -106 callsubr
        </CharString>
        <CharString name="I">
          -31 callgsubr
          hstem
          80 195 vstem
          -93 callgsubr
          endchar
        </CharString>
        <CharString name="IJ">
          272 -9 18 -9 19 51 131 480 19 -55 callsubr
          96 172 53 195 hintmask 01011000
          -93 callgsubr
          hintmask 10110110
          191 hmoveto
          -84 callsubr
          endchar
        </CharString>
        <CharString name="Iacute">
          8 callgsubr
          80 195 -186 211 hintmask 11010000
          -93 callgsubr
          hintmask 00101000
          -241 43 -106 callgsubr
          endchar
        </CharString>
        <CharString name="Ibreve">
          -31 callgsubr
          46 175 hstemhm
          35 284 -239 195 hintmask 11001000
          -93 callgsubr
          -295 218 -87 callgsubr
          hintmask 00110000
          -42 callsubr
        </CharString>
        <CharString name="Icircumflex">
          -31 callgsubr
          33 -9 callsubr
          25 305 -250 195 hintmask 11001000
          -93 callgsubr
          hintmask 00110000
          -305 43 -106 callsubr
        </CharString>
        <CharString name="Idieresis">
          -31 callgsubr
          46 148 -55 callsubr
          -120 44 hintmask 11010000
          -93 callgsubr
          -131 121 -85 callsubr
          hintmask 00101000
          -101 callgsubr
        </CharString>
        <CharString name="Idotaccent">
          -31 callgsubr
          53 -20 hstemhm
          77 201 -198 195 hintmask 11001000
          -93 callgsubr
          -253 146 -94 callsubr
          vhcurveto
          hintmask 00110000
          -36 callsubr
          hvcurveto
          endchar
        </CharString>
        <CharString name="Igrave">
          8 callgsubr
          61 211 -192 195 hintmask 11001000
          -93 callgsubr
          hintmask 00110000
          -173 205 -92 callgsubr
        </CharString>
        <CharString name="Imacron">
          -31 callgsubr
          70 97 hstemhm
          41 272 -233 195 hintmask 11001000
          -93 callgsubr
          hintmask 00110000
          -289 70 -42 callgsubr
        </CharString>
        <CharString name="Iogonek">
          -235 9 callgsubr
          -28 callgsubr
          hstemhm
          45 120 -85 195 hintmask 00000000
          hintmask 11101000
          25 -64 callsubr
          -19 55 -662 -55 -19 172 vlineto
          -42 -26 rlineto
          hintmask 11110000
          -92 -56 -18 -32 -99 callsubr
          65 17 45 45 37 hvcurveto
          hintmask 11101000
          103 19 -55 662 55 19 hlineto
          endchar
        </CharString>
        <CharString name="Itilde">
          -31 callgsubr
          52 -12 callsubr
          27 323 -270 195 hintmask 11000010
          -93 callgsubr
          hintmask 00000000
          -82 52 -77 callsubr
          hintmask 00100100
          -37 -58 40 -50 hhcurveto
          -64 -16 -50 -83 callgsubr
          hintmask 00011100
          -52 callsubr
        </CharString>
        <CharString name="J">
          -73 -9 18 61 131 480 19 hstem
          26 172 53 195 vstem
          176 -64 callsubr
          -84 callsubr
          endchar
        </CharString>
        <CharString name="Jcircumflex">
          -83 -9 18 61 131 480 19 33 -9 callsubr
          16 172 -15 305 -237 195 hintmask 11101010
          166 -64 callsubr
          -84 callsubr
          hintmask 00010100
          -318 43 -106 callsubr
        </CharString>
        <CharString name="K">
          144 0 19 318 29 315 0 callsubr
          211 175 vstem
          -72 callsubr
          endchar
        </CharString>
        <CharString name="Kcommaaccent">
          144 -33 callsubr
          54 19 318 29 315 19 -55 callsubr
          92 50 69 175 hintmask 01111010
          -72 callsubr
          hintmask 10000100
          -15 -990 -107 callsubr
        </CharString>
        <CharString name="L">
          6 0 22 656 22 1 callgsubr
          vstem
          -56 callsubr
          530 vlineto
          19 234 rlineto
          -21 hlineto
          -122 -59 -55 -90 -124 hhcurveto
          -36 656 106 22 hlineto
          endchar
        </CharString>
        <CharString name="Lacute">
          6 0 22 656 22 33 172 -55 callsubr
          -183 211 hintmask 11010000
          -56 callsubr
          530 vlineto
          19 234 rlineto
          -21 hlineto
          -122 -59 -55 -90 -124 hhcurveto
          -36 656 106 22 hlineto
          hintmask 00101000
          -289 43 -106 callgsubr
          endchar
        </CharString>
        <CharString name="Lcaron">
          6 0 22 643 -20 33 22 16 -20 -55 callsubr
          179 94 hintmask 10101000
          -56 callsubr
          530 vlineto
          19 234 rlineto
          -21 hlineto
          -122 -59 -55 -90 -124 hhcurveto
          -36 656 106 22 hlineto
          hintmask 01010100
          43 -223 -89 callgsubr
        </CharString>
        <CharString name="Lcommaaccent">
          6 -33 callsubr
          54 22 656 22 -55 callsubr
          53 50 hintmask 01110000
          -56 callsubr
          530 vlineto
          19 234 rlineto
          -21 hlineto
          -122 -59 -55 -90 -124 hhcurveto
          -36 656 106 22 hlineto
          hintmask 10001000
          -105 -990 -107 callsubr
        </CharString>
        <CharString name="Ldot">
          6 0 22 293 -20 383 22 -55 callsubr
          86 201 hintmask 10110000
          -56 callsubr
          530 vlineto
          19 234 rlineto
          -21 hlineto
          -122 -59 -55 -90 -124 hhcurveto
          -36 656 106 22 hlineto
          hintmask 01001000
          -20 -292 -19 callgsubr
        </CharString>
        <CharString name="Lslash">
          6 0 22 656 22 1 callgsubr
          vstem
          -74 callsubr
          -361 vlineto
          -74 -40 12 -23 62 34 rlineto
          -266 -59 -22 530 vlineto
          19 234 rlineto
          -21 hlineto
          -122 -59 -55 -90 -124 hhcurveto
          -36 355 hlineto
          169 95 -13 22 -156 -87 rlineto
          271 106 22 vlineto
          endchar
        </CharString>
        <CharString name="M">
          250 0 19 625 56 -53 53 -19 19 hstemhm
          80 26 459 195 hintmask 00000000
          hintmask 10011100
          548 -64 callsubr
          -120 -515 -133 515 rlineto
          -270 -19 55 -662 -55 -19 136 19 -55 hlineto
          hintmask 10101100
          628 4 vlineto
          176 -647 rlineto
          125 hlineto
          hintmask 11001100
          150 644 rlineto
          4 -625 -55 -19 305 19 -55 hlineto
          hintmask 10011100
          662 55 19 vlineto
          endchar
        </CharString>
        <CharString name="N">
          80 -35 callsubr
          hstem
          80 27 456 27 vstem
          -96 callsubr
          endchar
        </CharString>
        <CharString name="Nacute">
          80 20 callsubr
          80 27 160 211 85 27 hintmask 11010100
          -96 callsubr
          hintmask 00101000
          -323 743 -106 callgsubr
          endchar
        </CharString>
        <CharString name="Ncaron">
          80 -35 callsubr
          45 -9 callsubr
          80 27 87 305 64 27 hintmask 11010100
          -96 callsubr
          hintmask 00101000
          -91 909 -100 callsubr
        </CharString>
        <CharString name="Ncommaaccent">
          80 -33 callsubr
          54 -28 callgsubr
          hstemhm
          80 27 255 50 151 27 hintmask 01110100
          -96 callsubr
          hintmask 10001000
          -280 -290 -107 callsubr
        </CharString>
        <CharString name="Ntilde">
          80 -35 callsubr
          52 -12 callsubr
          80 27 85 323 48 27 hintmask 11000101
          -96 callsubr
          hintmask 00000000
          -177 752 -77 callsubr
          hintmask 00100010
          -37 -58 40 -50 hhcurveto
          -64 -16 -50 -83 callgsubr
          hintmask 00011010
          -52 callsubr
        </CharString>
        <CharString name="O">
          -65 callgsubr
          hstem
          41 205 255 206 vstem
          -107 callgsubr
          endchar
        </CharString>
        <CharString name="OE">
          455 -10 21 -11 22 321 26 309 22 -10 21 -7 callsubr
          255 195 158 15 hintmask 00000000
          hintmask 01110111
          564 -64 callsubr
          hintmask 10101111
          -72 vlineto
          55 -47 -58 28 -86 hhcurveto
          -208 -124 -142 -230 -220 114 -129 202 88 70 33 50 48 hvcurveto
          hintmask 01110111
          -73 428 -8 callgsubr
          321 -20 callsubr
          309 35 hlineto
          121 47 -45 -131 4 callsubr
          -10 198 rlineto
          -461 -391 rmoveto
          hintmask 10101111
          -201 -14 -97 -112 -117 -12 108 188 vhcurveto
          72 vlineto
          205 8 106 121 120 6 -102 -205 vhcurveto
          endchar
        </CharString>
        <CharString name="Oacute">
          -65 callgsubr
          22 172 -7 callsubr
          42 211 2 206 hintmask 11010100
          -107 callgsubr
          hintmask 00101000
          247 404 -106 callgsubr
          endchar
        </CharString>
        <CharString name="Obreve">
          -65 callgsubr
          35 175 -7 callsubr
          -12 284 -17 206 hintmask 11010100
          -107 callgsubr
          193 579 -87 callgsubr
          hintmask 00101000
          -42 callsubr
        </CharString>
        <CharString name="Ocircumflex">
          -65 callgsubr
          22 174 -7 callsubr
          -22 305 -28 206 hintmask 11010100
          -107 callgsubr
          hintmask 00101000
          183 404 -106 callsubr
        </CharString>
        <CharString name="Odieresis">
          -65 callgsubr
          35 148 -7 callsubr
          108 44 103 206 hintmask 11010100
          -107 callgsubr
          357 482 -85 callsubr
          hintmask 00101000
          -101 callgsubr
        </CharString>
        <CharString name="Ograve">
          -65 callgsubr
          22 172 -7 callsubr
          14 211 30 206 hintmask 11010100
          -107 callgsubr
          hintmask 00101000
          315 566 -92 callgsubr
        </CharString>
        <CharString name="Ohungarumlaut">
          -65 callgsubr
          23 196 -7 callsubr
          19 327 -91 206 hintmask 11010100
          -107 callgsubr
          hintmask 00101000
          365 403 -81 callgsubr
        </CharString>
        <CharString name="Omacron">
          -65 callgsubr
          59 97 -7 callsubr
          -6 272 -11 206 hintmask 11010100
          -107 callgsubr
          hintmask 00101000
          199 431 -42 callgsubr
        </CharString>
        <CharString name="Omega">
          -90 callsubr
        </CharString>
        <CharString name="Oslash">
          -92 callsubr
          endchar
        </CharString>
        <CharString name="Oslashacute">
          -92 callsubr
          77 436 -106 callgsubr
          endchar
        </CharString>
        <CharString name="Otilde">
          -65 callgsubr
          41 -12 callsubr
          41 205 -20 323 -48 206 hintmask 11000101
          -107 callgsubr
          hintmask 00000000
          406 413 -77 callsubr
          hintmask 00100010
          -37 -58 40 -50 hhcurveto
          -64 -16 -50 -83 callgsubr
          hintmask 00011010
          -52 callsubr
        </CharString>
        <CharString name="P">
          44 0 19 268 19 375 0 callsubr
          127 206 vstem
          15 -64 callsubr
          -19 65 -662 -65 -19 385 19 -125 268 8 vlineto
          -7 callgsubr
          -19 rmoveto
          -19 callsubr
        </CharString>
        <CharString name="Q">
          158 -235 58 143 45 -15 15 -12 12 679 21 -7 callsubr
          255 206 -55 22 hintmask 00000000
          hintmask 10011110
          41 339 rmoveto
          hintmask 10101110
          -199 93 -125 183 -19 vhcurveto
          -6 vlineto
          hintmask 11001101
          -35 -6 -37 -24 -19 -19 14 -16 rcurveline
          26 29 28 15 17 hhcurveto
          18 9 -7 -58 18 hvcurveto
          -79 24 39 -57 109 hhcurveto
          82 58 46 90 3 hvcurveto
          -22 2 rlineto
          -56 -5 -14 -24 -26 hhcurveto
          -32 -9 22 49 -17 hvcurveto
          hintmask 10011110
          -16 49 -28 40 -82 9 rrcurveto
          7 vlineto
          196 18 88 128 207 vvcurveto
          227 -109 132 -215 -223 -119 -142 -230 vhcurveto
          11 callgsubr
          -117 -12 108 188 vhcurveto
          72 vlineto
          205 8 106 121 120 6 -102 -205 vhcurveto
          endchar
        </CharString>
        <CharString name="R">
          126 -10 -25 callsubr
          -55 callsubr
          121 205 -182 207 hintmask 00000000
          hintmask 01111100
          -41 callsubr
          hintmask 10111100
          -86 callgsubr
          hintmask 01111010
          -91 callgsubr
          endchar
        </CharString>
        <CharString name="Racute">
          126 -10 -25 callsubr
          33 172 -55 callsubr
          -41 211 -49 -88 callsubr
          -41 370 -106 callgsubr
          endchar
        </CharString>
        <CharString name="Rcaron">
          126 -10 -25 callsubr
          45 174 -55 callsubr
          -102 305 -82 -88 callsubr
          203 536 -100 callsubr
        </CharString>
        <CharString name="Rcommaaccent">
          126 -33 callsubr
          44 -25 callsubr
          -55 callsubr
          98 50 -27 205 -182 207 -53 callgsubr
          hintmask 0011110100000000
          -41 callsubr
          hintmask 0101110100000000
          -86 callgsubr
          hintmask 0011110010000000
          -91 callgsubr
          hintmask 1000001000000000
          46 -663 -107 callsubr
        </CharString>
        <CharString name="S">
          10 -10 21 24 callsubr
          296 107 hintmask 00000000
          hintmask 11011000
          -103 callgsubr
          hintmask 10111000
          -22 callsubr
          hintmask 11011000
          -96 callgsubr
          endchar
        </CharString>
        <CharString name="Sacute">
          -17 callgsubr
          53 6 callgsubr
          54 102 47 211 38 107 hintmask 00000000
          hintmask 11001010
          -103 callgsubr
          hintmask 10101010
          -22 callsubr
          hintmask 11001010
          -96 callgsubr
          hintmask 00010100
          -122 732 -106 callgsubr
          endchar
        </CharString>
        <CharString name="Scaron">
          -17 callgsubr
          65 -9 callsubr
          54 102 -4 305 -5 107 hintmask 00000000
          hintmask 11001010
          -103 callgsubr
          hintmask 10101010
          -22 callsubr
          hintmask 11001010
          -96 callgsubr
          hintmask 00010100
          132 898 -100 callsubr
        </CharString>
        <CharString name="Scedilla">
          10 -249 16 159 18 46 21 -19 19 24 callsubr
          15 63 70 106 42 107 -53 callgsubr
          hintmask 1110101011000000
          325 11 rmoveto
          -110 -97 117 100 -50 hvcurveto
          -17 hlineto
          10 -238 rlineto
          14 hlineto
          hintmask 1101101011000000
          19 8 6 11 16 hhcurveto
          24 66 -22 -6 80 hvcurveto
          -36 -61 -84 callgsubr
          hvcurveto
          hintmask 1110101111000000
          -103 callsubr
          29 49 rlineto
          13 hlineto
          147 98 95 144 166 -123 38 -111 30 hvcurveto
          hintmask 1110101011000000
          -101 27 -68 25 74 vvcurveto
          59 50 42 72 103 68 -100 -92 51 vhcurveto
          16 hlineto
          hintmask 1110011011000000
          -22 callsubr
          hintmask 1110101011000000
          -96 callgsubr
          endchar
        </CharString>
        <CharString name="Scircumflex">
          -17 callgsubr
          53 -9 callsubr
          54 102 -17 305 8 107 hintmask 00000000
          hintmask 11001010
          -103 callgsubr
          hintmask 10101010
          -22 callsubr
          hintmask 11001010
          -96 callgsubr
          hintmask 00010100
          -186 732 -106 callsubr
        </CharString>
        <CharString name="Scommaaccent">
          10 -33 callsubr
          44 21 24 callsubr
          164 50 82 107 hintmask 00000000
          hintmask 01101010
          -103 callgsubr
          hintmask 01011010
          -22 callsubr
          hintmask 01101010
          -96 callgsubr
          hintmask 10000100
          -57 -301 -107 callsubr
        </CharString>
        <CharString name="T">
          93 0 21 658 21 hstem
          244 195 vstem
          -80 callsubr
          endchar
        </CharString>
        <CharString name="Tbar">
          93 0 21 320 26 312 21 hstem
          244 195 vstem
          636 -64 callsubr
          -590 hlineto
          -10 -251 rlineto
          19 hlineto
          155 51 34 75 91 hhcurveto
          13 -312 -144 -26 144 -320 -85 -21 365 21 -85 320 144 26 -144 312 12 hlineto
          91 31 -67 -163 54 hvcurveto
          19 hlineto
          endchar
        </CharString>
        <CharString name="Tcaron">
          93 0 21 658 21 45 -9 callsubr
          192 305 -253 195 hintmask 11001000
          -80 callsubr
          hintmask 00110000
          -149 460 -100 callsubr
        </CharString>
        <CharString name="Thorn">
          44 0 19 134 19 375 19 115 0 callsubr
          127 206 vstem
          275 681 rmoveto
          125 19 -385 -19 65 -662 -65 -19 385 19 -125 134 8 hlineto
          -7 callgsubr
          hlineto
          -19 vmoveto
          -19 callsubr
        </CharString>
        <CharString name="U">
          -16 callgsubr
          hstemhm
          271 -48 callgsubr
          hintmask 11000000
          -73 callsubr
          hintmask 10100000
          9 callsubr
          hintmask 11000000
          -1 callgsubr
          endchar
        </CharString>
        <CharString name="Uacute">
          24 callgsubr
          271 315 -304 211 -157 185 29 callsubr
          420 23 rmoveto
          101 65 63 143 hvcurveto
          452 vlineto
          hintmask 10001000
          -65 19 146 -19 -55 -445 hlineto
          -154 -51 -92 -205 -163 -117 58 199 vhcurveto
          434 -55 19 315 -19 vlineto
          hintmask 10100000
          -69 callsubr
          hintmask 01010000
          -138 720 -106 callgsubr
          endchar
        </CharString>
        <CharString name="Ubreve">
          -16 callgsubr
          46 175 hstemhm
          253 284 -266 -48 callgsubr
          hintmask 10010000
          -73 callsubr
          hintmask 10001000
          9 callsubr
          hintmask 10010000
          -1 callgsubr
          -167 895 -87 callgsubr
          hintmask 01100000
          -42 callsubr
        </CharString>
        <CharString name="Ucircumflex">
          -16 callgsubr
          33 -9 callsubr
          218 305 -252 -99 callgsubr
          -202 720 -106 callsubr
        </CharString>
        <CharString name="Udieresis">
          -16 callgsubr
          46 23 callgsubr
          271 -45 callsubr
          -173 44 hintmask 00000000
          420 23 rmoveto
          -123 -26 80 110 hvcurveto
          hintmask 10100000
          -73 callsubr
          hintmask 10010000
          9 callsubr
          hintmask 10100000
          -1 callgsubr
          -28 798 -85 callsubr
          hintmask 01001000
          -101 callgsubr
        </CharString>
        <CharString name="Ugrave">
          24 callgsubr
          254 211 -194 -99 callgsubr
          -70 882 -92 callgsubr
        </CharString>
        <CharString name="Uhungarumlaut">
          -16 callgsubr
          34 196 hstemhm
          259 327 -315 -99 callgsubr
          -20 719 -81 callgsubr
        </CharString>
        <CharString name="Umacron">
          -16 callgsubr
          70 97 hstemhm
          234 272 -235 -99 callgsubr
          -186 747 -42 callgsubr
        </CharString>
        <CharString name="Uogonek">
          93 -251 951 hstemhm
          271 -48 callgsubr
          hintmask 11000000
          468 65 19 -315 -19 55 -434 vlineto
          -199 117 -58 163 37 31 4 5 28 vhcurveto
          -41 -26 rlineto
          -91 -58 -13 -29 -32 callgsubr
          60 55 31 hvcurveto
          83 47 27 66 111 vvcurveto
          445 55 19 -146 vlineto
          hintmask 10100000
          9 callsubr
          hintmask 11000000
          -1 callgsubr
          endchar
        </CharString>
        <CharString name="Uring">
          -16 callgsubr
          39 5 callsubr
          hstemhm
          271 315 -285 30 5 185 -47 29 4 callgsubr
          420 23 rmoveto
          101 65 63 143 hvcurveto
          452 vlineto
          hintmask 10000100
          -65 19 146 -19 -55 -445 hlineto
          -154 -51 -92 -205 -163 -117 58 199 vhcurveto
          434 -55 19 315 -19 vlineto
          hintmask 10010000
          -69 callsubr
          hintmask 01101010
          -89 813 -98 callsubr
          endchar
        </CharString>
        <CharString name="Utilde">
          -16 callgsubr
          52 -12 callsubr
          220 323 -272 -45 callsubr
          hintmask 00000000
          hintmask 10000100
          420 23 rmoveto
          101 65 63 143 hvcurveto
          452 vlineto
          hintmask 10000010
          -65 19 146 -19 -55 -445 hlineto
          -154 -51 -92 -205 -163 -117 58 199 vhcurveto
          434 -55 19 315 -19 vlineto
          hintmask 10000100
          -69 callsubr
          hintmask 00000000
          21 729 -77 callsubr
          hintmask 01001000
          -37 -58 40 -50 hhcurveto
          -64 -16 -50 -83 callgsubr
          hintmask 00111000
          -52 callsubr
        </CharString>
        <CharString name="V">
          95 11 -21 691 19 hstemhm
          6 673 -153 153 hintmask 00000000
          hintmask 11100000
          430 181 rmoveto
          -168 500 rlineto
          71 19 -327 -19 46 hlineto
          255 -691 rlineto
          84 hlineto
          hintmask 11010000
          241 691 rlineto
          47 19 -153 -19 78 hlineto
          endchar
        </CharString>
        <CharString name="W">
          -22 callgsubr
          17 callsubr
          -200 200 hintmask 00000000
          hintmask 11100000
          424 202 rmoveto
          -163 479 rlineto
          70 19 -325 -19 47 hlineto
          252 -691 rlineto
          87 hlineto
          130 452 148 -452 rlineto
          89 hlineto
          hintmask 11010000
          184 691 rlineto
          66 19 -200 -19 101 hlineto
          -120 -473 -149 473 rlineto
          59 19 -310 -19 57 hlineto
          60 -191 rlineto
          endchar
        </CharString>
        <CharString name="Wacute">
          -22 callgsubr
          33 172 17 callsubr
          -553 211 142 -102 callsubr
          hintmask 00101000
          -51 253 -106 callgsubr
          endchar
        </CharString>
        <CharString name="Wcircumflex">
          -22 callgsubr
          33 174 17 callsubr
          -617 305 112 -102 callsubr
          hintmask 00101000
          -115 253 -106 callsubr
        </CharString>
        <CharString name="Wdieresis">
          -22 callgsubr
          46 148 17 callsubr
          -487 44 243 -102 callsubr
          59 331 -85 callsubr
          hintmask 00101000
          -101 callgsubr
        </CharString>
        <CharString name="Wgrave">
          -22 callgsubr
          33 172 17 callsubr
          -581 211 170 -102 callsubr
          hintmask 00101000
          17 415 -92 callgsubr
        </CharString>
        <CharString name="X">
          121 0 19 661 20 hstem
          15 207 223 205 vstem
          700 hmoveto
          19 -58 vlineto
          -227 391 169 270 rlineto
          66 20 -205 -20 104 hlineto
          -151 -242 -135 242 rlineto
          68 20 -337 -20 54 hlineto
          209 -367 -175 -294 rlineto
          -67 -19 207 19 -106 hlineto
          159 264 149 -264 rlineto
          -66 -19 hlineto
          endchar
        </CharString>
        <CharString name="Y">
          -13 callgsubr
          hstemhm
          223 -10 callsubr
          hintmask 11100000
          -89 callsubr
          hintmask 11110000
          -57 callsubr
          endchar
        </CharString>
        <CharString name="Yacute">
          -13 callgsubr
          33 6 callgsubr
          223 195 -157 211 -34 30 callsubr
          hintmask 11010000
          -89 callsubr
          hintmask 11010100
          -57 callsubr
          hintmask 00101000
          -278 59 -106 callgsubr
          endchar
        </CharString>
        <CharString name="Ycircumflex">
          -13 callgsubr
          33 -9 callsubr
          190 305 -272 -10 callsubr
          hintmask 11001000
          -89 callsubr
          hintmask 11001100
          -57 callsubr
          hintmask 00110000
          -349 59 -106 callsubr
        </CharString>
        <CharString name="Ydieresis">
          -13 callgsubr
          46 23 callgsubr
          223 195 -108 44 84 30 callsubr
          hintmask 11010000
          -89 callsubr
          hintmask 11010100
          -57 callsubr
          -185 137 -85 callsubr
          hintmask 00101000
          -101 callgsubr
        </CharString>
        <CharString name="Ygrave">
          -13 callgsubr
          33 6 callgsubr
          194 211 -182 -10 callsubr
          hintmask 11001000
          -89 callsubr
          hintmask 11001100
          -57 callsubr
          hintmask 00110000
          -249 221 -92 callgsubr
        </CharString>
        <CharString name="Z">
          -2 callsubr
          hstem
          48 524 vstem
          -95 callgsubr
          endchar
        </CharString>
        <CharString name="Zacute">
          -2 callsubr
          33 6 callgsubr
          48 524 -354 211 hintmask 11010000
          -95 callgsubr
          hintmask 00101000
          -341 65 -106 callgsubr
          endchar
        </CharString>
        <CharString name="Zcaron">
          -2 callsubr
          45 -9 callsubr
          48 524 -411 305 hintmask 11010000
          -95 callgsubr
          hintmask 00101000
          -93 231 -100 callsubr
        </CharString>
        <CharString name="Zdotaccent">
          -2 callsubr
          53 -20 hstemhm
          48 524 -362 201 hintmask 11010000
          -95 callgsubr
          -349 168 -94 callsubr
          vhcurveto
          hintmask 00101000
          -36 callsubr
          hvcurveto
          endchar
        </CharString>
        <CharString name="a">
          -41 -10 -62 callgsubr
          -40 callgsubr
          59 186 69 15 -53 callgsubr
          hintmask 1011110110000000
          -91 callsubr
          hintmask 0111101110000000
          -37 callsubr
          -104 callgsubr
          hintmask 1011110110000000
          -86 callsubr
          endchar
        </CharString>
        <CharString name="aacute">
          -41 -10 -62 callgsubr
          54 210 -40 callgsubr
          -32 174 -83 186 69 15 -53 callgsubr
          hintmask 1011101001100000
          -91 callsubr
          hintmask 0111100101100000
          -37 callsubr
          -104 callgsubr
          hintmask 1011101001100000
          -86 callsubr
          hintmask 0000010010000000
          -48 517 -98 callgsubr
          endchar
        </CharString>
        <CharString name="abreve">
          -41 7 15 97 198 endchar
        </CharString>
        <CharString name="acircumflex">
          -41 3 0 97 18 callsubr
        </CharString>
        <CharString name="acute">
          525 210 hstem
          163 174 vstem
          163 532 -98 callgsubr
          endchar
        </CharString>
        <CharString name="acute.cap">
          733 172 hstem
          160 211 vstem
          160 743 -106 callgsubr
          endchar
        </CharString>
        <CharString name="adieresis">
          -41 -12 15 97 200 endchar
        </CharString>
        <CharString name="ae">
          182 -10 31 198 16 23 20 2 123 64 19 -14 14 -40 callgsubr
          59 185 104 178 -53 callgsubr
          hintmask 1110011011000000
          279 237 rmoveto
          -2 -29 vlineto
          -143 -87 -23 -101 -100 83 -21 70 101 39 45 35 15 hvcurveto
          -50 39 65 -30 97 hhcurveto
          16 callgsubr
          hvcurveto
          -18 3 rlineto
          -77 -22 -50 -47 -74 hhcurveto
          -97 -21 80 118 hvcurveto
          hintmask 1010010111000000
          39 282 vlineto
          149 6 -67 79 -144 hhcurveto
          -61 -59 -20 -43 -32 hvcurveto
          42 -29 -45 21 -78 hhcurveto
          -112 -79 -39 -84 hvcurveto
          hintmask 1001010111000000
          -49 24 -34 62 50 38 31 47 19 -3 13 -5 13 vhcurveto
          -25 hlineto
          -4 11 -2 10 8 vvcurveto
          32 29 8 18 40 11 -33 -127 vhcurveto
          hintmask 1010101011000000
          186 -34 -56 callgsubr
          -49 vlineto
          -319 -248 rmoveto
          -24 -15 10 72 hvcurveto
          hintmask 1110011011000000
          16 vlineto
          61 20 30 42 vhcurveto
          7 -1 hlineto
          2 -49 11 -44 22 -36 rrcurveto
          hintmask 1010101011000000
          -45 -14 -33 -14 -18 hhcurveto
          endchar
        </CharString>
        <CharString name="aeacute">
          182 197 0 241 194 endchar
        </CharString>
        <CharString name="afii61352">
          482 -10 19 -16 118 -53 94 -64 23 42 15 311 17 53 94 38 19 -8 19 hstemhm
          9 75 105 27 416 28 69 124 -89 75 101 118 -53 callgsubr
          hintmask 1001110100111010
          660 573 rmoveto
          91 45 28 33 15 11 -8 -16 -8 -3 -6 -8 -11 vhcurveto
          -30 hlineto
          -6 -12 -6 -15 -17 vvcurveto
          hintmask 1001111010110110
          -28 22 -22 40 44 22 34 43 38 -26 47 -69 -50 -62 -25 -127 vhcurveto
          -350 vlineto
          -256 491 rlineto
          -283 -19 62 hlineto
          34 -62 rlineto
          hintmask 1010010101111010
          -491 vlineto
          -91 -34 -28 -45 -15 -11 8 16 8 3 6 8 11 vhcurveto
          30 hlineto
          6 12 6 15 17 vvcurveto
          28 -20 22 -38 -47 -23 -34 -43 -38 26 -47 69 64 48 25 127 vhcurveto
          435 vlineto
          309 -584 rlineto
          135 hlineto
          69 327 rmoveto
          -98 64 -69 99 81 85 57 118 vhcurveto
          hintmask 0100110100111010
          119 -79 49 -82 -92 -76 -63 -113 vhcurveto
          hintmask 1001110100111010
          124 1 rmoveto
          113 0 45 46 40 1 -42 -111 -108 0 -50 -45 -42 0 43 110 vhcurveto
          -101 -233 rmoveto
          285 23 -285 hlineto
          endchar
        </CharString>
        <CharString name="agrave">
          -41 17 15 97 193 endchar
        </CharString>
        <CharString name="amacron">
          -41 7 15 97 197 endchar
        </CharString>
        <CharString name="ampersand">
          232 -250 24 53 108 55 26 384 20 270 21 hstemhm
          65 156 -87 135 88 118 -27 116 86 25 -53 callgsubr
          hintmask 1111110101000000
          515 -226 rmoveto
          -40 -6 23 30 10 hvcurveto
          35 hlineto
          4 14 2 12 10 vvcurveto
          47 -29 25 -51 -48 -35 -34 -50 -63 50 -38 87 130 119 135 143 98 -39 52 -48 53 vhcurveto
          13 56 5 56 1 57 rrcurveto
          70 20 -174 -20 79 hlineto
          -1 -46 -5 -49 -11 -51 -45 43 -54 34 -53 34 -30 19 -26 17 -22 15 rrcurveto
          hintmask 1011101011000000
          110 38 51 55 69 vvcurveto
          78 -60 55 -140 -117 -113 -56 -137 -71 32 -51 56 -51 vhcurveto
          hintmask 1011110011000000
          -117 -26 -40 -57 -85 vvcurveto
          -137 127 -50 159 109 62 39 48 42 vhcurveto
          29 -39 24 -41 -62 vvcurveto
          hintmask 1111110101000000
          -84 -34 -77 -68 vhcurveto
          hintmask 1011110011000000
          -136 242 rmoveto
          -102 -56 47 142 69 5 35 10 21 hvcurveto
          47 -41 62 -39 73 -48 60 -40 36 -29 33 -35 rrcurveto
          -45 -34 -52 -37 -82 hhcurveto
          hintmask 1011101011000000
          -110 572 rmoveto
          81 50 21 42 57 30 -38 -80 -66 -1 -45 -62 -33 vhcurveto
          -91 63 -25 35 62 vvcurveto
          endchar
        </CharString>
        <CharString name="aogonek">
          -41 -251 41 200 -62 callgsubr
          -40 callgsubr
          59 186 -158 120 107 15 -53 callgsubr
          hintmask 1101111010100000
          250 235 rmoveto
          -143 -87 -23 -101 -100 78 -21 70 70 29 26 48 16 hvcurveto
          -49 12 45 -25 81 8 8 1 8 hhcurveto
          -28 -17 rlineto
          hintmask 1011111001100000
          -92 -56 -18 -32 -31 callsubr
          19 49 52 35 hvcurveto
          32 22 16 40 3 77 -15 1 rcurveline
          -37 callsubr
          hintmask 1011110110100000
          -104 callgsubr
          hintmask 1101111010100000
          -86 callsubr
          endchar
        </CharString>
        <CharString name="apostrophe">
          -379 491 230 hstem
          126 44 vstem
          74 491 -50 callgsubr
        </CharString>
        <CharString name="approxequal">
          -60 118 31 22 31 85 31 22 31 hstemhm
          35 459 hintmask 00000000
          hintmask 11011000
          388 118 rmoveto
          51 32 27 45 23 hvcurveto
          1 callsubr
          hintmask 01011000
          22 callsubr
          10 callsubr
          169 vmoveto
          hintmask 11011000
          51 32 27 45 23 hvcurveto
          hintmask 01111000
          1 callsubr
          22 callsubr
          hintmask 01011000
          10 callsubr
          endchar
        </CharString>
        <CharString name="aring">
          -41 -10 -62 callgsubr
          49 5 callsubr
          -40 callgsubr
          -64 30 93 186 -136 29 176 15 -53 callgsubr
          hintmask 1011100100101000
          -91 callsubr
          hintmask 0111100010101000
          -37 callsubr
          -104 callgsubr
          hintmask 1011100100101000
          -86 callsubr
          hintmask 0000011001010000
          -50 602 -98 callsubr
          endchar
        </CharString>
        <CharString name="aringacute">
          -41 -10 -62 callgsubr
          24 5 callsubr
          1 172 -40 callgsubr
          -64 30 -21 211 -97 186 -136 29 176 15 -53 callgsubr
          hintmask 1011100010001010
          -91 callsubr
          hintmask 0111100001001010
          -37 callsubr
          -104 callgsubr
          hintmask 1011100010001010
          -86 callsubr
          hintmask 0000011000100100
          -50 577 -98 callsubr
          hintmask 0000000100010000
          9 106 -106 callgsubr
          endchar
        </CharString>
        <CharString name="asciicircum">
          -30 621 43 hstem
          60 440 vstem
          500 300 rmoveto
          -202 364 rlineto
          -49 hlineto
          -189 -364 38 -16 175 337 190 -336 rlineto
          endchar
        </CharString>
        <CharString name="asciitilde">
          -60 237 121 -80 120 hstemhm
          60 430 29 callsubr
          377 237 rmoveto
          51 26 23 138 36 hvcurveto
          -12 3 rlineto
          -34 -17 -16 -9 -28 hhcurveto
          -32 -45 9 9 -39 hvcurveto
          hintmask 01100000
          10 -43 -46 12 -33 hhcurveto
          -72 -27 -74 -84 -20 hvcurveto
          12 -5 rlineto
          36 18 29 7 25 hhcurveto
          28 37 -9 -9 34 hvcurveto
          hintmask 10100000
          -11 44 48 -12 42 hhcurveto
          endchar
        </CharString>
        <CharString name="asterisk">
          -61 710 -20 hstem
          60 409 vstem
          465 608 rmoveto
          3 12 1 10 15 vvcurveto
          35 -16 30 -33 -21 -17 -13 -19 -19 vhcurveto
          -89 -89 39 104 rlineto
          9 24 4 20 14 vvcurveto
          25 -21 15 -28 -18 -24 -7 -19 -24 vhcurveto
          44 -175 -91 87 rlineto
          22 -24 -10 11 -21 hhcurveto
          -35 -14 -38 -27 -10 1 -15 3 -12 hvcurveto
          178 -33 -119 -33 rlineto
          -34 -9 -28 -9 -32 vvcurveto
          -38 38 -25 30 -11 vhcurveto
          124 144 -43 -126 rlineto
          -8 -24 -1 -11 -14 vvcurveto
          -25 21 -15 28 18 24 7 19 24 vhcurveto
          -45 188 129 -143 rlineto
          33 13 35 24 37 vvcurveto
          33 -30 9 -24 6 vhcurveto
          -132 35 rlineto
          endchar
        </CharString>
        <CharString name="at">
          289 -183 -34 callgsubr
          395 -93 callsubr
        </CharString>
        <CharString name="at.case">
          289 -51 -34 callgsubr
          527 -93 callsubr
        </CharString>
        <CharString name="atilde">
          -41 -10 -62 callgsubr
          77 109 -69 109 -40 callgsubr
          -120 333 -154 186 69 15 -53 callgsubr
          hintmask 1011100100110000
          -91 callsubr
          hintmask 0111100010110000
          -37 callsubr
          -104 callgsubr
          hintmask 1011100100110000
          -86 callsubr
          -53 callgsubr
          85 533 rmoveto
          hintmask 0000010001000000
          -37 callgsubr
          hintmask 0000001001000000
          -39 -13 -25 -3 -20 hhcurveto
          hintmask 0000010001000000
          -37 -58 40 -50 hhcurveto
          -64 -26 -58 -83 callgsubr
          hintmask 0000001001000000
          -52 callsubr
        </CharString>
        <CharString name="b">
          -2 -10 760 -61 callgsubr
          -42 -23 49 54 vhcurveto
          186 vlineto
          87 37 48 41 vhcurveto
          -78 307 rmoveto
          -241 -18 55 -714 -55 -18 228 hlineto
          7 59 rlineto
          -50 14 34 -19 69 hhcurveto
          136 70 76 171 171 -69 78 25 callgsubr
          endchar
        </CharString>
        <CharString name="backslash">
          -239 -97 892 hstem
          8 336 vstem
          49 795 rmoveto
          -41 hlineto
          294 -892 rlineto
          42 hlineto
          endchar
        </CharString>
        <CharString name="bar">
          2 callgsubr
          -127 rmoveto
          39 922 -39 hlineto
          endchar
        </CharString>
        <CharString name="braceleft">
          8 callsubr
          89 180 -151 179 hintmask 00000000
          hintmask 10101000
          24 324 rmoveto
          -16 vlineto
          43 -1 51 -21 -94 -72 -29 -95 -40 vvcurveto
          hintmask 10110000
          -95 62 -50 140 38 34 10 6 14 vhcurveto
          -5 16 rlineto
          -4 -11 -18 -4 -15 hhcurveto
          -31 -28 10 57 hvcurveto
          55 28 133 61 vvcurveto
          hintmask 10101000
          98 -57 30 -113 9 vhcurveto
          2 vlineto
          120 7 50 29 95 67 -28 115 61 vvcurveto
          57 29 8 25 vhcurveto
          hintmask 11010000
          17 11 -3 -4 12 hvcurveto
          5 16 rlineto
          6 -16 -30 7 -46 hhcurveto
          hintmask 10101000
          -128 -59 -46 -91 hvcurveto
          hintmask 11010000
          -47 29 -80 -75 vvcurveto
          -98 -51 -18 -43 -1 vhcurveto
          endchar
        </CharString>
        <CharString name="braceright">
          8 callsubr
          80 179 -151 180 hintmask 00000000
          353 324 rmoveto
          hintmask 10110000
          -43 1 -51 18 98 vvcurveto
          hintmask 10101000
          75 29 80 47 vvcurveto
          91 -59 46 -128 -46 -30 -7 -6 -16 vhcurveto
          hintmask 10110000
          5 -16 rlineto
          4 12 11 3 17 hhcurveto
          25 29 -8 -57 hvcurveto
          -61 -28 -115 -67 vvcurveto
          -95 50 -29 120 -7 vhcurveto
          hintmask 11001000
          -2 vlineto
          -113 -9 -57 -30 -98 -61 28 -133 -55 vvcurveto
          -57 -28 -10 -31 -15 -18 4 4 -11 vhcurveto
          -5 -16 rlineto
          hintmask 10110000
          -6 14 34 -10 38 hhcurveto
          140 62 50 95 hvcurveto
          40 -29 95 72 vvcurveto
          94 51 21 43 1 vhcurveto
          hintmask 11001000
          16 vlineto
          endchar
        </CharString>
        <CharString name="bracketleft">
          -261 763 -20 hstem
          61 288 vstem
          349 -142 rmoveto
          -46 hlineto
          -49 -8 2 51 hvcurveto
          800 vlineto
          47 10 5 48 vhcurveto
          45 18 -288 -941 288 hlineto
          endchar
        </CharString>
        <CharString name="bracketright">
          -262 763 -20 hstem
          -20 288 vstem
          -20 -160 rmoveto
          288 941 -288 -18 45 hlineto
          48 10 -5 -47 hvcurveto
          -800 vlineto
          -51 -8 -2 -49 vhcurveto
          -46 hlineto
          endchar
        </CharString>
        <CharString name="breve">
          706 -20 26 callsubr
          -38 callgsubr
          endchar
        </CharString>
        <CharString name="breve.cap">
          746 175 26 callsubr
          918 -87 callgsubr
          -42 callsubr
        </CharString>
        <CharString name="brokenbar">
          2 callgsubr
          412 rmoveto
          39 383 -39 hlineto
          -922 vmoveto
          39 437 -39 hlineto
          endchar
        </CharString>
        <CharString name="bullet">
          -190 151 258 hstem
          76 259 vstem
          76 280 rmoveto
          -63 32 -66 98 85 44 54 76 88 -55 40 -75 -85 -44 -57 -72 vhcurveto
          endchar
        </CharString>
        <CharString name="c">
          -107 -10 34 241 119 84 18 hstem
          15 193 85 172 vstem
          -60 callgsubr
          86 -86 154 167 33 101 62 13 vhcurveto
          20 callgsubr
          27 callsubr
          29 callgsubr
        </CharString>
        <CharString name="cacute">
          -107 31 15 99 194 endchar
        </CharString>
        <CharString name="caron">
          513 25 callsubr
          391 719 -67 callgsubr
        </CharString>
        <CharString name="caron.alt">
          709 -20 71 -20 hstem
          224 94 vstem
          194 521 -89 callgsubr
        </CharString>
        <CharString name="caron.cap">
          745 174 hstem
          97 305 vstem
          402 909 -100 callsubr
        </CharString>
        <CharString name="ccaron">
          -107 13 15 99 207 endchar
        </CharString>
        <CharString name="ccedilla">
          -107 -13 callsubr
          42 34 241 119 84 18 hstemhm
          15 193 -55 63 70 106 -99 172 -53 callgsubr
          hintmask 1111110010000000
          -60 callgsubr
          85 -85 154 -1 vhcurveto
          hintmask 1110110100000000
          -33 -55 -84 callgsubr
          hvcurveto
          hintmask 1110101100000000
          -103 callsubr
          27 46 144 9 30 94 13 59 rlinecurve
          20 callgsubr
          hintmask 1110110100000000
          27 callsubr
          hintmask 1111110010000000
          29 callgsubr
        </CharString>
        <CharString name="ccircumflex">
          -107 13 0 99 18 callsubr
        </CharString>
        <CharString name="cdotaccent">
          -107 20 15 99 199 endchar
        </CharString>
        <CharString name="cedilla">
          -13 callsubr
          hstem
          129 63 70 106 vstem
          244 13 rmoveto
          -47 -78 -84 callgsubr
          -103 callsubr
          40 68 rlineto
          endchar
        </CharString>
        <CharString name="cedilla.cap">
          -13 callsubr
          hstem
          129 63 70 106 vstem
          244 13 rmoveto
          -47 -78 -84 callgsubr
          -103 callsubr
          40 68 rlineto
          endchar
        </CharString>
        <CharString name="cent">
          -75 75 33 217 108 78 17 hstem
          54 178 94 150 vstem
          312 511 rmoveto
          26 30 -14 -31 -10 -2 -11 -4 -12 hvcurveto
          -31 hlineto
          -4 -13 -1 -12 -8 vvcurveto
          -51 27 -24 48 47 28 28 57 60 -45 46 -88 10 vhcurveto
          23 104 -28 5 -24 -107 rlineto
          -9 hlineto
          -155 -96 -79 -153 -112 49 -73 91 -26 hvcurveto
          -23 -105 28 -6 23 105 rlineto
          -3 18 19 -1 20 hhcurveto
          157 31 92 57 12 hvcurveto
          -19 4 rlineto
          -50 -10 -35 -70 -85 hhcurveto
          -73 -25 50 117 hvcurveto
          47 vlineto
          136 26 53 54 vhcurveto
          endchar
        </CharString>
        <CharString name="circumflex">
          523 25 callsubr
          118 532 -67 callsubr
        </CharString>
        <CharString name="circumflex.cap">
          733 174 hstem
          98 305 vstem
          98 743 -106 callsubr
        </CharString>
        <CharString name="colon">
          -325 -10 174 157 -9 callsubr
          45 175 hintmask 01100000
          45 407 rmoveto
          -76 callgsubr
          -56 -30 -39 -49 vhcurveto
          -331 vmoveto
          -76 callgsubr
          vhcurveto
          hintmask 10100000
          -56 -30 -39 -49 hvcurveto
          endchar
        </CharString>
        <CharString name="comma">
          -328 -156 319 -117 117 hstemhm
          174 43 29 callsubr
          86 -156 rmoveto
          92 68 39 61 78 vvcurveto
          hintmask 01100000
          62 -35 50 -62 -51 -34 -34 -48 -42 34 -27 26 -9 vhcurveto
          48 43 rlineto
          14 -2 17 -11 -30 vvcurveto
          -38 -12 -31 -88 -75 vhcurveto
          endchar
        </CharString>
        <CharString name="commaaccent">
          -33 callsubr
          hstem
          273 50 vstem
          221 -290 -107 callsubr
        </CharString>
        <CharString name="commaaccent.cap">
          -33 callsubr
          hstem
          273 50 vstem
          221 -290 -107 callsubr
        </CharString>
        <CharString name="copyright">
          191 -11 23 110 18 356 18 100 22 hstemhm
          60 26 122 144 167 10 -5 10 162 25 -53 callgsubr
          hintmask 1111111010000000
          721 320 rmoveto
          192 -125 124 -204 -184 -148 -123 -207 -184 111 -133 219 196 135 126 205 vhcurveto
          -25 -6 rmoveto
          -188 -119 -114 -187 -190 -114 109 186 196 132 111 174 176 128 -103 -197 vhcurveto
          -280 182 rmoveto
          37 43 -44 -62 21 hvcurveto
          14 hlineto
          -3 119 rlineto
          -9 hlineto
          -7 -4 -2 -8 -8 -12 -37 20 -45 hhcurveto
          -122 -81 -69 -127 -137 80 -59 119 hvcurveto
          hintmask 1111110110000000
          51 39 21 11 hhcurveto
          8 2 -8 -7 4 hvcurveto
          10 hlineto
          4 119 rlineto
          -12 hlineto
          -52 -19 -37 -55 -52 hhcurveto
          -51 -13 42 136 hvcurveto
          hintmask 1111111010000000
          146 15 32 49 vhcurveto
          endchar
        </CharString>
        <CharString name="currency">
          -60 176 31 267 29 hstem
          99 39 245 39 vstem
          99 340 rmoveto
          -36 9 -40 19 -28 vhcurveto
          -72 -89 18 -18 89 74 rlineto
          -16 23 37 -11 39 hhcurveto
          36 34 10 19 24 hvcurveto
          94 -77 18 17 -75 98 rlineto
          18 28 12 36 36 vvcurveto
          33 -10 38 -18 27 vhcurveto
          75 85 -17 16 -90 -69 rlineto
          20 -25 -36 10 -37 hhcurveto
          -39 -37 -12 -19 -28 hvcurveto
          -90 71 -19 -18 77 -89 rlineto
          -19 -29 -10 -35 -32 vvcurveto
          39 hmoveto
          71 37 63 85 86 37 -58 -76 -72 -41 -61 -80 -93 -31 61 72 vhcurveto
          endchar
        </CharString>
        <CharString name="d">
          -2 -10 760 -264 246 hstemhm
          213 124 hintmask 00000000
          268 33 -24 callsubr
          hintmask 10100000
          -75 -40 -28 -29 vhcurveto
          82 -33 rmoveto
          222 18 -49 732 -250 -18 61 -295 hlineto
          hintmask 01100000
          -15 callgsubr
          78 39 30 50 21 hvcurveto
          endchar
        </CharString>
        <CharString name="dagger">
          -59 431 129 151 -20 hstemhm
          195 147 -91 30 -24 19 hintmask 00000000
          hintmask 11001000
          352 355 rmoveto
          -24 29 -47 64 -5 37 3 callgsubr
          hintmask 11100000
          -60 callsubr
          hvcurveto
          hintmask 11001000
          55 54 51 3 52 hvcurveto
          -7 -40 -47 -61 -24 -30 rrcurveto
          -6 vlineto
          hintmask 11010000
          25 -46 44 -64 1 -124 4 -234 rcurveline
          26 hlineto
          5 235 rlineto
          hintmask 11001000
          2 120 43 70 23 44 rrcurveto
          endchar
        </CharString>
        <CharString name="daggerdbl">
          -19 27 129 275 129 151 -20 hstemhm
          209 147 -141 147 hintmask 00000000
          hintmask 11110000
          372 386 rmoveto
          -32 26 -35 45 -9 28 3 callgsubr
          hintmask 11101000
          -60 callsubr
          55 54 51 3 52 hvcurveto
          -7 -29 -39 -40 -32 -31 rrcurveto
          -6 vlineto
          27 -26 19 -24 21 -36 -19 -32 -24 -30 -24 -24 rrcurveto
          -6 vlineto
          32 -26 35 -45 9 -28 rrcurveto
          3 -52 -58 51 -49 hhcurveto
          -28 -28 -22 -44 hvcurveto
          hintmask 11110000
          -47 30 -16 25 56 49 55 4 55 vhcurveto
          -3 -65 -63 -28 -53 vvcurveto
          -34 22 -30 48 53 24 30 34 55 -60 29 -3 62 vhcurveto
          -2 56 50 -57 54 hhcurveto
          39 19 32 31 32 -18 34 -38 -55 -54 -51 -3 -52 hvcurveto
          7 29 39 40 32 31 rrcurveto
          6 vlineto
          -27 26 -20 24 -21 35 20 33 24 30 24 24 rrcurveto
          endchar
        </CharString>
        <CharString name="dcaron">
          74 -10 760 -264 246 -24 -20 71 -20 hstemhm
          213 124 263 94 hintmask 00000000
          hintmask 10001000
          268 33 rmoveto
          29 40 28 75 hvcurveto
          218 vlineto
          54 -21 49 -44 -49 -10 -59 -139 vhcurveto
          -52 vlineto
          -141 12 -33 43 vhcurveto
          71 37 rmoveto
          -50 -21 -39 -30 -78 hhcurveto
          -111 -70 79 168 hvcurveto
          hintmask 01001000
          169 70 80 128 62 36 -18 -31 18 vhcurveto
          295 -61 18 250 -732 49 -18 -222 vlineto
          hintmask 00110100
          220 520 -89 callgsubr
        </CharString>
        <CharString name="dcroat">
          -6 486 99 21 126 hstemhm
          213 124 hintmask 00000000
          350 hmoveto
          222 18 -49 567 56 21 -56 144 -250 -18 61 -126 hlineto
          hintmask 10100000
          -164 -21 164 -148 hlineto
          -15 callgsubr
          hvcurveto
          hintmask 11100000
          78 39 30 50 21 hvcurveto
          -71 -37 -24 callsubr
          -75 -40 -28 -29 vhcurveto
          endchar
        </CharString>
        <CharString name="degree">
          -261 506 29 184 28 hstem
          40 36 178 35 vstem
          76 627 rmoveto
          54 33 38 54 56 35 -36 -56 -53 -34 -39 -54 -60 -30 39 53 vhcurveto
          -36 hmoveto
          -69 40 -52 84 81 44 55 68 70 -42 48 -80 -83 -44 -56 -64 vhcurveto
          endchar
        </CharString>
        <CharString name="dieresis">
          543 148 hstem
          247 44 vstem
          291 618 -54 callsubr
        </CharString>
        <CharString name="dieresis.cap">
          746 148 hstem
          228 44 vstem
          272 821 -54 callsubr
        </CharString>
        <CharString name="divide">
          -60 247 143 -89 33 hstemhm
          38 454 -279 112 hintmask 10010000
          213 446 rmoveto
          -10 callgsubr
          -254 vmoveto
          -10 callgsubr
          hintmask 01100000
          279 109 -1 callsubr
          endchar
        </CharString>
        <CharString name="dollar">
          -25 -10 21 -20 20 4 -21 23 -21 482 -20 214 20 78 -20 hstemhm
          65 90 75 28 62 28 82 95 -53 callgsubr
          hintmask 0100111011000000
          230 -71 rmoveto
          28 64 hlineto
          hintmask 1000111011000000
          -2 14 15 -1 15 hhcurveto
          6 6 0 1 6 hvcurveto
          hintmask 0010111111100000
          -62 28 65 vlineto
          108 19 69 86 124 vvcurveto
          139 -87 48 -90 30 vhcurveto
          206 vlineto
          52 -35 39 -65 32 -61 rrcurveto
          15 hlineto
          -7 197 rlineto
          -10 hlineto
          -13 -6 -5 -7 -15 hhcurveto
          -22 -29 14 9 -44 hvcurveto
          85 -28 -81 vlineto
          2 -12 -13 1 -14 -8 -8 -1 -7 hhcurveto
          79 -28 -83 vlineto
          -108 -21 -57 -90 -95 vvcurveto
          -134 69 -54 96 -33 vhcurveto
          -225 vlineto
          -66 38 -54 79 -32 70 rrcurveto
          -16 hlineto
          hintmask 1000111111000000
          9 -232 rlineto
          13 hlineto
          hintmask 0001111111000000
          19 7 6 10 14 hhcurveto
          18 45 -15 -8 56 hvcurveto
          hintmask 1000111011000000
          82 15 rmoveto
          -19 -18 4 7 -17 hvcurveto
          229 1 vlineto
          22 -7 21 -7 18 -7 rrcurveto
          -219 vlineto
          hintmask 0001111111100000
          -8 440 rmoveto
          -20 5 -18 6 -16 5 rrcurveto
          204 vlineto
          1 3 4 0 4 hhcurveto
          18 17 -4 -7 16 hvcurveto
          -212 vlineto
          110 -336 rmoveto
          -56 -39 -31 -43 -11 vhcurveto
          204 vlineto
          54 -26 28 -31 -49 vvcurveto
          -275 460 rmoveto
          46 30 35 45 13 vhcurveto
          -189 vlineto
          -47 20 -28 26 49 vvcurveto
          endchar
        </CharString>
        <CharString name="dotaccent">
          530 186 hstem
          146 201 vstem
          146 623 -94 callsubr
          -36 callsubr
          vhcurveto
          endchar
        </CharString>
        <CharString name="dotaccent.cap">
          753 -20 hstem
          149 201 vstem
          149 846 -94 callsubr
          -36 callsubr
          vhcurveto
          endchar
        </CharString>
        <CharString name="dotlessi">
          -273 0 18 440 15 callgsubr
          6 476 rmoveto
          -88 callgsubr
        </CharString>
        <CharString name="dotlessj">
          -279 -12 callgsubr
          507 18 hstem
          -150 116 99 186 vstem
          251 -16 callsubr
          -90 callgsubr
          endchar
        </CharString>
        <CharString name="e">
          -17 callsubr
          hstemhm
          209 103 -23 callsubr
          16 callgsubr
          vhcurveto
          -18 3 rlineto
          -68 callsubr
        </CharString>
        <CharString name="eacute">
          -17 callsubr
          73 210 hstemhm
          198 174 -163 103 hintmask 00000000
          hintmask 10001000
          15 237 rmoveto
          173 118 76 139 157 67 -79 -149 -6 vhcurveto
          -282 -39 hlineto
          -118 21 -80 97 74 50 47 77 22 vhcurveto
          18 -3 rlineto
          -86 -23 -52 -66 -142 hhcurveto
          -178 -80 102 145 hvcurveto
          hintmask 11001000
          297 41 rmoveto
          49 vlineto
          105 -8 35 -41 -35 -19 -34 -106 vhcurveto
          -49 vlineto
          hintmask 00110000
          -11 269 -98 callgsubr
          endchar
        </CharString>
        <CharString name="ebreve">
          -74 17 15 101 198 endchar
        </CharString>
        <CharString name="ecaron">
          -74 14 15 101 207 endchar
        </CharString>
        <CharString name="ecircumflex">
          -74 13 0 101 18 callsubr
        </CharString>
        <CharString name="edieresis">
          -17 callsubr
          91 23 callgsubr
          209 103 -67 44 -23 callsubr
          16 callgsubr
          vhcurveto
          -18 3 rlineto
          -71 callgsubr
          -157 hhcurveto
          hintmask 10010000
          -139 -118 -76 -173 hvcurveto
          194 41 -56 callgsubr
          hintmask 11010000
          -49 vlineto
          -23 355 -85 callsubr
          hintmask 00101000
          -101 callgsubr
        </CharString>
        <CharString name="edotaccent">
          -74 21 15 101 199 endchar
        </CharString>
        <CharString name="egrave">
          -74 27 15 101 193 endchar
        </CharString>
        <CharString name="eight">
          21 -10 21 344 23 312 21 hstemhm
          25 195 -176 195 138 191 -173 191 hintmask 00000000
          hintmask 11101100
          249 368 rmoveto
          -3 vlineto
          hintmask 11110010
          -153 -10 -71 -67 -107 vvcurveto
          -123 88 -68 195 193 85 66 126 102 -62 68 -154 13 vhcurveto
          3 vlineto
          hintmask 11101100
          131 10 67 64 93 vvcurveto
          110 -86 66 -174 -178 -86 -73 -109 -90 73 -64 132 -7 vhcurveto
          hintmask 11110010
          59 -13 rmoveto
          71 16 -57 -114 -116 -13 -57 -74 -75 -13 56 114 116 15 58 73 hvcurveto
          hintmask 11101100
          -69 180 rmoveto
          98 5 57 64 64 5 -57 -98 -105 -1 -52 -65 -69 -3 52 105 vhcurveto
          endchar
        </CharString>
        <CharString name="ellipsis">
          206 -10 -9 callsubr
          45 175 89 175 92 175 hintmask 11000000
          45 76 rmoveto
          -76 callgsubr
          -56 -30 -39 -49 vhcurveto
          264 hmoveto
          -76 callgsubr
          vhcurveto
          hintmask 10100000
          -56 -30 -39 -49 hvcurveto
          267 hmoveto
          -76 callgsubr
          vhcurveto
          hintmask 10010000
          -56 -30 -39 -49 hvcurveto
          endchar
        </CharString>
        <CharString name="emacron">
          -74 17 15 101 197 endchar
        </CharString>
        <CharString name="emdash">
          410 272 27 hstem
          20 960 vstem
          20 272 rmoveto
          960 27 -960 hlineto
          endchar
        </CharString>
        <CharString name="endash">
          272 27 hstem
          20 460 vstem
          20 272 rmoveto
          460 27 -460 hlineto
          endchar
        </CharString>
        <CharString name="eng">
          20 -12 callgsubr
          49 -14 callsubr
          -88 123 83 -33 callgsubr
          hintmask 10101101
          10 -80 callgsubr
          hintmask 10110101
          81 39 63 42 25 12 -10 -85 vhcurveto
          -399 vlineto
          -144 -11 -33 -41 vhcurveto
          hintmask 11110011
          -26 -17 29 36 23 hvcurveto
          29 hlineto
          3 12 3 16 14 vvcurveto
          43 -24 34 -53 -50 -42 -30 -60 -51 30 -60 121 177 64 128 208 vhcurveto
          233 vlineto
          121 -62 46 -93 vhcurveto
          hintmask 10110101
          -99 -33 -52 -50 -17 hvcurveto
          hintmask 10101101
          92 vlineto
          endchar
        </CharString>
        <CharString name="eogonek">
          -17 callsubr
          hstemhm
          209 103 -23 callsubr
          25 23 3 4 20 vhcurveto
          -35 -24 rlineto
          -82 -56 -24 -31 -32 callgsubr
          58 54 32 hvcurveto
          55 32 26 42 15 57 -18 3 rcurveline
          -68 callsubr
        </CharString>
        <CharString name="equal">
          -60 190 33 123 33 -9 callgsubr
          190 -1 callsubr
          189 vmoveto
          -33 454 33 vlineto
          endchar
        </CharString>
        <CharString name="eth">
          -30 -10 18 460 26 209 -20 66 16 hstem
          20 193 131 196 vstem
          195 575 rmoveto
          112 74 40 -62 9 -82 4 -74 rlinecurve
          40 -18 -30 23 -63 hhcurveto
          -142 -87 -94 -164 -156 85 -90 173 222 40 169 173 173 -49 127 -101 71 hvcurveto
          91 60 -8 25 -106 -70 -70 40 -92 16 -114 -9 rlinecurve
          -2 -16 101 1 63 -32 40 -49 rlinecurve
          -106 -69 rlineto
          157 -403 rmoveto
          -130 -7 -59 -57 -61 -6 75 116 vhcurveto
          78 vlineto
          113 7 78 61 56 7 -78 -108 vhcurveto
          endchar
        </CharString>
        <CharString name="exclam">
          -213 -10 151 570 -20 hstemhm
          111 152 -85 22 hintmask 00000000
          hintmask 11010000
          178 178 rmoveto
          22 85 hlineto
          159 70 101 107 vvcurveto
          65 -38 16 -38 -39 -42 -18 -63 vhcurveto
          -100 65 -109 -157 vvcurveto
          hintmask 11100000
          -67 -199 -18 callsubr
        </CharString>
        <CharString name="exclamdown">
          -213 -235 20 550 151 hstemhm
          111 152 -85 22 hintmask 00000000
          178 212 rmoveto
          -157 -65 -109 -100 vvcurveto
          -63 42 -18 39 38 38 16 65 vhcurveto
          107 -70 101 159 vvcurveto
          85 vlineto
          hintmask 11010000
          -22 hlineto
          -67 113 rmoveto
          -42 27 -34 48 44 33 22 52 46 -27 31 -48 vhcurveto
          hintmask 11100000
          -58 -19 -38 -37 hvcurveto
          endchar
        </CharString>
        <CharString name="f">
          -77 callgsubr
          440 132 18 -132 160 -34 callsubr
        </CharString>
        <CharString name="f.calt">
          -221 -73 callgsubr
          101 102 74 20 -44 callsubr
          13 115 hintmask 00000000
          hintmask 11011000
          217 753 rmoveto
          hintmask 11111100
          47 9 -31 -40 -17 hvcurveto
          -38 -6 rlineto
          -1 -7 0 -7 -7 vvcurveto
          -43 26 -35 53 46 37 26 61 50 -40 59 -96 vhcurveto
          hintmask 11011000
          -122 -56 -111 -139 hvcurveto
          -47 -58 -18 58 -35 callgsubr
          349 18 -108 440 122 18 -122 vlineto
          -80 160 rlineto
          -10 20 -4 19 15 vvcurveto
          44 29 19 31 vhcurveto
          endchar
        </CharString>
        <CharString name="ff">
          122 -73 callgsubr
          75 114 -91 114 45 17 6 21 callgsubr
          49 163 -53 callgsubr
          hintmask 1101011110000000
          642 756 rmoveto
          20 18 -10 -26 -9 -2 -11 -5 -12 -66 callsubr
          54 47 36 27 60 49 -34 63 -125 -90 -60 -34 -54 -39 vhcurveto
          hintmask 1100101100000000
          37 -22 -40 28 -78 -57 callgsubr
          143 -35 callgsubr
          363 18 -122 440 132 18 -132 160 vlineto
          hintmask 1101011110000000
          76 8 44 54 vhcurveto
          hintmask 1110101100000000
          -329 -23 rmoveto
          20 18 -10 -26 -9 -2 -11 -5 -12 -66 callsubr
          47 13 16 4 7 8 vhcurveto
          -16 -82 rlineto
          -4 -143 137 -34 callsubr
        </CharString>
        <CharString name="ffi">
          387 -73 callgsubr
          75 114 68 17 6 17 -44 callsubr
          145 -2 callgsubr
          -142 117 -53 callgsubr
          hintmask 1100111010000000
          695 -39 callgsubr
          -116 -83 -35 -63 -50 vhcurveto
          hintmask 1101011100000000
          39 -15 -43 36 -94 -57 callgsubr
          145 -35 callgsubr
          305 18 -64 440 -8 callsubr
          vlineto
          hintmask 1100111010000000
          76 34 44 79 vhcurveto
          hintmask 1111011100000000
          -382 -23 rmoveto
          27 22 -19 -49 -18 -66 callsubr
          49 13 15 4 8 9 vhcurveto
          -16 -85 rlineto
          -2 -145 137 -34 callsubr
        </CharString>
        <CharString name="ffl">
          384 -73 callgsubr
          75 114 -89 112 17 -20 48 17 6 21 callgsubr
          143 186 cntrmask 0000000111000000
          -53 callgsubr
          hintmask 1101001111000000
          642 756 rmoveto
          27 24 -19 -49 -20 hvcurveto
          -38 hlineto
          -3 -12 -3 -16 -15 vvcurveto
          -41 25 -28 44 13 17 4 6 6 vhcurveto
          -11 -58 rlineto
          -510 -45 -18 287 18 -56 vlineto
          hintmask 1100010111000000
          732 -22 vlineto
          hintmask 1100101111000000
          19 callgsubr
          -84 -60 -30 -54 -40 hvcurveto
          hintmask 1100010111000000
          33 -19 -43 28 -83 -57 callgsubr
          143 -35 callgsubr
          299 18 -58 440 92 18 -92 160 vlineto
          hintmask 1101001111000000
          76 8 44 54 vhcurveto
          hintmask 1110010111000000
          -329 -23 rmoveto
          27 22 -19 -49 -18 -66 callsubr
          46 14 17 4 8 8 vhcurveto
          -17 -85 rlineto
          -2 -143 137 -34 callsubr
        </CharString>
        <CharString name="fi">
          56 -73 callgsubr
          280 21 callgsubr
          -142 117 30 callgsubr
          364 -39 callgsubr
          -208 -101 -113 -182 vhcurveto
          -2 -58 -18 58 -35 callgsubr
          305 18 -64 440 vlineto
          hintmask 11111000
          -8 callsubr
          hlineto
          hintmask 11110100
          76 34 44 79 vhcurveto
          endchar
        </CharString>
        <CharString name="five">
          -50 -10 20 98 129 168 24 81 157 34 -20 28 -20 hstemhm
          16 177 -120 25 210 202 -53 callgsubr
          hintmask 1111010110000000
          218 405 rmoveto
          80 10 -52 -125 -137 -3 -81 -85 hvcurveto
          hintmask 1111011010000000
          -61 -14 38 27 12 31 callsubr
          33 hlineto
          5 13 4 19 19 vvcurveto
          51 -36 27 -50 -62 -29 -44 -49 -123 127 -31 80 178 109 87 143 104 -57 105 -200 vhcurveto
          hintmask 1111010110000000
          -59 -53 -15 -24 -45 hvcurveto
          5 194 218 -57 rlineto
          -9 34 27 -8 22 hhcurveto
          39 18 34 163 16 hvcurveto
          -15 2 rlineto
          -30 -8 -9 -12 -23 hhcurveto
          hintmask 1111100110000000
          -29 -219 22 12 -83 hvcurveto
          -16 -12 rlineto
          -319 vlineto
          17 -8 rlineto
          hintmask 1111010110000000
          26 42 44 17 42 hhcurveto
          endchar
        </CharString>
        <CharString name="fl">
          55 -73 callgsubr
          100 112 17 -20 65 -20 26 21 callgsubr
          hintmask 00000000
          hintmask 11010111
          313 756 rmoveto
          20 18 -10 -26 hvcurveto
          hintmask 11101011
          -9 -2 -11 -5 -12 vhcurveto
          -38 hlineto
          -3 -12 -3 -16 -15 vvcurveto
          -40 26 -29 40 15 14 2 8 10 vhcurveto
          -11 -57 rlineto
          -511 -45 -18 287 18 -56 732 -22 vlineto
          hintmask 11010111
          19 callgsubr
          -162 -77 -113 -182 hvcurveto
          -2 -58 -18 58 -35 callgsubr
          299 18 -58 440 92 18 -92 160 -34 callsubr
        </CharString>
        <CharString name="florin">
          -41 -211 17 68 114 400 18 106 114 68 17 hstemhm
          -181 100 536 100 hintmask 00000000
          hintmask 11111110
          411 694 rmoveto
          22 22 -10 -22 -10 -4 -12 -10 -14 hvcurveto
          -38 hlineto
          -9 -17 -5 -17 -16 vvcurveto
          -35 23 -29 51 60 32 42 55 48 -37 54 -108 -162 -90 -121 -184 -32 vhcurveto
          -58 hlineto
          -3 -18 rlineto
          58 hlineto
          -81 -462 rlineto
          -76 -14 -16 -44 -49 hhcurveto
          -22 -22 10 22 10 4 12 10 14 hvcurveto
          38 hlineto
          9 17 5 17 16 vvcurveto
          35 -23 29 -51 -60 -32 -42 -55 -48 37 -54 108 158 93 116 178 31 vhcurveto
          53 305 rlineto
          142 hlineto
          3 18 rlineto
          -142 hlineto
          30 168 rlineto
          76 14 16 44 49 hhcurveto
          endchar
        </CharString>
        <CharString name="four">
          13 0 19 160 24 421 76 0 -20 hstemhm
          276 184 99 19 hintmask 00000000
          hintmask 11011100
          182 hmoveto
          347 19 -69 160 99 -74 19 185 -19 -87 -99 497 -173 hlineto
          -282 -502 rlineto
          -19 271 -160 -94 vlineto
          -145 184 rmoveto
          hintmask 11101100
          239 421 rlineto
          -421 vlineto
          endchar
        </CharString>
        <CharString name="foursuperior">
          -107 394 19 79 24 238 60 hstem
          217 134 62 19 vstem
          159 394 -78 callgsubr
          endchar
        </CharString>
        <CharString name="fraction">
          -28 callsubr
        </CharString>
        <CharString name="g">
          -68 -29 callgsubr
          hstem
          199 91 82 39 vstem
          411 528 rmoveto
          -14 callgsubr
          -15 2 -16 4 -18 hvcurveto
          18 -33 -29 7 -82 callgsubr
          -37 35 -39 26 hvcurveto
          -5 24 -2 20 16 6 callsubr
          -240 -204 -59 callsubr
          endchar
        </CharString>
        <CharString name="g.calt">
          -81 -29 callgsubr
          hstemhm
          129 260 -210 91 89 39 hintmask 00000000
          365 449 rmoveto
          -4 22 -2 24 15 6 callsubr
          -28 -17 rlineto
          hintmask 11101100
          -14 callgsubr
          -14 1 -19 4 -17 hvcurveto
          17 -33 -37 9 -47 hhcurveto
          -151 -65 -73 -94 -83 38 -47 78 -22 hvcurveto
          -78 -47 -26 -28 -57 vvcurveto
          -44 32 -49 119 vhcurveto
          87 hlineto
          105 22 -19 -48 -63 -56 -43 -97 -87 -20 44 42 16 2 9 6 22 hvcurveto
          hintmask 11110000
          -60 27 rlineto
          -35 -10 -42 -21 -45 vvcurveto
          -61 57 -42 160 202 80 80 111 136 -114 27 -113 vhcurveto
          -92 hlineto
          -53 -11 5 9 9 7 10 35 22 hvcurveto
          -4 21 23 -3 29 hhcurveto
          122 82 57 114 hvcurveto
          hintmask 11101100
          66 -27 32 -43 28 vhcurveto
          -186 -108 -59 callsubr
          endchar
        </CharString>
        <CharString name="g_i">
          233 -231 173 58 18 86 48 306 18 hstem
          199 91 281 186 vstem
          561 604 rmoveto
          -45 9 35 -31 53 hhcurveto
          52 48 33 63 69 -50 40 -65 -95 -101 -62 -212 -78 hvcurveto
          18 -33 -39 9 -82 callgsubr
          -27 32 -39 26 hvcurveto
          203 73 91 21 18 hhcurveto
          28 8 -20 -22 -5 hvcurveto
          -403 -288 -59 callsubr
          313 189 rmoveto
          -18 59 -440 -35 -18 277 18 -56 458 vlineto
          endchar
        </CharString>
        <CharString name="gbreve">
          -68 -3 15 103 198 endchar
        </CharString>
        <CharString name="gcircumflex">
          -68 -29 callgsubr
          67 208 hstemhm
          111 246 -158 91 82 39 hintmask 00011000
          111 532 rmoveto
          12 -9 125 120 98 -60 11 7 -38 95 rlineto
          29 -12 -17 17 -31 hhcurveto
          -23 -19 -8 -8 -14 hvcurveto
          hintmask 11100110
          236 -170 -97 callgsubr
          endchar
        </CharString>
        <CharString name="gcommaaccent">
          -68 -29 callgsubr
          305 -20 hstemhm
          173 50 -24 91 82 39 hintmask 11100110
          439 545 -97 callgsubr
          hintmask 00011000
          76 435 -51 callgsubr
        </CharString>
        <CharString name="gdotaccent">
          -68 1 15 103 199 endchar
        </CharString>
        <CharString name="germandbls">
          84 -10 22 -12 18 733 22 -44 callsubr
          56 12 -1 91 88 29 46 87 hintmask 00000000
          hintmask 10111011
          307 -10 rmoveto
          12 hlineto
          31 7 11 10 13 hhcurveto
          7 8 -3 -9 16 hvcurveto
          -21 37 23 -8 48 hhcurveto
          89 81 67 104 hvcurveto
          hintmask 01110111
          213 -250 -43 100 71 117 39 108 vvcurveto
          58 -36 66 -137 -165 -123 -70 -234 vhcurveto
          -451 -76 -18 262 604 vlineto
          75 12 72 107 77 50 -36 -69 vhcurveto
          -116 -179 -45 -144 vvcurveto
          hintmask 10110111
          -202 254 53 -114 vvcurveto
          -45 -33 -21 -59 vhcurveto
          hintmask 10111011
          -82 -48 59 98 -31 hvcurveto
          -12 hlineto
          endchar
        </CharString>
        <CharString name="grave">
          525 210 hstem
          135 174 vstem
          246 723 -26 callsubr
          endchar
        </CharString>
        <CharString name="grave.cap">
          733 172 hstem
          129 211 vstem
          225 905 -92 callgsubr
        </CharString>
        <CharString name="greater">
          21 callsubr
          39 -27 callgsubr
        </CharString>
        <CharString name="greaterequal">
          -60 33 88 hstem
          38 454 vstem
          38 hmoveto
          33 454 -33 vlineto
          -453 -27 callgsubr
        </CharString>
        <CharString name="guillemotleft">
          -96 49 352 hstemhm
          50 199 -23 199 hintmask 10100000
          239 263 -63 callgsubr
          -9 7 rlineto
          -353 -138 -63 callgsubr
          rlineto
          hintmask 11000000
          -9 7 rlineto
          endchar
        </CharString>
        <CharString name="guillemotright">
          -96 49 352 hstemhm
          70 198 -22 198 hintmask 10100000
          431 187 -63 callsubr
          8 -7 rlineto
          1 138 -63 callsubr
          rlineto
          hintmask 11000000
          8 -7 rlineto
          endchar
        </CharString>
        <CharString name="guilsinglleft">
          -272 49 352 hstem
          50 199 vstem
          63 263 -63 callgsubr
          -9 7 rlineto
          endchar
        </CharString>
        <CharString name="guilsinglright">
          -272 49 352 hstem
          70 198 vstem
          255 187 -63 callsubr
          8 -7 rlineto
          endchar
        </CharString>
        <CharString name="h">
          -29 callsubr
          246 10 callgsubr
          118 186 vstem
          10 750 rmoveto
          -18 55 -714 -55 -18 284 18 -43 276 vlineto
          -102 callgsubr
          366 vlineto
          endchar
        </CharString>
        <CharString name="hbar">
          -29 callsubr
          99 21 126 10 callgsubr
          118 186 vstem
          10 750 rmoveto
          -18 55 -126 -62 -21 62 -567 -55 -18 284 18 -43 276 vlineto
          -102 callgsubr
          201 171 21 -171 144 vlineto
          endchar
        </CharString>
        <CharString name="hcircumflex">
          -29 callsubr
          246 18 20 -9 callsubr
          -13 305 -227 186 118 186 hintmask 11100110
          10 750 rmoveto
          -18 55 -714 -55 -18 284 18 -43 276 vlineto
          -102 callgsubr
          366 vlineto
          hintmask 00011000
          -264 30 -106 callsubr
        </CharString>
        <CharString name="hungarumlaut">
          525 216 hstem
          101 322 vstem
          249 532 -98 callgsubr
          -211 -192 rmoveto
          11 -6 128 118 20 20 7 16 -1 18 rlinecurve
          -1 26 -21 27 -44 -12 -46 -13 rcurveline
          endchar
        </CharString>
        <CharString name="hungarumlaut.cap">
          734 196 hstem
          104 327 vstem
          245 742 -81 callgsubr
        </CharString>
        <CharString name="hyphen">
          -238 278 30 hstem
          50 252 vstem
          50 278 -5 callsubr
        </CharString>
        <CharString name="hyphen.case">
          -238 328 30 hstem
          50 252 vstem
          50 328 -5 callsubr
        </CharString>
        <CharString name="i">
          -66 callgsubr
        </CharString>
        <CharString name="iacute">
          -273 -73 callgsubr
          64 210 -44 callsubr
          -166 174 hintmask 00101000
          85 547 -98 callgsubr
          hintmask 11010000
          -142 -262 rmoveto
          -88 callgsubr
        </CharString>
        <CharString name="ibreve">
          -273 -73 callgsubr
          230 -20 hstemhm
          1 284 -220 186 hintmask 00110000
          1 -38 callgsubr
          hintmask 11001000
          -11 -233 rmoveto
          -88 callgsubr
        </CharString>
        <CharString name="icircumflex">
          -273 -73 callgsubr
          47 215 hstemhm
          4 273 -212 186 hintmask 11001000
          6 476 rmoveto
          -85 callgsubr
          hintmask 00110000
          -247 56 -67 callsubr
        </CharString>
        <CharString name="idieresis">
          -273 -73 callgsubr
          82 148 -44 callsubr
          -126 44 hintmask 00101000
          169 633 rmoveto
          -100 callgsubr
          -193 hmoveto
          -100 callgsubr
          hintmask 11010000
          30 -157 rmoveto
          -88 callgsubr
        </CharString>
        <CharString name="idotaccent">
          -66 callgsubr
        </CharString>
        <CharString name="igrave">
          -273 -73 callgsubr
          64 210 hstemhm
          36 174 -145 186 hintmask 00110000
          147 738 -26 callsubr
          hintmask 11001000
          -204 -71 rmoveto
          -88 callgsubr
        </CharString>
        <CharString name="ij">
          33 -12 callgsubr
          49 -68 callgsubr
          -44 callsubr
          -84 116 99 186 hintmask 00111000
          59 638 -94 callsubr
          -36 callsubr
          vhcurveto
          -53 -162 rmoveto
          -85 callgsubr
          hintmask 11010110
          317 hmoveto
          -90 callgsubr
          -193 552 -94 callsubr
          -36 callsubr
          vhcurveto
          endchar
        </CharString>
        <CharString name="imacron">
          -273 -73 callgsubr
          76 95 hstemhm
          0 272 -207 186 hintmask 00110000
          552 vmoveto
          272 95 -272 hlineto
          hintmask 11001000
          6 -171 rmoveto
          -88 callgsubr
        </CharString>
        <CharString name="infinity">
          95 103 80 -75 29 166 78 -35 31 hstemhm
          60 31 499 35 hintmask 00000000
          hintmask 10011100
          625 249 rmoveto
          85 -52 43 -67 -54 -49 -20 -55 -50 vhcurveto
          hintmask 01101100
          63 -67 -40 16 -52 hhcurveto
          -63 -71 -54 -94 -66 43 -59 75 59 39 36 55 44 hvcurveto
          hintmask 10011100
          -66 59 56 -30 57 hhcurveto
          77 56 65 81 hvcurveto
          -35 13 rmoveto
          -52 -30 -27 -40 -50 -53 55 43 -44 vhcurveto
          42 40 42 23 46 hhcurveto
          65 24 -44 -40 hvcurveto
          hintmask 01101100
          -409 -125 rmoveto
          -62 -28 55 38 46 33 27 35 49 47 -40 -42 45 hvcurveto
          -53 -39 -34 -31 -46 hhcurveto
          endchar
        </CharString>
        <CharString name="integral">
          -101 -211 26 72 98 556 96 76 22 hstemhm
          -38 102 48 147 -74 148 3 154 hintmask 00000000
          hintmask 10111101
          259 597 rmoveto
          80 28 36 47 24 29 -4 -33 -15 -3 -10 -5 -12 vhcurveto
          -40 -3 rlineto
          -54 -14 31 -41 53 hhcurveto
          52 29 35 51 71 -75 37 -71 -155 -77 -108 -131 -73 24 -112 8 -54 hvcurveto
          hintmask 11011010
          15 -107 26 -115 -87 vvcurveto
          -107 -25 -26 -52 -42 -13 37 33 20 vhcurveto
          40 4 rlineto
          54 20 -30 42 -53 hhcurveto
          -56 -32 -37 -52 -71 72 -36 71 160 68 124 133 87 -24 108 -11 75 hvcurveto
          hintmask 10111101
          -15 98 -24 91 92 vvcurveto
          endchar
        </CharString>
        <CharString name="iogonek">
          -273 9 callgsubr
          -68 callgsubr
          hstemhm
          26 120 -81 -33 callgsubr
          hintmask 11101000
          12 callgsubr
          168 vlineto
          -42 -26 rlineto
          hintmask 11110000
          -92 -56 -18 -32 -99 callsubr
          65 17 45 45 37 hvcurveto
          hintmask 11101000
          99 18 -56 458 hlineto
          -201 162 -94 callsubr
          -36 callsubr
          vhcurveto
          endchar
        </CharString>
        <CharString name="itilde">
          -273 -73 callgsubr
          72 16 callsubr
          -16 333 -252 -33 callgsubr
          hintmask 00101000
          205 548 rmoveto
          hintmask 00011000
          -37 callgsubr
          hintmask 00101000
          -39 -13 -25 -3 -20 hhcurveto
          hintmask 00011000
          -37 -58 40 -50 hhcurveto
          -64 -26 -58 -83 callgsubr
          hintmask 00101000
          41 59 -40 54 hhcurveto
          hintmask 11000100
          -199 -72 rmoveto
          -88 callgsubr
        </CharString>
        <CharString name="j">
          -279 -12 callgsubr
          507 18 hstem
          -150 116 99 186 vstem
          251 -16 callsubr
          -90 callgsubr
          -193 552 -94 callsubr
          -36 callsubr
          vhcurveto
          endchar
        </CharString>
        <CharString name="j.calt">
          -279 -229 -21 708 15 callgsubr
          251 -16 callsubr
          -252 -18 66 -501 hlineto
          -136 -50 -44 -66 -10 vhcurveto
          1 -17 rlineto
          250 -1 51 107 179 vvcurveto
          -199 603 -94 callsubr
          -36 callsubr
          vhcurveto
          endchar
        </CharString>
        <CharString name="jcircumflex">
          -284 -12 callgsubr
          507 18 47 215 hstemhm
          -150 116 32 273 -206 186 hintmask 11101010
          251 -16 callsubr
          -90 callgsubr
          hintmask 00010100
          -253 446 -67 callsubr
        </CharString>
        <CharString name="k">
          30 -73 callgsubr
          256 10 callgsubr
          147 197 vstem
          -71 callsubr
          485 -245 -18 59 -714 -46 callgsubr
          endchar
        </CharString>
        <CharString name="kcommaaccent">
          30 -33 callsubr
          54 -68 callgsubr
          256 18 -44 callsubr
          76 50 21 197 hintmask 01111010
          -71 callsubr
          485 -245 -18 59 -714 -46 callgsubr
          hintmask 10000100
          -62 -308 -107 callsubr
        </CharString>
        <CharString name="kgreenlandic">
          30 0 18 440 10 callgsubr
          147 197 vstem
          -71 callsubr
          211 -245 -18 59 -440 -46 callgsubr
          endchar
        </CharString>
        <CharString name="l">
          -274 0 18 714 15 callgsubr
          -72 callgsubr
          endchar
        </CharString>
        <CharString name="lacute">
          -274 0 18 714 18 20 6 callgsubr
          51 211 -197 186 hintmask 11001000
          -72 callgsubr
          hintmask 00110000
          -200 30 -106 callgsubr
          endchar
        </CharString>
        <CharString name="lcaron">
          -205 0 18 691 -20 43 18 10 -20 -44 callsubr
          73 94 hintmask 10101000
          -72 callgsubr
          hintmask 01010100
          43 -229 -89 callgsubr
        </CharString>
        <CharString name="lcommaaccent">
          -274 -291 236 55 18 714 18 -44 callsubr
          -73 50 hintmask 01110000
          -72 callgsubr
          hintmask 10001000
          -125 -1041 -107 callsubr
        </CharString>
        <CharString name="ldot">
          -153 0 18 300 186 228 18 -44 callsubr
          25 201 hintmask 10110000
          -72 callgsubr
          hintmask 01001000
          25 -339 -19 callgsubr
        </CharString>
        <CharString name="less">
          21 callsubr
          491 -26 callgsubr
        </CharString>
        <CharString name="lessequal">
          -60 0 33 -9 callgsubr
          hmoveto
          33 -454 -33 vlineto
          453 -26 callgsubr
        </CharString>
        <CharString name="logicalnot">
          -60 301 33 hstem
          457 35 vstem
          457 167 rmoveto
          35 167 -454 -33 419 hlineto
          endchar
        </CharString>
        <CharString name="longs">
          -77 callgsubr
          618 -34 callsubr
        </CharString>
        <CharString name="lozenge">
          -115 -12 644 hstem
          35 405 vstem
          440 310 rmoveto
          -202 322 -203 -322 203 -322 rlineto
          163 321 rmoveto
          -160 -265 -169 268 165 262 rlineto
          endchar
        </CharString>
        <CharString name="lslash">
          -268 0 18 469 -20 265 15 callgsubr
          6 750 rmoveto
          -18 59 -354 vlineto
          -73 -36 6 -20 67 33 rlineto
          -337 -74 callgsubr
          412 vlineto
          72 38 -6 19 -66 -34 rlineto
          297 vlineto
          endchar
        </CharString>
        <CharString name="m">
          298 0 -14 callsubr
          102 186 102 186 cntrmask 00011100
          hintmask 00000000
          hintmask 10111100
          10 -16 callsubr
          15 callsubr
          277 18 -36 276 vlineto
          hintmask 11011100
          81 36 63 37 19 callsubr
          257 18 -36 282 vlineto
          84 37 54 36 19 callsubr
          277 18 -56 301 vlineto
          121 -60 46 -87 -90 -41 -58 -50 -16 vhcurveto
          77 -17 -53 31 -71 hhcurveto
          -92 -33 -52 -50 -16 hvcurveto
          hintmask 10111100
          92 vlineto
          endchar
        </CharString>
        <CharString name="macron">
          -23 callgsubr
        </CharString>
        <CharString name="macron.cap">
          770 97 hstem
          114 272 vstem
          114 770 -42 callgsubr
        </CharString>
        <CharString name="minus">
          -60 301 33 -9 callgsubr
          301 -1 callsubr
          endchar
        </CharString>
        <CharString name="mu">
          83 -11 50 -49 52 hstemhm
          80 188 118 177 69 15 hintmask 00000000
          hintmask 10111000
          -43 callgsubr
          -76 36 42 -9 39 hhcurveto
          59 46 44 56 20 hvcurveto
          hintmask 01111000
          -56 12 42 -43 79 hhcurveto
          86 37 34 120 5 hvcurveto
          -15 1 rlineto
          -37 callsubr
          -6 callsubr
          hintmask 10111000
          -91 -42 -51 -36 -41 1 53 66 vhcurveto
          endchar
        </CharString>
        <CharString name="multiply">
          -60 487 -20 hstem
          92 345 vstem
          437 464 rmoveto
          -24 24 -149 -149 -148 148 -23 -24 147 -148 -148 -148 24 -24 148 148 147 -147 24 23 -148 148 rlineto
          endchar
        </CharString>
        <CharString name="n">
          -29 callsubr
          -28 18 hstemhm
          67 186 118 -33 callgsubr
          hintmask 10111000
          12 -80 callgsubr
          hintmask 11011000
          -102 callgsubr
          hintmask 10111000
          92 vlineto
          endchar
        </CharString>
        <CharString name="nacute">
          -29 callsubr
          -28 18 64 210 -44 callsubr
          5 174 -61 -33 callgsubr
          hintmask 10101010
          10 -80 callgsubr
          hintmask 11001010
          -102 callgsubr
          hintmask 10101010
          92 vlineto
          hintmask 00010100
          5 71 -98 callgsubr
          endchar
        </CharString>
        <CharString name="napostrophe">
          77 -24 callgsubr
          -38 230 -220 18 hstemhm
          41 44 31 186 118 -33 callgsubr
          hintmask 10010110
          61 -80 callgsubr
          hintmask 11000110
          -102 callgsubr
          hintmask 10010110
          92 vlineto
          hintmask 00101000
          -313 -28 -50 callgsubr
        </CharString>
        <CharString name="ncaron">
          -29 callsubr
          -28 18 52 215 -44 callsubr
          -75 273 -80 -33 callgsubr
          hintmask 10101010
          10 -80 callgsubr
          hintmask 11001010
          -102 callgsubr
          hintmask 10101010
          92 vlineto
          hintmask 00010100
          198 258 -67 callgsubr
        </CharString>
        <CharString name="ncommaaccent">
          26 -33 callsubr
          54 -14 callsubr
          81 50 -13 -33 callgsubr
          hintmask 01011010
          10 -80 callgsubr
          hintmask 01101010
          -102 callgsubr
          hintmask 01011010
          92 vlineto
          hintmask 10000100
          29 -766 -107 callsubr
        </CharString>
        <CharString name="nine">
          26 -10 20 99 124 23 33 401 21 hstemhm
          23 196 -178 177 167 199 hintmask 00000000
          hintmask 10111010
          584 393 rmoveto
          224 -106 94 -172 -152 -131 -68 -170 -138 89 -79 117 81 47 34 47 30 vhcurveto
          -247 -2 -40 -80 -87 hhcurveto
          hintmask 11110110
          -60 -25 32 31 8 2 17 5 11 hvcurveto
          30 hlineto
          5 14 31 callgsubr
          -35 31 -50 -61 -31 -50 -49 -84 82 -60 142 vhcurveto
          hintmask 10111010
          198 121 142 261 hvcurveto
          -206 -13 rmoveto
          -49 -13 -31 -42 -46 hhcurveto
          -66 -3 56 140 122 4 83 84 77 1 -77 -135 -43 0 -26 -7 -29 hvcurveto
          endchar
        </CharString>
        <CharString name="notequal">
          -60 190 33 123 33 101 -20 -9 callgsubr
          190 rmoveto
          33 -259 vlineto
          105 123 rlineto
          154 33 -126 hlineto
          70 82 -24 19 -85 -101 rlineto
          -289 -33 261 hlineto
          -104 -123 rlineto
          -157 -33 129 hlineto
          -93 -111 21 -19 110 130 rlineto
          endchar
        </CharString>
        <CharString name="ntilde">
          -29 callsubr
          -28 18 87 16 callsubr
          65 186 -103 333 -112 -33 callgsubr
          hintmask 10100101
          10 -80 callgsubr
          hintmask 11000101
          -102 callgsubr
          hintmask 10100101
          92 vlineto
          hintmask 00000000
          118 87 rmoveto
          hintmask 00010010
          -37 callgsubr
          hintmask 00001010
          -39 -13 -25 -3 -20 hhcurveto
          hintmask 00010010
          -37 -58 40 -50 hhcurveto
          -64 -26 -58 -83 callgsubr
          hintmask 00001010
          -52 callsubr
        </CharString>
        <CharString name="numbersign">
          18 21 -21 169 92 146 93 hstem
          45 521 vstem
          163 hmoveto
          28 169 rlineto
          174 hlineto
          -28 -169 rlineto
          25 hlineto
          28 169 rlineto
          124 hlineto
          14 92 rlineto
          -126 hlineto
          24 146 rlineto
          126 hlineto
          14 93 rlineto
          -128 7 callsubr
          -172 7 callsubr
          -117 hlineto
          -15 -93 rlineto
          120 hlineto
          -26 -146 rlineto
          -117 hlineto
          -16 -92 rlineto
          120 hlineto
          -27 -169 rlineto
          263 407 rmoveto
          -24 -146 rlineto
          -174 hlineto
          26 146 rlineto
          endchar
        </CharString>
        <CharString name="o">
          14 callgsubr
          hstem
          18 192 123 192 vstem
          -87 callsubr
          endchar
        </CharString>
        <CharString name="oacute">
          14 callgsubr
          54 210 hstemhm
          18 192 -5 174 -46 192 hintmask 11010100
          -87 callsubr
          hintmask 00101000
          187 311 -98 callgsubr
          endchar
        </CharString>
        <CharString name="obreve">
          -47 24 15 111 198 endchar
        </CharString>
        <CharString name="ocircumflex">
          -47 20 0 111 18 callsubr
        </CharString>
        <CharString name="odieresis">
          -47 5 15 111 200 endchar
        </CharString>
        <CharString name="oe">
          242 -10 18 -18 31 237 20 190 18 hstemhm
          15 193 131 185 104 178 hintmask 00000000
          hintmask 10111110
          15 236 rmoveto
          -156 85 -90 160 82 49 27 43 41 vhcurveto
          -39 33 57 -31 87 hhcurveto
          122 52 66 86 23 hvcurveto
          -18 3 rlineto
          hintmask 01111110
          -71 callgsubr
          -139 hhcurveto
          -75 -53 -27 -43 -40 hvcurveto
          43 -35 -55 27 -75 hhcurveto
          hintmask 10111110
          -165 -93 -86 -164 hvcurveto
          324 -39 rmoveto
          -130 -7 -59 -57 -61 -6 75 116 vhcurveto
          78 vlineto
          113 7 78 61 56 7 -78 -108 vhcurveto
          186 -4 -56 callgsubr
          -49 vlineto
          endchar
        </CharString>
        <CharString name="ogonek">
          -251 41 hstem
          117 120 vstem
          286 10 rmoveto
          -59 -36 rlineto
          -92 -56 -18 -32 -31 callsubr
          19 46 50 38 hvcurveto
          -7 6 rlineto
          endchar
        </CharString>
        <CharString name="ogonek.cap">
          -251 41 hstem
          117 120 vstem
          286 10 rmoveto
          -59 -36 rlineto
          -92 -56 -18 -32 -31 callsubr
          19 46 50 38 hvcurveto
          -7 6 rlineto
          endchar
        </CharString>
        <CharString name="ograve">
          -47 34 15 111 193 endchar
        </CharString>
        <CharString name="ohungarumlaut">
          -47 67 15 111 205 endchar
        </CharString>
        <CharString name="omacron">
          -47 24 15 111 197 endchar
        </CharString>
        <CharString name="one">
          -165 0 19 692 -20 hstem
          127 195 vstem
          127 674 rmoveto
          -655 -105 -19 378 19 -78 692 -81 vlineto
          -226 -31 2 -20 rlineto
          endchar
        </CharString>
        <CharString name="onehalf">
          230 0 84 -84 102 -81 -21 270 79 -75 19 118 18 271 -20 hstemhm
          107 141 -20 355 -114 85 95 125 hintmask 0010001010000000
          228 -46 callsubr
          hintmask 0000100100000000
          -442 -29 -48 callsubr
          -53 callgsubr
          579 -234 -41 callgsubr
          hintmask 0101010001100000
          22 callgsubr
          hintmask 1001010001100000
          -49 callsubr
        </CharString>
        <CharString name="onequarter">
          26 callgsubr
          152 19 67 60 280 -20 hstemhm
          118 141 -20 355 -13 134 62 19 hintmask 0100010100000000
          239 -46 callsubr
          hintmask 0001001000000000
          -442 -29 -48 callsubr
          hintmask 1010100011000000
          477 -663 -78 callgsubr
          endchar
        </CharString>
        <CharString name="onesuperior">
          -165 394 19 hstem
          160 141 vstem
          160 791 -48 callsubr
          endchar
        </CharString>
        <CharString name="ordfeminine">
          -136 394 32 -32 41 118 15 32 88 45 14 hstemhm
          27 147 -127 135 45 144 51 13 -53 callgsubr
          hintmask 1010110110000000
          205 568 rmoveto
          -110 -68 -16 -72 -71 61 -15 54 54 22 18 35 12 hvcurveto
          hintmask 0111101110000000
          -35 10 34 -18 63 hhcurveto
          66 29 24 85 3 hvcurveto
          -13 2 rlineto
          -60 -4 -11 -10 -14 hhcurveto
          -13 -9 8 29 hvcurveto
          140 vlineto
          104 -41 31 -121 -105 -57 -28 -60 -35 19 -24 48 38 30 22 34 13 -3 10 -3 9 vhcurveto
          -20 hlineto
          -3 8 -1 7 5 vvcurveto
          23 22 2 14 31 8 -20 -90 vhcurveto
          -55 vlineto
          hintmask 1010110110000000
          -33 -142 rmoveto
          -15 -5 9 46 hvcurveto
          11 vlineto
          44 15 17 33 vhcurveto
          5 -62 hlineto
          -42 -18 -23 -15 vhcurveto
          endchar
        </CharString>
        <CharString name="ordmasculine">
          -101 394 17 318 18 hstem
          46 148 101 148 vstem
          295 541 rmoveto
          -92 -5 -38 -44 -47 -5 49 82 vhcurveto
          56 vlineto
          80 6 51 47 43 5 -51 -77 vhcurveto
          -249 -32 rmoveto
          -111 65 -64 133 137 62 65 116 115 -65 57 -129 -132 -71 -62 -116 vhcurveto
          endchar
        </CharString>
        <CharString name="oslash">
          13 callsubr
          hstemhm
          15 193 131 192 hintmask 00000000
          hintmask 10101100
          15 236 rmoveto
          hintmask 01101100
          -4 callgsubr
          hintmask 10011100
          -32 callsubr
          hintmask 10101100
          -75 callsubr
          endchar
        </CharString>
        <CharString name="oslashacute">
          13 callsubr
          79 210 hstemhm
          15 193 -3 174 -40 192 hintmask 00000000
          hintmask 10100101
          15 236 rmoveto
          hintmask 01100101
          -4 callgsubr
          hintmask 10010101
          -32 callsubr
          hintmask 10100101
          -75 callsubr
          hintmask 00001010
          -3 348 -98 callgsubr
          endchar
        </CharString>
        <CharString name="otilde">
          14 callgsubr
          77 16 callsubr
          18 192 -93 333 -117 192 hintmask 11001010
          -87 callsubr
          hintmask 00000000
          320 327 rmoveto
          hintmask 00100100
          -37 callgsubr
          hintmask 00010100
          -39 -13 -25 -3 -20 hhcurveto
          hintmask 00100100
          -37 -58 40 -50 hhcurveto
          -64 -26 -58 -83 callgsubr
          hintmask 00010100
          -52 callsubr
        </CharString>
        <CharString name="p">
          -2 -220 210 -61 callgsubr
          -44 -21 49 54 vhcurveto
          183 vlineto
          87 37 51 41 vhcurveto
          -80 33 rmoveto
          -237 -18 53 -678 -30 callgsubr
          -112 -78 -38 -39 -50 -22 hvcurveto
          endchar
        </CharString>
        <CharString name="paragraph">
          38 -250 19 83 119 710 19 hstem
          117 120 140 30 97 29 vstem
          377 -82 rmoveto
          -115 -34 -34 -55 -46 -21 34 49 30 vhcurveto
          29 hlineto
          3 12 3 16 14 vvcurveto
          43 -24 34 -53 -50 -42 -34 -60 -51 30 -76 138 160 88 72 165 vhcurveto
          694 65 19 -227 vlineto
          -196 -100 -112 -152 -164 98 -97 185 hvcurveto
          19 hlineto
          30 -268 rmoveto
          774 97 -685 vlineto
          -93 -23 -96 -112 -25 vhcurveto
          29 26 9 48 51 vvcurveto
          endchar
        </CharString>
        <CharString name="parenleft">
          -239 -158 21 895 20 hstem
          50 201 vstem
          50 306 rmoveto
          -219 101 -243 220 -2 vhcurveto
          21 vlineto
          -109 5 -11 108 183 vvcurveto
          287 vlineto
          200 7 107 113 5 vhcurveto
          20 vlineto
          -212 -7 -109 -241 -224 vvcurveto
          endchar
        </CharString>
        <CharString name="parenright">
          -239 -139 -20 936 -21 hstem
          100 201 vstem
          301 313 rmoveto
          219 -101 243 -220 2 vhcurveto
          -21 vlineto
          109 -5 11 -108 -183 vvcurveto
          -287 vlineto
          -200 -7 -107 -113 -5 vhcurveto
          -20 vlineto
          212 7 109 241 224 vvcurveto
          endchar
        </CharString>
        <CharString name="partialdiff">
          14 -11 21 376 26 55 104 83 17 hstemhm
          28 167 -81 149 143 153 hintmask 00000000
          hintmask 11011010
          303 671 rmoveto
          hintmask 11110110
          -129 -60 -55 -71 -40 27 -38 50 41 31 26 39 16 -3 11 -4 12 hvcurveto
          -20 hlineto
          -4 9 -1 15 6 vvcurveto
          26 7 27 49 73 46 -60 -133 -51 -8 -35 -10 -53 vhcurveto
          68 -17 -54 22 -65 hhcurveto
          hintmask 11011010
          -159 -65 -113 -114 -126 73 -70 138 220 100 209 194 191 -121 88 -135 hvcurveto
          -285 vmoveto
          46 12 -40 -48 -146 -43 -142 -66 -45 -12 36 72 77 14 191 94 hvcurveto
          endchar
        </CharString>
        <CharString name="percent">
          178 -10 16 15 -21 312 16 45 16 306 16 -11 -20 hstemhm
          30 0 callgsubr
          25 0 callgsubr
          -53 callgsubr
          hintmask 1011101111000000
          399 154 12 callsubr
          108 -64 58 -105 -107 -68 -74 -100 vhcurveto
          123 1 rmoveto
          -11 callsubr
          -368 -155 rmoveto
          41 hlineto
          hintmask 1011101101000000
          420 700 rlineto
          -40 hlineto
          hintmask 1011101111000000
          -545 -163 12 callsubr
          vhcurveto
          hintmask 1011101101000000
          108 -64 58 -105 -107 -68 -74 -100 vhcurveto
          hintmask 1011101111000000
          123 1 rmoveto
          hintmask 0111011101000000
          -11 callsubr
          endchar
        </CharString>
        <CharString name="period">
          -325 -10 174 hstem
          45 175 vstem
          45 76 rmoveto
          -76 callgsubr
          -56 -30 -39 -49 vhcurveto
          endchar
        </CharString>
        <CharString name="periodcentered">
          -47 callsubr
        </CharString>
        <CharString name="perthousand">
          487 -10 16 15 -21 286 16 97 16 280 16 -11 -20 hstemhm
          30 0 callgsubr
          -44 0 callgsubr
          34 0 callgsubr
          -53 callgsubr
          hintmask 1011101101110000
          708 142 -54 callgsubr
          hintmask 1011101011000000
          -501 -1 -54 callgsubr
          -423 408 rmoveto
          -91 63 -61 108 vhcurveto
          hintmask 0001100100000000
          90 83 53 107 108 -73 44 -96 hvcurveto
          hintmask 1011101011000000
          -101 -74 -60 -100 hvcurveto
          123 1 rmoveto
          104 0 39 51 vhcurveto
          hintmask 0001100100000000
          47 1 -38 -100 -94 0 -48 -49 hvcurveto
          hintmask 1011101011000000
          -50 0 42 95 hvcurveto
          hintmask 0100011000000000
          -50 -552 rmoveto
          41 hlineto
          450 700 rlineto
          -40 hlineto
          endchar
        </CharString>
        <CharString name="pi">
          37 -11 106 268 141 -123 140 hstemhm
          203 21 137 46 hintmask 00000000
          hintmask 11010000
          461 363 rmoveto
          67 26 63 115 23 hvcurveto
          -18 6 rlineto
          -34 -14 -12 -9 -23 hhcurveto
          hintmask 10110000
          -52 -238 17 -51 hhcurveto
          -58 -31 -71 -106 -19 hvcurveto
          18 -7 rlineto
          36 18 13 8 29 6 44 -3 14 hhcurveto
          -8 -142 -31 -35 -51 -66 rrcurveto
          -32 -42 -10 -15 -28 vvcurveto
          -31 22 -30 42 33 33 18 69 13 vhcurveto
          hintmask 11011000
          11 62 0 87 -1 151 171 -11 rcurveline
          -19 -139 -15 -31 -78 vvcurveto
          -71 20 -57 75 73 42 91 78 12 vhcurveto
          -15 4 rlineto
          -48 -13 -25 -19 -38 hhcurveto
          -68 -17 83 43 52 2 25 8 65 hvcurveto
          endchar
        </CharString>
        <CharString name="plus">
          -60 301 33 hstem
          243 38 vstem
          492 301 rmoveto
          33 -211 196 -38 -196 -205 -33 205 -209 38 209 vlineto
          endchar
        </CharString>
        <CharString name="plusminus">
          -60 0 33 268 33 hstemhm
          38 454 -250 38 hintmask 01010000
          492 301 rmoveto
          33 -212 176 -38 -176 -204 -33 204 -189 38 189 vlineto
          hintmask 10100000
          212 -301 -1 callsubr
          endchar
        </CharString>
        <CharString name="product">
          196 -151 20 813 18 hstem
          99 194 199 195 vstem
          20 -64 callsubr
          -19 79 -812 -79 -20 332 20 -59 812 199 -812 -59 -20 333 20 -79 813 79 18 vlineto
          endchar
        </CharString>
        <CharString name="q">
          -2 -220 210 hstem
          213 124 vstem
          259 33 rmoveto
          -34 -12 33 141 hvcurveto
          52 vlineto
          138 10 60 48 43 23 -48 -55 vhcurveto
          -186 vlineto
          -87 -37 -48 -41 vhcurveto
          78 -253 rmoveto
          -102 -18 337 18 -49 678 55 18 -228 hlineto
          -7 -53 rlineto
          46 -25 -38 17 -54 hhcurveto
          -136 -70 -76 -171 -170 69 -79 113 77 36 36 50 22 hvcurveto
          endchar
        </CharString>
        <CharString name="question">
          -10 -10 151 324 123 104 19 hstemhm
          58 177 -61 152 -88 25 99 152 hintmask 00000000
          hintmask 11100110
          286 711 rmoveto
          hintmask 11110010
          -155 -73 -72 -81 -30 callsubr
          -32 hlineto
          -4 11 -2 10 8 vvcurveto
          32 19 43 64 61 29 -34 -63 -55 -12 -27 -39 -39 vhcurveto
          hintmask 11100110
          -62 -63 rlineto
          -8 -8 -3 -8 -12 vvcurveto
          -210 25 58 vlineto
          151 134 rlineto
          52 47 48 54 79 vvcurveto
          110 -84 56 -144 vhcurveto
          hintmask 11101010
          -112 -646 -18 callsubr
        </CharString>
        <CharString name="questiondown">
          -10 -235 19 104 123 324 151 hstemhm
          70 152 36 152 -89 25 3 177 30 callgsubr
          298 -235 rmoveto
          hintmask 11110010
          155 73 72 81 49 -27 44 -62 -50 -38 -31 -47 -19 3 -13 5 -13 hvcurveto
          32 hlineto
          4 -11 2 -10 -8 vvcurveto
          -32 -19 -43 -64 -61 -29 34 63 55 12 27 39 39 vhcurveto
          hintmask 11110100
          62 63 rlineto
          8 8 3 8 12 vvcurveto
          210 -25 -58 vlineto
          -151 -134 rlineto
          -52 -47 -48 -54 -79 vvcurveto
          -110 84 -56 144 vhcurveto
          hintmask 11111000
          112 646 rmoveto
          37 -19 38 -58 -48 -27 -31 -46 -52 33 -22 44 48 27 34 42 vhcurveto
          endchar
        </CharString>
        <CharString name="quotedbl">
          -256 747 20 hstemhm
          50 99 49 99 hintmask 10100000
          227 481 -59 callgsubr
          hintmask 11000000
          -119 -266 -59 callgsubr
          endchar
        </CharString>
        <CharString name="quotedblbase">
          -145 -147 -6 callgsubr
          -147 -97 callsubr
          hintmask 11100000
          -176 -14 -97 callsubr
          endchar
        </CharString>
        <CharString name="quotedblleft">
          -142 479 104 172 -20 hstemhm
          45 48 140 48 hintmask 11010000
          365 755 -75 callgsubr
          hintmask 11100000
          -197 14 -75 callgsubr
          endchar
        </CharString>
        <CharString name="quotedblright">
          -145 452 -6 callgsubr
          452 -97 callsubr
          hintmask 11100000
          -176 -14 -97 callsubr
          endchar
        </CharString>
        <CharString name="quoteleft">
          -330 479 104 172 -20 hstem
          45 48 vstem
          177 755 -75 callgsubr
          endchar
        </CharString>
        <CharString name="quoteright">
          -330 452 13 callgsubr
          452 -97 callsubr
          endchar
        </CharString>
        <CharString name="quotesinglbase">
          -330 -147 13 callgsubr
          -147 -97 callsubr
          endchar
        </CharString>
        <CharString name="quotesingle">
          -404 747 20 hstem
          50 99 vstem
          79 481 -59 callgsubr
          endchar
        </CharString>
        <CharString name="r">
          -95 0 2 callsubr
          72 168 hintmask 00000000
          hintmask 11101100
          -43 callsubr
          hintmask 10011000
          96 -241 15 callsubr
          312 18 -71 268 vlineto
          hintmask 11101100
          90 45 72 48 vhcurveto
          endchar
        </CharString>
        <CharString name="racute">
          -95 40 15 114 194 endchar
        </CharString>
        <CharString name="radical">
          -43 21 -21 479 -20 291 -20 hstem
          14 519 vstem
          533 744 rmoveto
          -30 6 -127 -560 -125 289 -237 -105 11 -24 71 33 179 -383 rlineto
          90 hlineto
          endchar
        </CharString>
        <CharString name="rcaron">
          -95 -3 15 114 207 endchar
        </CharString>
        <CharString name="rcommaaccent">
          -95 -33 callsubr
          54 2 callsubr
          -73 50 95 168 hintmask 00000000
          hintmask 01110101
          -43 callsubr
          hintmask 01001100
          96 -241 15 callsubr
          312 18 -71 268 vlineto
          hintmask 01110101
          90 45 72 48 vhcurveto
          hintmask 10000010
          -218 -738 -107 callsubr
        </CharString>
        <CharString name="registered">
          -131 292 22 70 16 -13 8 87 10 -6 -20 105 8 62 21 hstemhm
          40 26 88 69 23 68 -62 60 29 8 45 25 -53 callgsubr
          hintmask 1010111110011000
          419 480 rmoveto
          110 -73 72 -116 -105 -85 -72 -117 -103 64 -78 125 112 78 76 112 vhcurveto
          -25 -3 rmoveto
          -100 -64 -63 -100 -105 -59 61 99 104 68 63 96 93 71 -59 -105 vhcurveto
          hintmask 1011011110011000
          -168 5 rmoveto
          hintmask 1101011111011000
          17 3 -8 -24 hvcurveto
          -29 vlineto
          -26 15 -11 34 vhcurveto
          hintmask 1100111110011000
          41 9 18 31 4 hvcurveto
          -8 1 rlineto
          -18 -2 -6 -16 -10 hhcurveto
          hintmask 1100111111011000
          -8 -1 5 11 hvcurveto
          23 vlineto
          32 -14 12 -52 3 vhcurveto
          1 vlineto
          hintmask 1010111110111000
          39 3 25 11 33 vvcurveto
          39 -30 6 -46 vhcurveto
          hintmask 1010111110011000
          -104 -8 22 -176 -22 -8 99 8 -8 hlineto
          hintmask 1011011110011000
          87 vlineto
          hintmask 1010111110011000
          89 vmoveto
          5 hlineto
          hintmask 1011011110111000
          22 2 -13 -26 -26 -3 -14 -23 hvcurveto
          -3 hlineto
          endchar
        </CharString>
        <CharString name="revcommaaccent">
          761 -20 hstem
          177 50 vstem
          279 776 -51 callgsubr
        </CharString>
        <CharString name="ring">
          520 -4 callsubr
          617 -98 callsubr
          endchar
        </CharString>
        <CharString name="ring.cap">
          739 -4 callsubr
          836 -98 callsubr
          endchar
        </CharString>
        <CharString name="s">
          -156 -10 22 -3 callsubr
          206 87 -42 12 hintmask 00000000
          hintmask 11100100
          -25 callgsubr
          hintmask 11011000
          -62 callsubr
          hintmask 11010100
          -78 callsubr
          hintmask 11101000
          -47 callgsubr
          endchar
        </CharString>
        <CharString name="sacute">
          -156 -3 15 115 194 endchar
        </CharString>
        <CharString name="scaron">
          -156 -33 15 115 207 endchar
        </CharString>
        <CharString name="scedilla">
          -162 -248 16 159 18 45 22 -19 19 -3 callsubr
          -39 63 70 106 6 87 -42 12 -53 callgsubr
          hintmask 1110110010100000
          33 -10 rmoveto
          12 hlineto
          hintmask 1101110110100000
          28 16 14 9 13 hhcurveto
          4 9 -4 -4 6 hvcurveto
          26 -13 25 -9 28 -4 -36 -61 rcurveline
          -84 callgsubr
          -103 callsubr
          hintmask 1110110010100000
          28 49 rlineto
          -1 5 5 0 6 hhcurveto
          hintmask 1110101001000000
          -62 callsubr
          hintmask 1110101010100000
          -78 callsubr
          hintmask 1110110001000000
          -47 callgsubr
          endchar
        </CharString>
        <CharString name="scircumflex">
          -156 -37 0 115 18 callsubr
        </CharString>
        <CharString name="scommaaccent">
          -156 -33 callsubr
          44 22 -3 callsubr
          119 50 37 87 -42 12 hintmask 00000000
          hintmask 01110001
          -25 callgsubr
          hintmask 01101010
          -62 callsubr
          hintmask 01101001
          -78 callsubr
          hintmask 01110010
          -47 callgsubr
          hintmask 10000100
          155 -459 -107 callsubr
        </CharString>
        <CharString name="section">
          109 -127 19 800 19 hstemhm
          70 185 -146 177 117 177 -146 185 hintmask 00000000
          hintmask 11100100
          70 418 rmoveto
          -203 149 -76 214 -45 vhcurveto
          -117 -3 -20 -85 -95 hhcurveto
          hintmask 11010100
          -57 -22 18 32 15 31 callsubr
          36 8 rlineto
          5 13 31 callgsubr
          -38 31 -50 -62 -27 -44 -49 -84 66 -59 147 152 145 94 199 vhcurveto
          hintmask 11100100
          203 -150 76 -214 45 vhcurveto
          117 4 20 85 95 hhcurveto
          hintmask 11101000
          57 22 -18 -32 -15 -2 -10 -4 -11 hvcurveto
          -36 -8 rlineto
          -5 callgsubr
          -66 59 -147 vhcurveto
          hintmask 11100100
          -152 -145 -94 -199 hvcurveto
          364 -263 rmoveto
          -37 vlineto
          -135 54 -44 95 162 vvcurveto
          36 vlineto
          135 -53 44 -96 -161 vvcurveto
          endchar
        </CharString>
        <CharString name="semicolon">
          -328 -9 331 44 46 endchar
        </CharString>
        <CharString name="seven">
          -80 11 -21 557 153 hstem
          119 155 vstem
          119 88 rmoveto
          -48 39 -50 77 16 26 2 5 20 vhcurveto
          7 12 rlineto
          -19 27 -11 26 37 vvcurveto
          67 9 46 106 186 vhcurveto
          111 194 rlineto
          108 -448 vlineto
          -11 -254 rlineto
          16 hlineto
          88 17 18 13 94 hhcurveto
          256 hlineto
          -165 -191 rlineto
          -140 -162 -18 -46 -60 vvcurveto
          endchar
        </CharString>
        <CharString name="six">
          26 -10 21 401 33 23 124 99 20 hstemhm
          34 199 161 177 -172 196 hintmask 00000000
          hintmask 11011010
          34 308 rmoveto
          -224 106 -94 179 167 109 95 153 138 -89 69 -117 -81 -47 -34 -47 -30 vhcurveto
          247 2 45 80 89 hhcurveto
          hintmask 11111100
          56 17 -27 -36 -8 -2 -17 -4 -11 hvcurveto
          -32 hlineto
          -5 -14 -3 -13 -19 vvcurveto
          -47 37 -31 48 60 32 45 48 85 -71 65 -142 vhcurveto
          hintmask 11011010
          -198 -126 -142 -261 hvcurveto
          206 13 rmoveto
          49 13 31 42 46 hhcurveto
          66 3 -56 -140 -122 -4 -83 -80 -81 -1 77 135 43 0 26 7 29 hvcurveto
          endchar
        </CharString>
        <CharString name="slash">
          -239 -97 892 hstem
          8 335 vstem
          8 -97 rmoveto
          41 hlineto
          294 892 rlineto
          -40 hlineto
          endchar
        </CharString>
        <CharString name="space">
          -410 endchar
        </CharString>
        <CharString name="sterling">
          -9 -19 114 -85 -21 309 28 139 123 104 19 hstemhm
          50 195 112 177 -4 21 hintmask 00000000
          hintmask 01111101
          36 298 rmoveto
          89 hlineto
          14 -30 14 -35 -34 vvcurveto
          -36 -6 -24 -16 -31 vhcurveto
          -64 -1 -44 -33 -41 vvcurveto
          -19 10 -25 39 46 37 28 63 8 vhcurveto
          hintmask 10111101
          152 -72 rlineto
          -19 39 26 -8 38 hhcurveto
          69 58 73 132 6 hvcurveto
          -21 1 rlineto
          -72 -5 -15 -20 -34 -40 -70 65 -64 hhcurveto
          -42 -43 -23 -41 -61 hvcurveto
          -3 5 rlineto
          59 58 33 34 75 vvcurveto
          30 176 28 -176 204 vlineto
          108 5 54 79 vhcurveto
          hintmask 01111110
          56 17 -34 -36 -8 -2 -15 -4 -11 hvcurveto
          -31 hlineto
          -5 callgsubr
          -72 69 -147 -159 -106 -73 -135 -72 33 -55 30 -50 vhcurveto
          -77 hlineto
          endchar
        </CharString>
        <CharString name="summation">
          89 -151 139 683 29 -14 14 hstemhm
          -9 619 hintmask 00000000
          hintmask 11010000
          602 -151 rmoveto
          8 317 rlineto
          -19 hlineto
          -136 -23 -42 -42 -153 hhcurveto
          -230 hlineto
          300 336 -238 347 rlineto
          169 hlineto
          125 39 -37 -122 26 hvcurveto
          19 hlineto
          -8 188 rlineto
          -574 hlineto
          hintmask 10110000
          -10 -14 313 -462 -311 -357 10 -18 rlineto
          endchar
        </CharString>
        <CharString name="t">
          -196 -10 18 callgsubr
          hstem
          60 14 callsubr
          -82 callsubr
          endchar
        </CharString>
        <CharString name="t_t">
          126 -10 18 callgsubr
          hstem
          50 186 146 14 callsubr
          50 143 rmoveto
          -124 75 -29 100 98 45 43 55 20 vhcurveto
          -78 19 62 -20 83 hhcurveto
          -21 callgsubr
          hvcurveto
          -38 callsubr
          -35 -9 32 59 hvcurveto
          337 130 18 -130 175 vlineto
          -186 -46 rlineto
          -129 -146 175 vlineto
          -186 -46 rlineto
          -129 -55 -18 55 vlineto
          332 -315 rmoveto
          -69 -9 -35 -44 -44 hhcurveto
          -48 -10 32 59 hvcurveto
          337 146 vlineto
          endchar
        </CharString>
        <CharString name="tbar">
          -206 -10 40 257 21 150 18 hstem
          50 14 callsubr
          -5 287 rmoveto
          55 -144 hlineto
          -124 71 -29 99 -21 callgsubr
          vhcurveto
          -38 callsubr
          -35 -9 32 59 hvcurveto
          166 130 21 -130 150 130 18 -130 175 vlineto
          -186 -46 rlineto
          -129 -55 -18 55 -150 -55 vlineto
          endchar
        </CharString>
        <CharString name="tcaron">
          -196 -10 18 callgsubr
          226 -20 71 -20 5 callgsubr
          69 94 -32 17 hintmask 11001010
          -82 callsubr
          hintmask 00110100
          225 56 -89 callgsubr
        </CharString>
        <CharString name="thorn">
          -2 -220 210 -61 callgsubr
          -42 -23 49 54 vhcurveto
          186 vlineto
          87 37 48 41 vhcurveto
          -264 -663 rmoveto
          -30 callgsubr
          25 callgsubr
          350 -235 -18 49 vlineto
          endchar
        </CharString>
        <CharString name="three">
          -17 -10 20 104 123 117 22 89 123 105 18 hstemhm
          30 177 -165 177 101 188 -160 195 -53 callgsubr
          hintmask 1011101100000000
          273 711 rmoveto
          -154 -77 -69 -84 -30 callsubr
          -29 hlineto
          -4 11 -2 10 8 vvcurveto
          32 16 44 54 58 16 -56 -87 -133 -26 -29 -117 -12 vhcurveto
          3 -22 rlineto
          hintmask 1010101010000000
          40 4 15 2 32 7 rrcurveto
          49 -24 32 -41 -107 vvcurveto
          -116 -18 -69 -84 vhcurveto
          hintmask 1100110010000000
          -74 -10 44 27 12 31 callsubr
          31 hlineto
          5 13 31 callgsubr
          -36 31 -50 -62 -29 -44 -52 -119 124 -32 96 186 107 82 126 99 -69 74 -173 12 vhcurveto
          2 vlineto
          hintmask 1000110100000000
          133 22 74 58 87 vvcurveto
          hintmask 1011101100000000
          98 -61 61 -174 vhcurveto
          endchar
        </CharString>
        <CharString name="threequarters">
          26 callgsubr
          144 16 57 76 -55 60 60 18 52 76 58 15 1 -20 hstemhm
          28 11 callsubr
          -96 355 -13 134 62 19 hintmask 010000000100001000000000
          254 -46 callsubr
          hintmask 101001000000000110000000
          -37 -700 -78 callgsubr
          hintmask 000000000000000000000000
          -414 577 -61 callsubr
          hintmask 000100111001100000000000
          -15 callsubr
          hintmask 000100101001010000000000
          -58 callgsubr
          hintmask 000110101010010000000000
          82 13 46 35 52 vvcurveto
          hintmask 000100101010100000000000
          28 callsubr
        </CharString>
        <CharString name="threesuperior">
          -168 386 16 57 76 65 18 52 76 58 15 hstemhm
          49 11 callsubr
          -53 callgsubr
          hintmask 1011101100000000
          203 819 -61 callsubr
          hintmask 1010101010000000
          -15 callsubr
          hintmask 1110110010000000
          -58 callgsubr
          hintmask 1010110100000000
          82 13 46 35 52 vvcurveto
          hintmask 1011101100000000
          28 callsubr
        </CharString>
        <CharString name="tilde">
          548 16 callsubr
          89 333 29 callsubr
          310 548 rmoveto
          hintmask 01100000
          -37 callgsubr
          hintmask 10100000
          -39 -13 -25 -3 -20 hhcurveto
          hintmask 01100000
          -37 -58 40 -50 hhcurveto
          -64 -26 -58 -83 callgsubr
          hintmask 10100000
          -52 callsubr
        </CharString>
        <CharString name="tilde.cap">
          752 -12 callsubr
          89 323 4 callgsubr
          310 752 -77 callsubr
          hintmask 01110000
          -37 -58 40 -50 hhcurveto
          -64 -16 -50 -83 callgsubr
          hintmask 10010000
          -52 callsubr
        </CharString>
        <CharString name="trademark">
          344 278 15 -15 17 336 17 hstemhm
          159 127 164 21 270 123 hintmask 00000000
          hintmask 01111100
          379 648 rmoveto
          -313 hlineto
          -7 -124 rlineto
          13 hlineto
          30 67 37 34 20 9 rrcurveto
          -339 -52 -17 230 17 -51 339 vlineto
          23 -7 34 -38 29 -65 rrcurveto
          13 hlineto
          343 124 rmoveto
          -64 -228 -67 228 rlineto
          -181 -17 34 hlineto
          hintmask 10111100
          -338 -34 -15 99 15 -44 330 vlineto
          107 -345 rlineto
          64 hlineto
          99 352 rlineto
          -337 -39 -15 202 15 -40 338 40 17 vlineto
          endchar
        </CharString>
        <CharString name="two">
          -38 0 153 312 123 104 19 hstem
          35 177 120 176 vstem
          266 711 rmoveto
          -162 -69 -69 -84 -30 callsubr
          -30 hlineto
          -4 11 -2 10 8 vvcurveto
          32 17 43 59 69 19 -43 -99 -140 -60 -83 -129 -118 vhcurveto
          -101 -93 rlineto
          -116 470 vlineto
          10 277 rlineto
          -17 hlineto
          -77 -15 -26 -47 -98 hhcurveto
          -240 hlineto
          61 44 rlineto
          244 176 77 50 116 vvcurveto
          117 -89 55 -153 vhcurveto
          endchar
        </CharString>
        <CharString name="twosuperior">
          -173 394 84 -84 102 168 79 62 18 hstemhm
          50 85 95 125 hintmask 00000000
          hintmask 01111100
          195 823 -41 callgsubr
          hintmask 10111100
          22 callgsubr
          hintmask 01111100
          -49 callsubr
        </CharString>
        <CharString name="u">
          15 -10 45 -35 -68 callgsubr
          5 callgsubr
          108 -33 callgsubr
          hintmask 01111000
          -50 callsubr
          hintmask 10111000
          -79 callgsubr
          hintmask 01111000
          11 -73 rlineto
          endchar
        </CharString>
        <CharString name="uacute">
          15 -10 45 -35 -68 callgsubr
          64 210 5 callgsubr
          -23 174 -43 -33 callgsubr
          hintmask 01101010
          -50 callsubr
          hintmask 10101010
          -79 callgsubr
          hintmask 01101010
          11 -73 rlineto
          hintmask 00010100
          -144 547 -98 callgsubr
          endchar
        </CharString>
        <CharString name="ubreve">
          15 42 15 117 198 endchar
        </CharString>
        <CharString name="ucircumflex">
          15 38 0 117 18 callsubr
        </CharString>
        <CharString name="udieresis">
          15 -10 45 -35 -68 callgsubr
          82 148 5 callgsubr
          24 44 40 -33 callgsubr
          hintmask 01101010
          -50 callsubr
          hintmask 10101010
          -79 callgsubr
          hintmask 01101010
          11 -73 rlineto
          -53 633 -85 callsubr
          hintmask 00010100
          -101 callgsubr
        </CharString>
        <CharString name="ugrave">
          15 43 15 117 193 endchar
        </CharString>
        <CharString name="uhungarumlaut">
          15 85 15 117 205 endchar
        </CharString>
        <CharString name="umacron">
          15 42 15 117 197 endchar
        </CharString>
        <CharString name="underscore">
          -106 37 hstem
          0 500 vstem
          500 -106 rmoveto
          37 -500 -37 vlineto
          endchar
        </CharString>
        <CharString name="uni00A0">
          -410 endchar
        </CharString>
        <CharString name="uni00AD">
          -250 278 30 hstem
          47 252 vstem
          47 278 -5 callsubr
        </CharString>
        <CharString name="uni0162">
          93 -13 callsubr
          52 21 658 21 hstemhm
          223 63 -42 195 -83 106 30 callgsubr
          636 -64 callsubr
          -590 hlineto
          -10 -251 rlineto
          19 hlineto
          155 51 34 75 91 hhcurveto
          13 -658 -85 -21 171 hlineto
          -39 -65 -84 callgsubr
          hvcurveto
          hintmask 11111010
          -103 callsubr
          hintmask 11110100
          32 55 rlineto
          168 21 -85 658 12 hlineto
          91 31 -67 -163 54 hvcurveto
          19 hlineto
          endchar
        </CharString>
        <CharString name="uni0163">
          -206 -13 callsubr
          42 18 callgsubr
          hstemhm
          50 186 -150 63 70 106 42 17 hintmask 00000000
          hintmask 11111001
          50 143 rmoveto
          -110 56 -35 82 -7 vhcurveto
          hintmask 11110111
          -34 -56 -84 callgsubr
          -103 callsubr
          26 45 rlineto
          7 hlineto
          -21 callgsubr
          hvcurveto
          -38 callsubr
          hintmask 11111001
          -35 -9 32 59 hvcurveto
          337 130 18 -130 175 vlineto
          -186 -46 rlineto
          -129 -55 -18 55 vlineto
          endchar
        </CharString>
        <CharString name="uni021A">
          93 -33 callsubr
          54 21 658 21 hstemhm
          244 195 -74 50 hintmask 01110000
          -80 callsubr
          hintmask 10001000
          -333 -739 -107 callsubr
        </CharString>
        <CharString name="uni021B">
          -196 -33 callsubr
          44 18 callgsubr
          5 callgsubr
          3 50 78 17 hintmask 01110100
          -82 callsubr
          hintmask 10001000
          137 -748 -107 callsubr
        </CharString>
        <CharString name="uni02C9">
          -23 callgsubr
        </CharString>
        <CharString name="uni0394">
          -51 callsubr
        </CharString>
        <CharString name="uni03A9">
          -90 callsubr
        </CharString>
        <CharString name="uni03BC">
          83 -11 50 -49 52 -42 43 409 48 hstemhm
          80 188 -158 95 181 177 -137 95 111 15 hintmask 0011100110000000
          -43 callgsubr
          hintmask 1001010110000000
          -76 36 42 -9 39 hhcurveto
          hintmask 0011011010000000
          59 46 44 56 20 hvcurveto
          hintmask 0101010110000000
          -56 12 42 -43 79 hhcurveto
          86 37 34 120 5 hvcurveto
          -15 1 rlineto
          -37 callsubr
          hintmask 0011011010000000
          -6 callsubr
          hintmask 1001010110000000
          -91 -42 -51 -36 vhcurveto
          hintmask 0011100110000000
          -41 1 53 66 hvcurveto
          endchar
        </CharString>
        <CharString name="uni2215">
          -28 callsubr
        </CharString>
        <CharString name="uni2219">
          -47 callsubr
        </CharString>
        <CharString name="uogonek">
          15 -251 41 200 45 -35 -68 callgsubr
          5 callgsubr
          88 120 -100 -33 callgsubr
          hintmask 10111010
          -50 callsubr
          hintmask 11011010
          -79 callgsubr
          hintmask 10111010
          11 -73 rlineto
          119 hlineto
          -42 -26 rlineto
          hintmask 10111100
          -92 -56 -18 -32 -99 callsubr
          65 17 45 45 37 hvcurveto
          endchar
        </CharString>
        <CharString name="uring">
          15 42 15 117 202 endchar
        </CharString>
        <CharString name="utilde">
          15 46 15 117 196 endchar
        </CharString>
        <CharString name="v">
          -58 0 476 hstem
          299 98 7 callgsubr
          114 hlineto
          148 458 rlineto
          44 18 -135 -18 67 hlineto
          -108 -332 -120 332 rlineto
          63 18 -299 hlineto
          endchar
        </CharString>
        <CharString name="v_i">
          249 -73 callgsubr
          hstem
          587 186 7 callgsubr
          123 hlineto
          47 166 36 136 51 156 rrcurveto
          185 61 33 26 -27 callsubr
          -61 -92 -59 -49 -208 -67 hvcurveto
          -40 -128 -29 -98 -34 -124 -120 332 rcurveline
          63 18 -299 hlineto
          528 hmoveto
          -88 callgsubr
        </CharString>
        <CharString name="w">
          244 0 476 hstem
          310 42 258 69 -52 callgsubr
          137 hlineto
          120 458 rlineto
          42 18 -135 -18 69 hlineto
          -89 -337 -90 337 rlineto
          41 18 -258 hlineto
          endchar
        </CharString>
        <CharString name="w_i">
          551 -73 callgsubr
          hstem
          310 42 537 186 -52 callgsubr
          145 hlineto
          41 175 29 130 44 151 rrcurveto
          197 57 45 16 -27 callsubr
          -65 -85 -80 -44 -227 -62 hvcurveto
          -31 -112 -24 -100 -31 -129 -90 337 rcurveline
          41 18 -258 hlineto
          478 hmoveto
          -88 callgsubr
        </CharString>
        <CharString name="wacute">
          244 241 15 119 194 endchar
        </CharString>
        <CharString name="wcircumflex">
          244 219 0 119 18 callsubr
        </CharString>
        <CharString name="wdieresis">
          244 204 15 119 200 endchar
        </CharString>
        <CharString name="wgrave">
          244 233 15 119 193 endchar
        </CharString>
        <CharString name="x">
          5 0 476 hstem
          174 87 77 75 vstem
          367 295 rmoveto
          -99 163 rlineto
          70 18 -338 -18 58 hlineto
          152 -240 -127 -200 rlineto
          -66 -18 157 18 -66 hlineto
          114 180 110 -180 rlineto
          -71 -18 334 18 -52 hlineto
          -163 256 130 184 rlineto
          52 18 -149 -18 72 hlineto
          endchar
        </CharString>
        <CharString name="y">
          -58 -226 53 105 68 hstem
          295 104 vstem
          -79 callsubr
          endchar
        </CharString>
        <CharString name="yacute">
          -58 68 15 121 194 endchar
        </CharString>
        <CharString name="ycircumflex">
          -58 44 0 121 18 callsubr
        </CharString>
        <CharString name="ydieresis">
          -58 -226 53 105 68 558 23 callgsubr
          278 44 -27 104 hintmask 11001000
          -79 callsubr
          317 157 -85 callsubr
          hintmask 00110000
          -101 callgsubr
        </CharString>
        <CharString name="yen">
          19 0 19 229 28 73 28 307 16 hstemhm
          213 -10 callsubr
          hintmask 11111000
          387 391 rmoveto
          -136 293 rlineto
          65 16 -320 -16 47 hlineto
          156 -307 rlineto
          -100 -28 114 -73 -114 -28 114 -229 -61 -19 317 19 -61 229 120 28 -120 73 120 28 -117 hlineto
          hintmask 11111100
          148 307 rlineto
          66 16 -197 -16 101 hlineto
          endchar
        </CharString>
        <CharString name="ygrave">
          -58 33 15 121 193 endchar
        </CharString>
        <CharString name="z">
          -70 -73 callgsubr
          hstem
          36 439 vstem
          -95 callsubr
          endchar
        </CharString>
        <CharString name="zacute">
          -73 callgsubr
          64 210 hstemhm
          36 439 -284 174 hintmask 11010000
          -95 callsubr
          hintmask 00101000
          -284 89 -98 callgsubr
          endchar
        </CharString>
        <CharString name="zcaron">
          -73 callgsubr
          52 215 hstemhm
          36 439 -350 273 hintmask 11010000
          -95 callsubr
          hintmask 00101000
          -77 276 -67 callgsubr
        </CharString>
        <CharString name="zdotaccent">
          -73 callgsubr
          69 186 hstemhm
          36 439 -315 201 hintmask 11010000
          -95 callsubr
          -315 180 -94 callsubr
          vhcurveto
          hintmask 00101000
          -36 callsubr
          hvcurveto
          endchar
        </CharString>
        <CharString name="zero">
          74 -10 -36 callgsubr
          hstem
          30 205 195 204 vstem
          30 351 rmoveto
          -209 92 -152 210 174 128 98 263 263 -125 97 -177 -175 -127 -99 -261 vhcurveto
          205 37 rmoveto
          218 1 84 96 98 0 -75 -236 vhcurveto
          -88 vlineto
          -204 -3 -76 -95 -97 0 77 211 vhcurveto
          endchar
        </CharString>
      <CharString index="0">
        501 309 rmoveto
        -201 -14 -97 -112 -117 -12 108 188 vhcurveto
        72 vlineto
        205 8 106 121 120 6 -102 -205 vhcurveto
        -460 -44 rmoveto
        -220 107 -129 223 231 105 139 223 227 -109 132 -215 -223 -119 -142 -230 vhcurveto
        return
      </CharString>
      <CharString index="1">
        rmoveto
        8 -10 159 65 rlineto
        27 11 17 22 25 vvcurveto
        20 -12 22 -36 3 vhcurveto
        -48 4 rlineto
        return
      </CharString>
      <CharString index="2">
        hintmask 00000000
        hintmask 10100100
        400 691 rmoveto
        86 60 -85 -123 4 callsubr
        hintmask 10010100
        -8 217 rlineto
        -11 hlineto
        hintmask 10100100
        -55 callgsubr
        -48 31 -104 hhcurveto
        -205 -140 -128 -242 -239 130 -112 212 hvcurveto
        110 55 31 34 hhcurveto
        hintmask 01100100
        16 4 -7 -13 7 hvcurveto
        11 hlineto
        7 223 rlineto
        -18 hlineto
        hintmask 10100100
        -130 -56 -65 -84 -81 hhcurveto
        -109 -53 119 184 hvcurveto
        79 vlineto
        207 54 92 101 vhcurveto
        return
      </CharString>
      <CharString index="3">
        -17 -12 11 41 hvcurveto
        203 vlineto
        145 -53 44 -157 -136 -73 -39 -84 -49 24 -34 62 50 38 31 47 19 -3 13 -5 13 vhcurveto
        -25 hlineto
        -4 11 -2 10 8 vvcurveto
        32 29 8 18 40 11 -33 -127 vhcurveto
        -77 vlineto
        return
      </CharString>
      <CharString index="4">
        325 11 rmoveto
        -110 -97 117 100 -50 hvcurveto
        -17 hlineto
        10 -238 rlineto
        14 hlineto
        19 8 6 11 16 28 84 -30 97 hhcurveto
        147 98 95 144 166 -123 38 -111 30 hvcurveto
        -101 27 -68 25 74 vvcurveto
        59 50 42 72 103 68 -100 -92 51 vhcurveto
        16 hlineto
        return
      </CharString>
      <CharString index="5">
        81 39 63 42 25 12 -10 -85 vhcurveto
        -325 -41 -18 283 18 -56 301 vlineto
        121 -62 46 -93 -99 -33 -52 -50 -17 vhcurveto
        return
      </CharString>
      <CharString index="6">
        -48 -26 -34 -39 hvcurveto
        -193 hmoveto
        -100 callgsubr
        endchar
      </CharString>
      <CharString index="7">
        -104 callsubr
        -48 -26 -34 -39 vhcurveto
        return
      </CharString>
      <CharString index="8">
        -45 callsubr
        4 callgsubr
        420 23 rmoveto
        101 65 63 143 hvcurveto
        452 vlineto
        hintmask 10001000
        -65 19 146 -19 -55 -445 hlineto
        -154 -51 -92 -205 -163 -117 58 199 vhcurveto
        434 -55 19 315 -19 vlineto
        hintmask 10010000
        -69 callsubr
        hintmask 01100000
        return
      </CharString>
      <CharString index="9">
        rmoveto
        11 -7 134 111 rlineto
        21 19 8 16 18 vvcurveto
        26 -19 28 -45 -10 vhcurveto
        -47 -10 rlineto
        return
      </CharString>
      <CharString index="10">
        rmoveto
        16 3 -6 15 -21 hhcurveto
        -13 -30 -4 -62 -16 2 -20 5 -24 hvcurveto
        39 -26 37 -35 -66 vvcurveto
        -114 -82 -57 -122 -29 -31 4 4 -21 vhcurveto
        -35 -22 -9 -11 -9 vvcurveto
        -9 11 -5 53 vhcurveto
        102 hlineto
        113 114 -27 -136 -111 -80 -80 -202 -174 -73 42 65 50 42 20 35 10 hvcurveto
        60 -27 rlineto
        -6 -22 -2 -17 -16 vvcurveto
        -42 21 -44 107 106 56 43 63 48 -22 19 -105 vhcurveto
        -97 hlineto
        -119 -32 49 44 57 36 28 78 47 hvcurveto
        -78 22 -38 47 83 vvcurveto
        94 65 73 151 49 29 -7 -18 33 vhcurveto
        -4 18 -2 16 15 vvcurveto
        82 57 24 41 47 34 -26 -48 -46 -30 -20 -33 -30 -26 18 34 -2 vhcurveto
        -212 -241 rmoveto
        -94 17 -21 30 27 17 16 104 vhcurveto
        49 vlineto
        112 -16 15 -27 -28 -20 -18 -109 vhcurveto
        return
      </CharString>
      <CharString index="11">
        -13 -7 -5 -7 -17 -34 -52 31 -92 hhcurveto
        -154 -83 -105 -112 -151 92 -48 121 -34 hvcurveto
        123 -35 62 -27 -83 vvcurveto
        -73 -67 -32 -60 vhcurveto
        return
      </CharString>
      <CharString index="12">
        559 -64 callsubr
        -495 hlineto
        -15 -221 rlineto
        18 hlineto
        158 76 42 41 121 hhcurveto
        41 hlineto
        -299 -659 rlineto
        -19 512 vlineto
        12 244 rlineto
        -18 hlineto
        -144 -41 -99 -77 -117 hhcurveto
        -34 hlineto
        296 655 rlineto
        return
      </CharString>
      <CharString index="13">
        8 218 rlineto
        -20 hlineto
        -109 -30 -88 -87 -127 hhcurveto
        -38 return
      </CharString>
      <CharString index="14">
        25 -64 callsubr
        -19 55 -662 -55 -19 305 19 -55 662 55 19 vlineto
        return
      </CharString>
      <CharString index="15">
        rmoveto
        -48 -4 rlineto
        -36 -3 -12 -22 -20 vvcurveto
        -25 17 -22 27 -11 vhcurveto
        159 -65 8 10 rlineto
        endchar
      </CharString>
      <CharString index="16">
        106 9 64 36 122 vvcurveto
        146 -100 22 -209 vhcurveto
        -302 -19 65 -662 -65 -19 325 19 -65 335 hlineto
        327 vmoveto
        33 hlineto
        70 41 -18 -112 hvcurveto
        -29 vlineto
        -108 -38 -41 -74 vhcurveto
        -32 hlineto
        return
      </CharString>
      <CharString index="17">
        -251 -18 65 -514 hlineto
        -144 -11 -33 -45 -34 -23 29 36 23 vhcurveto
        38 hlineto
        3 12 3 16 14 vvcurveto
        43 -24 34 -53 -50 -42 -30 -60 -51 39 -60 121 177 64 128 208 vhcurveto
        return
      </CharString>
      <CharString index="18">
        rmoveto
        79 56 45 60 53 vvcurveto
        35 -20 35 -42 -19 -17 -10 -19 -19 vhcurveto
        -22 -22 rlineto
        23 -20 22 -23 -30 vvcurveto
        -27 -10 -40 -32 -35 vhcurveto
        endchar
      </CharString>
      <CharString index="19">
        -85 callgsubr
        endchar
      </CharString>
      <CharString index="20">
        rmoveto
        -97 13 25 -75 104 hhcurveto
        97 35 75 97 10 hvcurveto
        -15 3 rlineto
        -60 -17 -38 -8 -70 hhcurveto
        return
      </CharString>
      <CharString index="21">
        -141 37 -42 126 93 28 29 114 15 17 callgsubr
        -78 -13 -15 -8 -18 hhcurveto
        -28 -3 23 65 hvcurveto
        53 vlineto
        116 -37 42 -108 14 vhcurveto
        3 vlineto
        return
      </CharString>
      <CharString index="22">
        -18 59 -440 -74 callgsubr
        458 vlineto
        return
      </CharString>
      <CharString index="23">
        3 -9 rlineto
        3 12 9 1 9 hhcurveto
        31 1 -30 -52 -57 -11 -20 -25 return
      </CharString>
      <CharString index="24">
        -88 -27 hvcurveto
        12 -4 rlineto
        36 15 26 5 14 hhcurveto
        return
      </CharString>
      <CharString index="25">
        -49 hhcurveto
        -151 -65 -73 -94 -83 38 -47 78 -22 hvcurveto
        -78 -47 -36 -28 -57 vvcurveto
        -44 32 -49 119 vhcurveto
        97 hlineto
        105 22 -19 -48 -63 -56 -43 -106 -107 -21 44 42 16 2 17 6 22 hvcurveto
        -60 27 rlineto
        -35 -10 -42 -20 -50 vvcurveto
        -65 73 -42 174 202 80 80 111 136 -114 27 -113 vhcurveto
        -102 hlineto
        -53 -11 5 9 9 9 11 35 22 hvcurveto
        -4 21 31 -4 29 hhcurveto
        122 82 57 114 66 return
      </CharString>
      <CharString index="26">
        rmoveto
        10 -8 141 91 rlineto
        19 12 16 19 24 vvcurveto
        22 -12 24 -41 -5 vhcurveto
        -45 -5 rlineto
        -229 -174 rmoveto
        11 -8 135 101 rlineto
        18 13 11 22 21 vvcurveto
        24 -15 21 -40 -7 vhcurveto
        -44 -7 rlineto
        endchar
      </CharString>
      <CharString index="27">
        -16 callsubr
        15 callsubr
        284 18 -43 276 vlineto
        return
      </CharString>
      <CharString index="28">
        -76 -31 -41 -40 -25 -12 13 85 vhcurveto
        343 -242 -18 56 -301 vlineto
        -121 62 -46 93 90 32 36 47 19 vhcurveto
        return
      </CharString>
      <CharString index="29">
        rmoveto
        235 19 -43 79 62 -42 19 118 -19 -52 -62 298 -127 hlineto
        -175 -301 rlineto
        -21 168 -79 -58 vlineto
        -81 103 rmoveto
        139 238 rlineto
        -238 vlineto
        return
      </CharString>
      <CharString index="30">
        -207 -73 callgsubr
        98 114 68 17 hstem
        -39 callsubr
        100 112 vstem
        313 756 rmoveto
        27 22 -19 -49 -18 -66 callsubr
        54 47 36 27 60 49 -34 63 -125 -180 -59 -111 -182 vhcurveto
        -4 -58 -18 58 -35 callgsubr
        363 18 -122 return
      </CharString>
      <CharString index="31">
        -40 22 -46 67 56 30 36 53 59 -37 26 -52 return
      </CharString>
      <CharString index="32">
        rmoveto
        -74 -46 -58 -58 -76 vvcurveto
        -61 36 -35 54 44 36 29 44 38 -30 24 -23 8 vhcurveto
        -42 -39 rlineto
        -12 2 -15 10 24 vvcurveto
        37 27 42 66 43 vhcurveto
        return
      </CharString>
      <CharString index="33">
        -55 -18 297 18 -56 return
      </CharString>
      <CharString index="34">
        0 -68 callgsubr
        return
      </CharString>
      <CharString index="35">
        6 750 rmoveto
        -18 59 -714 -74 callgsubr
        732 vlineto
        return
      </CharString>
      <CharString index="36">
        -77 -22 -50 -47 -74 hhcurveto
        -97 -21 80 118 hvcurveto
        39 282 vlineto
        149 6 -67 79 return
      </CharString>
      <CharString index="37">
        104 0 19 216 22 449 -20 return
      </CharString>
      <CharString index="38">
        714 362 rmoveto
        249 -137 89 -247 vhcurveto
        -309 -19 66 -662 -66 -19 283 hlineto
        239 171 80 282 hvcurveto
        -432 -343 rmoveto
        662 -65 callsubr
        return
      </CharString>
      <CharString index="39">
        18 440 18 return
      </CharString>
      <CharString index="40">
        rmoveto
        -12 9 -124 -107 -126 106 -11 -7 64 -159 rlineto
        -29 12 20 -19 37 hhcurveto
        17 22 7 9 15 hvcurveto
        endchar
      </CharString>
      <CharString index="41">
        -273 0 18 440 15 callgsubr
        59 638 -94 callsubr
        -36 callsubr
        vhcurveto
        -53 -162 rmoveto
        -88 callgsubr
      </CharString>
      <CharString index="42">
        158 -10 -36 callgsubr
        return
      </CharString>
      <CharString index="43">
        hstemhm
        6 153 -153 682 return
      </CharString>
      <CharString index="44">
        rmoveto
        -5 -8 -8 -14 -16 vvcurveto
        -17 10 -12 20 -17 vhcurveto
        159 -130 9 7 -85 175 86 163 return
      </CharString>
      <CharString index="45">
        40 -40 52 177 16 45 123 69 14 return
      </CharString>
      <CharString index="46">
        hstem
        251 124 vstem
        329 443 rmoveto
        34 12 -33 -141 hvcurveto
        -52 vlineto
        -139 -10 -59 -49 return
      </CharString>
      <CharString index="47">
        290 468 rmoveto
        28 20 -14 -34 -10 -2 -12 -5 -14 hvcurveto
        -33 hlineto
        -4 -14 -1 -13 -9 vvcurveto
        -56 37 -27 52 50 33 32 62 75 -61 52 -122 -165 -102 -86 -168 -156 return
      </CharString>
      <CharString index="48">
        rmoveto
        21 hlineto
        40 183 rlineto
        5 24 4 23 19 vvcurveto
        24 -14 13 -20 -18 -21 -7 -13 -26 vhcurveto
        return
      </CharString>
      <CharString index="49">
        -29 -21 13 22 7 2 7 4 8 hvcurveto
        15 hlineto
        3 8 3 9 11 vvcurveto
        30 -23 18 -32 -39 -21 -29 -32 -74 80 -14 60 115 67 49 76 59 -43 45 -107 7 vhcurveto
        1 vlineto
        return
      </CharString>
      <CharString index="50">
        hhcurveto
        -162 -77 -90 -182 hvcurveto
        -2 -58 -18 58 -35 callgsubr
        291 18 -50 440 return
      </CharString>
      <CharString index="51">
        rmoveto
        49 vlineto
        106 19 34 35 41 8 -35 -105 vhcurveto
        return
      </CharString>
      <CharString index="52">
        -13 -7 -4 -7 -16 -35 return
      </CharString>
      <CharString index="53">
        rmoveto
        -91 63 -61 108 90 83 53 107 108 -73 44 -96 -101 -74 -60 28 callgsubr
        39 51 47 1 -38 -100 -94 0 -48 -49 -50 0 42 95 vhcurveto
        return
      </CharString>
      <CharString index="54">
        hintmask 0000000000000000
        return
      </CharString>
      <CharString index="55">
        vstem
        352 458 rmoveto
        37 hlineto
        25 -106 -72 -234 -92 340 rlineto
        60 18 -303 -18 45 hlineto
        148 -458 rlineto
        134 hlineto
        94 307 87 -307 rlineto
        return
      </CharString>
      <CharString index="56">
        rmoveto
        -70 -41 -32 -48 -56 vvcurveto
        -55 27 -36 50 42 29 24 45 38 -27 21 -22 8 vhcurveto
        -31 -31 rlineto
        -11 5 -7 9 19 vvcurveto
        18 13 27 50 38 vhcurveto
        endchar
      </CharString>
      <CharString index="57">
        rmoveto
        70 41 26 46 54 vvcurveto
        54 -27 35 -44 -36 -29 -23 -42 -37 23 -20 22 -8 vhcurveto
        29 29 rlineto
        11 -5 7 -9 -19 vvcurveto
        -18 -13 -25 -50 -38 vhcurveto
        endchar
      </CharString>
      <CharString index="58">
        20 12 -21 282 22 386 20 -11 -20 return
      </CharString>
      <CharString index="59">
        -45 callsubr
        hintmask 00000000
        420 23 rmoveto
        -123 -26 80 110 hvcurveto
        return
      </CharString>
      <CharString index="60">
        76 -21 49 -10 -45 vvcurveto
        -38 -28 -27 -74 -82 -61 35 122 -37 vhcurveto
        -12 hlineto
        return
      </CharString>
      <CharString index="61">
        -55 -18 287 18 -46 227 vlineto
        19 5 113 -232 rlineto
        -46 hlineto
        return
      </CharString>
      <CharString index="62">
        100 -10 20 12 -21 690 20 -11 -20 return
      </CharString>
      <CharString index="63">
        -72 -37 12 56 -19 hvcurveto
        return
      </CharString>
      <CharString index="64">
        268 501 rmoveto
        -188 -9 rlineto
        -696 vlineto
        91 -19 rlineto
        30 -7 33 22 30 vvcurveto
        25 -14 28 -22 54 vhcurveto
        -58 142 4 3 rlineto
        return
      </CharString>
      <CharString index="65">
        rmoveto
        272 97 -272 hlineto
        endchar
      </CharString>
      <CharString index="66">
        rmoveto
        -95 -50 -46 -53 -32 19 -28 41 31 24 19 31 12 -2 8 -3 9 hvcurveto
        -20 hlineto
        37 -16 26 25 32 hhcurveto
        42 6 -32 -47 hvcurveto
        return
      </CharString>
      <CharString index="67">
        hstemhm
        20 190 -164 174 return
      </CharString>
      <CharString index="68">
        756 rmoveto
        46 42 -18 -49 -18 hvcurveto
        -41 -11 rlineto
        -3 -12 -3 -16 -15 vvcurveto
        -41 29 -30 54 47 38 27 60 65 -64 57 -117 return
      </CharString>
      <CharString index="69">
        706 rmoveto
        -100 14 24 -80 104 hhcurveto
        97 35 80 100 10 hvcurveto
        -15 3 rlineto
        -60 -17 -38 -8 -70 hhcurveto
        -44 callgsubr
        return
      </CharString>
      <CharString index="70">
        49 36 40 107 27 hvcurveto
        -13 4 rlineto
        return
      </CharString>
      <CharString index="71">
        21 679 21 return
      </CharString>
      <CharString index="72">
        -440 -55 -18 return
      </CharString>
      <CharString index="73">
        24 152 29 -27 21 358 21 155 22 hstemhm
        70 28 135 116 434 26 hintmask 00000000
        hintmask 10111111
        433 return
      </CharString>
      <CharString index="74">
        186 hintmask 00000000
        return
      </CharString>
      <CharString index="75">
        -31 callsubr
        20 return
      </CharString>
      <CharString index="76">
        -235 -35 callsubr
        return
      </CharString>
      <CharString index="77">
        -55 -18 370 18 -129 259 hlineto
        -31 18 25 -18 68 hhcurveto
        136 70 76 171 170 -69 79 return
      </CharString>
      <CharString index="78">
        -231 173 162 48 324 -20 return
      </CharString>
      <CharString index="79">
        19 662 19 return
      </CharString>
      <CharString index="80">
        497 rmoveto
        -37 vlineto
        398 -169 -398 -170 rlineto
        -35 vlineto
        452 191 rlineto
        26 vlineto
        endchar
      </CharString>
      <CharString index="81">
        86 rmoveto
        37 vlineto
        -398 171 398 168 rlineto
        35 vlineto
        -452 -191 rlineto
        -26 vlineto
        endchar
      </CharString>
      <CharString index="82">
        33 -10 rmoveto
        12 hlineto
        28 16 14 9 13 hhcurveto
        4 9 -4 -4 6 hvcurveto
        -19 38 34 -10 48 hhcurveto
        return
      </CharString>
      <CharString index="83">
        0 18 420 48 return
      </CharString>
      <CharString index="84">
        552 95 hstem
        114 272 vstem
        114 552 rmoveto
        272 95 -272 hlineto
        endchar
      </CharString>
      <CharString index="85">
        425 11 -21 691 19 return
      </CharString>
      <CharString index="86">
        122 33 72 78 9 return
      </CharString>
      <CharString index="87">
        -399 -659 rlineto
        -47 -19 154 19 -75 hlineto
        194 320 rlineto
        210 hlineto
        return
      </CharString>
      <CharString index="88">
        rmoveto
        49 27 44 75 62 37 -31 -61 -53 -29 -41 -72 -81 -19 51 42 vhcurveto
        endchar
      </CharString>
      <CharString index="89">
        -65 callsubr
        endchar
      </CharString>
      <CharString index="90">
        10 -10 -36 callgsubr
        -11 -20 return
      </CharString>
      <CharString index="91">
        93 -10 710 return
      </CharString>
      <CharString index="92">
        31 -18 -36 18 -62 hhcurveto
        -128 -70 -80 -169 -168 70 -79 111 return
      </CharString>
      <CharString index="93">
        -34 2 26 -18 30 hhcurveto
        33 30 20 46 48 -34 26 -47 -41 -57 -24 -82 return
      </CharString>
      <CharString index="94">
        51 0 19 665 16 return
      </CharString>
      <CharString index="95">
        -250 17 65 119 return
      </CharString>
      <CharString index="96">
        hstemhm
        41 204 return
      </CharString>
      <CharString index="97">
        -28 14 -28 43 36 19 23 34 37 -24 17 -33 -36 -19 -24 -31 vhcurveto
        return
      </CharString>
      <CharString index="98">
        hstem
        38 454 vstem
        492 return
      </CharString>
      <CharString index="99">
        vlineto
        -94 callgsubr
        return
      </CharString>
      <CharString index="100">
        194 131 44 170 157 -111 42 -188 hvcurveto
        -34 return
      </CharString>
      <CharString index="101">
        20 152 104 hstemhm
        167 48 137 48 hintmask 11010000
        268 return
      </CharString>
      <CharString index="102">
        -5 -13 -3 -13 -19 vvcurveto
        -47 38 -31 50 62 27 44 49 84 return
      </CharString>
      <CharString index="103">
        -119 49 -80 99 -32 vhcurveto
        -27 -72 22 -8 28 74 rlineto
        return
      </CharString>
      <CharString index="104">
        443 0 19 -19 22 314 26 -23 24 315 22 return
      </CharString>
      <CharString index="105">
        186 143 186 return
      </CharString>
      <CharString index="106">
        -143 -65 -63 -101 vhcurveto
        return
      </CharString>
      <CharString index="107">
        123 23 callsubr
        return
      </CharString>
      <CharString index="108">
        hstem
        -40 callsubr
        return
      </CharString>
      <CharString index="109">
        -271 -127 922 hstem
        140 39 vstem
        140 return
      </CharString>
      <CharString index="110">
        rrcurveto
        -3 52 58 -51 49 hhcurveto
        28 28 22 44 hvcurveto
        return
      </CharString>
      <CharString index="111">
        hintmask 00000000
        hintmask 10010000
        return
      </CharString>
      <CharString index="112">
        hstemhm
        60 186 return
      </CharString>
      <CharString index="113">
        172 hstemhm
        return
      </CharString>
      <CharString index="114">
        vstem
        458 vmoveto
        41 hlineto
        185 -458 rlineto
        return
      </CharString>
      <CharString index="115">
        -235 20 callsubr
        return
      </CharString>
      <CharString index="116">
        -251 41 210 return
      </CharString>
      <CharString index="117">
        18 hstem
        -39 callsubr
        return
      </CharString>
      <CharString index="118">
        460 -30 rmoveto
        -201 -14 -97 -112 return
      </CharString>
      <CharString index="119">
        6 -16 callsubr
        -18 59 -35 callgsubr
        return
      </CharString>
      <CharString index="120">
        20 152 104 hstem
        167 48 vstem
        83 return
      </CharString>
      <CharString index="121">
        -47 -10 18 460 18 return
      </CharString>
      <CharString index="122">
        10 callgsubr
        vstem
        return
      </CharString>
      <CharString index="123">
        142 52 66 86 23 return
      </CharString>
      <CharString index="124">
        vhcurveto
        -17 2 rlineto
        return
      </CharString>
      <CharString index="125">
        40 428 18 return
      </CharString>
      <CharString index="126">
        -105 -45 rlineto
        36 -18 -43 32 -88 hhcurveto
        return
      </CharString>
      <CharString index="127">
        -18 2 rlineto
        -54 -11 -39 -77 -91 hhcurveto
        return
      </CharString>
      <CharString index="128">
        17 hstemhm
        65 -2 callgsubr
        return
      </CharString>
      <CharString index="129">
        -85 -25 -45 -84 -67 vhcurveto
        -64 -51 rlineto
        return
      </CharString>
</ttFont>
